<?xml version="1.0" encoding="utf-8"?>
<!-- Generator: Adobe Illustrator 16.0.3, SVG Export Plug-In . SVG Version: 6.00 Build 0)  -->
<!DOCTYPE svg PUBLIC "-//W3C//DTD SVG 1.0//EN" "http://www.w3.org/TR/2001/REC-SVG-20010904/DTD/svg10.dtd">
<svg version="1.0" id="Layer_1" xmlns="http://www.w3.org/2000/svg" xmlns:xlink="http://www.w3.org/1999/xlink" x="0px" y="0px"
	 width="180px" height="70px" viewBox="0 0 180 70" enable-background="new 0 0 180 70" xml:space="preserve">
<g display="none">
	<path display="inline" fill="#666666" d="M32.397,25.649v26.624l-2.618,1.601l-2.621-1.609V25.669l-6.784,4.178v22.769l9.405,5.754
		l9.484-5.795V29.833L32.397,25.649z M29.779,11.63L10,23.613v22.771l5.137,3.027V26.637l14.646-8.906l14.66,8.893l0.061,0.035
		l-0.006,22.718l5.086-2.993V23.613L29.779,11.63z"/>
	<path display="inline" fill="#B3B3B3" d="M49.583,23.612L29.779,11.63L10,23.612l5.136,3.025l14.647-8.906l14.721,8.928
		L49.583,23.612z M32.397,25.648v8.396l6.866-4.212L32.397,25.648z M20.374,29.848l6.783,4.143v-8.322L20.374,29.848z"/>
	<polygon display="inline" fill="#171113" points="79.789,45.523 78.425,28.113 71.511,45.618 69.259,45.618 62.346,28.113 
		61.014,45.523 58.224,45.523 59.967,23.642 63.646,23.642 70.465,41.592 77.283,23.642 80.931,23.642 82.643,45.523 	"/>
	<path display="inline" fill="#171113" d="M94.154,37.849c-5.583,0.539-6.755,2.062-6.755,3.616c0,1.236,0.824,2.029,2.252,2.029
		c1.65,0,3.233-0.824,4.502-2.125V37.849z M94.692,45.523l-0.316-2.029c-1.205,1.235-2.854,2.347-5.328,2.347
		c-2.728,0-4.439-1.649-4.439-4.219c0-3.773,3.232-5.263,9.545-5.931v-0.633c0-1.904-1.141-2.569-2.887-2.569
		c-1.839,0-3.583,0.571-5.232,1.3l-0.381-2.441c1.808-0.73,3.521-1.269,5.868-1.269c3.678,0,5.454,1.489,5.454,4.852v10.592H94.692z
		"/>
	<path display="inline" fill="#171113" d="M105.443,32.14c-1.903,0-3.077,1.461-3.077,3.298c0,1.745,1.207,3.107,3.077,3.107
		c1.936,0,3.14-1.426,3.14-3.235C108.583,33.504,107.313,32.14,105.443,32.14 M101.321,47.174c0,1.204,1.555,2.092,4.502,2.092
		c2.949,0,4.599-1.015,4.599-2.283c0-0.921-0.696-1.554-2.853-1.934l-1.811-0.319c-0.822-0.156-1.266-0.252-1.868-0.379
		C102.113,45.239,101.321,46.126,101.321,47.174 M113.181,30.175l0.412,2.536l-2.885,0.285c0.411,0.699,0.604,1.492,0.604,2.348
		c0,3.236-2.729,5.199-5.805,5.199c-0.381,0-0.763-0.031-1.141-0.095c-0.446,0.286-0.761,0.638-0.761,0.921
		c0,0.538,0.538,0.667,3.199,1.144l1.08,0.188c3.205,0.571,5.201,1.584,5.201,3.932c0,3.172-3.457,4.662-7.389,4.662
		s-7.072-1.236-7.072-3.898c0-1.556,1.079-2.761,3.203-3.902c-0.666-0.475-0.95-1.016-0.95-1.587c0-0.729,0.57-1.459,1.583-2.061
		c-1.678-0.824-2.822-2.44-2.822-4.503c0-3.267,2.728-5.264,5.805-5.264c1.522,0,2.854,0.443,3.9,1.268L113.181,30.175z"/>
	<path display="inline" fill="#171113" d="M120.157,32.3c-1.743,0-3.234,1.237-3.679,3.837h7.293
		C123.425,33.694,122.347,32.3,120.157,32.3 M126.628,38.261h-10.275c0.094,3.521,1.773,5.171,4.407,5.171
		c2.189,0,3.777-0.856,5.423-2.157l0.411,2.537c-1.614,1.268-3.55,2.029-6.056,2.029c-3.931,0-7.009-2.38-7.009-7.929
		c0-4.852,2.854-7.832,6.66-7.832c4.407,0,6.438,3.392,6.438,7.578V38.261z"/>
	<path display="inline" fill="#171113" d="M138.52,45.523V35.217c0-1.554-0.666-2.601-2.314-2.601c-1.49,0-3.014,0.984-4.377,2.442
		v10.465h-2.822V30.396h2.252l0.349,2.188c1.426-1.299,3.203-2.505,5.358-2.505c2.854,0,4.379,1.711,4.379,4.439v11.005H138.52z"/>
	<path display="inline" fill="#171113" d="M149.683,45.777c-2.666,0-4.408-0.95-4.408-3.997v-9.005h-2.285v-2.379h2.285v-5.042
		l2.762-0.411v5.453h3.262l0.382,2.379h-3.644v8.499c0,1.238,0.504,1.998,2.091,1.998c0.507,0,0.951-0.03,1.299-0.095l0.383,2.407
		C151.332,45.682,150.667,45.777,149.683,45.777"/>
	<path display="inline" fill="#171113" d="M159.038,32.458c-2.729,0-4.093,2.345-4.093,5.519c0,3.109,1.428,5.518,4.093,5.518
		c2.791,0,4.185-2.347,4.185-5.518C163.223,34.868,161.764,32.458,159.038,32.458 M159.038,45.841c-4.028,0-6.946-2.886-6.946-7.864
		c0-4.981,2.918-7.896,6.946-7.896c4.06,0,7.039,2.915,7.039,7.896C166.077,42.955,163.098,45.841,159.038,45.841"/>
	<path display="inline" fill="#171113" d="M168.067,29.875h-0.286v0.644h0.271c0.246,0,0.399-0.103,0.399-0.322
		C168.451,29.985,168.313,29.875,168.067,29.875 M168.645,31.746l-0.652-0.931h-0.211v0.898h-0.373v-2.177h0.659
		c0.46,0,0.765,0.229,0.765,0.635c0,0.313-0.172,0.518-0.442,0.603l0.628,0.889L168.645,31.746z M168.078,28.951
		c-0.916,0-1.644,0.627-1.644,1.746c0,1.11,0.728,1.736,1.644,1.736c0.925,0,1.651-0.626,1.651-1.736
		C169.729,29.578,168.991,28.951,168.078,28.951 M168.078,32.662c-1.136,0-1.924-0.789-1.924-1.966c0-1.169,0.805-1.973,1.924-1.973
		c1.133,0,1.922,0.797,1.922,1.973C170,31.865,169.195,32.662,168.078,32.662"/>
</g>
<g display="none">
	<g display="inline">
		<g>
			<path fill="#666666" d="M4.256,35c0,6.825,3.966,12.725,9.719,15.521L5.749,27.98C4.792,30.125,4.256,32.499,4.256,35z"/>
			<path fill="#666666" d="M33.145,34.128c0-2.131-0.766-3.606-1.423-4.755c-0.874-1.42-1.693-2.623-1.693-4.044
				c0-1.586,1.202-3.062,2.896-3.062c0.077,0,0.149,0.01,0.224,0.014c-3.069-2.812-7.156-4.526-11.646-4.526
				c-6.025,0-11.326,3.091-14.41,7.771c0.406,0.013,0.786,0.021,1.11,0.021c1.805,0,4.597-0.219,4.597-0.219
				c0.929-0.055,1.039,1.31,0.11,1.421c0,0-0.935,0.109-1.975,0.164l6.281,18.681l3.774-11.319l-2.687-7.361
				c-0.928-0.055-1.809-0.164-1.809-0.164c-0.93-0.056-0.82-1.476,0.109-1.421c0,0,2.847,0.219,4.543,0.219
				c1.802,0,4.596-0.219,4.596-0.219c0.931-0.055,1.04,1.31,0.11,1.421c0,0-0.936,0.109-1.975,0.164l6.233,18.538l1.719-5.747
				C32.577,37.318,33.145,35.605,33.145,34.128z"/>
			<path fill="#666666" d="M21.805,36.509l-5.175,15.035c1.546,0.454,3.179,0.702,4.873,0.702c2.007,0,3.935-0.347,5.727-0.978
				c-0.046-0.074-0.088-0.151-0.123-0.237L21.805,36.509z"/>
			<path fill="#666666" d="M36.634,26.725c0.075,0.551,0.116,1.14,0.116,1.774c0,1.75-0.326,3.717-1.311,6.177l-5.267,15.23
				c5.126-2.99,8.575-8.544,8.575-14.906C38.747,32.001,37.982,29.182,36.634,26.725z"/>
			<path fill="#666666" d="M21.502,14.896C10.417,14.896,1.398,23.914,1.398,35s9.019,20.104,20.104,20.104
				c11.084,0,20.104-9.018,20.104-20.104S32.586,14.896,21.502,14.896z M21.502,54.182C10.925,54.182,2.32,45.576,2.32,35
				c0-10.578,8.605-19.182,19.182-19.182c10.576,0,19.18,8.604,19.18,19.182C40.682,45.576,32.078,54.182,21.502,54.182z"/>
		</g>
	</g>
	<path display="inline" fill="#171113" d="M104.173,30.723h-6.975v0.74c2.182,0,2.533,0.467,2.533,3.234v4.987
		c0,2.768-0.352,3.274-2.533,3.274c-1.676-0.234-2.807-1.131-4.365-2.845l-1.792-1.948c2.416-0.43,3.702-1.948,3.702-3.664
		c0-2.143-1.831-3.779-5.261-3.779h-6.858v0.74c2.181,0,2.533,0.467,2.533,3.234v4.987c0,2.768-0.352,3.274-2.533,3.274v0.74h7.754
		v-0.74c-2.182,0-2.533-0.507-2.533-3.274v-1.401h0.663l4.325,5.416h11.34c5.573,0,7.989-2.961,7.989-6.509
		C112.162,33.646,109.746,30.723,104.173,30.723z M87.845,37.074v-5.183h1.598c1.754,0,2.533,1.207,2.533,2.61
		c0,1.364-0.779,2.572-2.533,2.572H87.845z M104.29,42.491h-0.272c-1.403,0-1.599-0.351-1.599-2.144v-8.456c0,0,1.716,0,1.871,0
		c4.053,0,4.793,2.961,4.793,5.261C109.083,39.529,108.343,42.491,104.29,42.491z M68.869,26.825h-7.326v0.78
		c2.494,0,2.845,0.662,2.065,2.961l-2.689,7.949l-3.857-11.69H56.32l-3.936,11.69l-2.611-7.949
		c-0.819-2.416-0.195-2.961,2.105-2.961v-0.78h-8.651v0.78c2.26,0,2.884,0.584,3.819,3.43l4.326,13.326h0.507l4.052-12.197
		l3.976,12.197h0.505l4.443-13.326c0.975-2.846,1.559-3.43,4.014-3.43V26.825z M74.167,30.216c-4.286,0-7.793,3.157-7.793,6.975
		c0,3.858,3.507,7.016,7.793,7.016c4.288,0,7.795-3.157,7.795-7.016C81.962,33.373,78.455,30.216,74.167,30.216z M74.167,42.959
		c-3.584,0-4.831-3.196-4.831-5.769c0-2.533,1.247-5.766,4.831-5.766c3.625,0,4.873,3.232,4.873,5.766
		C79.04,39.763,77.792,42.959,74.167,42.959z M120.93,26.825h-8.067v0.78c2.612,0,3.079,0.623,3.079,4.52v6.234
		c0,3.898-0.467,4.561-3.079,4.561v0.779h8.925V42.92c-2.611,0-3.079-0.662-3.079-4.561V36.45h2.222
		c4.014,0,6.234-2.104,6.234-4.793C127.164,28.891,124.943,26.825,120.93,26.825z M120.93,35.009h-2.222v-6.78h2.222
		c2.183,0,3.195,1.559,3.195,3.429C124.125,33.488,123.112,35.009,120.93,35.009z M153.74,40.738
		c-0.35,1.285-0.779,1.753-3.546,1.753h-0.545c-2.026,0-2.378-0.468-2.378-3.235v-1.792c3.04,0,3.274,0.272,3.274,2.299h0.739
		v-5.806h-0.739c0,2.026-0.234,2.299-3.274,2.299v-4.364h2.144c2.767,0,3.196,0.468,3.546,1.754l0.195,0.739h0.624l-0.272-3.662
		h-11.457v0.74c2.182,0,2.532,0.467,2.532,3.234v4.987c0,2.532-0.299,3.169-2.019,3.26c-1.636-0.249-2.759-1.142-4.293-2.83
		l-1.793-1.948c2.415-0.43,3.701-1.948,3.701-3.664c0-2.143-1.831-3.779-5.26-3.779h-6.859v0.74c2.183,0,2.533,0.467,2.533,3.234
		v4.987c0,2.768-0.351,3.274-2.533,3.274v0.74h7.756v-0.74c-2.183,0-2.533-0.507-2.533-3.274v-1.401h0.662l4.326,5.416h16.016
		l0.232-3.663h-0.584L153.74,40.738z M133.283,37.074v-5.183h1.597c1.754,0,2.534,1.207,2.534,2.61c0,1.364-0.78,2.572-2.534,2.572
		H133.283z M163.989,36.528l-2.144-1.052c-1.87-0.857-2.688-1.403-2.688-2.416c0-0.974,1.012-1.598,2.104-1.598
		c2.065,0,3.079,1.519,3.352,3.352h0.817v-4.599h-0.74c-0.117,0.468-0.312,0.896-0.507,1.052c-0.662-0.545-1.753-1.012-3.039-1.012
		c-2.416,0-4.169,1.597-4.169,3.467c0,1.714,1.169,3,2.728,3.741l2.221,1.052c1.598,0.74,2.494,1.521,2.494,2.533
		c0,1.169-1.014,1.871-2.26,1.871c-2.3,0-4.092-1.52-4.403-4.092h-0.779v5.378h0.739c0.079-0.545,0.43-1.13,0.624-1.326
		c0.585,0.507,1.948,1.326,3.507,1.326c2.61,0,4.755-1.715,4.755-4.17C166.601,38.867,165.859,37.425,163.989,36.528z
		 M175.991,36.528l-2.144-1.052c-1.87-0.857-2.689-1.403-2.689-2.416c0-0.974,1.014-1.598,2.105-1.598
		c2.065,0,3.079,1.519,3.352,3.352h0.817v-4.599h-0.74c-0.117,0.468-0.312,0.896-0.507,1.052c-0.662-0.545-1.753-1.012-3.039-1.012
		c-2.416,0-4.169,1.597-4.169,3.467c0,1.714,1.169,3,2.728,3.741l2.221,1.052c1.598,0.74,2.494,1.521,2.494,2.533
		c0,1.169-1.014,1.871-2.26,1.871c-2.3,0-4.092-1.52-4.403-4.092h-0.779v5.378h0.739c0.079-0.545,0.43-1.13,0.624-1.326
		c0.585,0.507,1.948,1.326,3.507,1.326c2.61,0,4.754-1.715,4.754-4.17C178.602,38.867,177.861,37.425,175.991,36.528z"/>
</g>
<g display="none">
	<path display="inline" d="M90.097,28.124h-5.184l0.009,9.699c0,2.834-1.216,5.127-4.049,5.127c-2.836,0-4.062-2.293-4.062-5.127
		v-9.689h-5.169l-0.002,9.689c0,5.6,3.6,10.139,9.202,10.139c5.6,0,9.253-4.539,9.253-10.139L90.097,28.124z"/>
	<rect x="136.834" y="22.215" display="inline" width="5.159" height="25.246"/>
	<g display="inline">
		<path d="M145.8,23.145v-0.907h4.02v0.907h-1.47v3.998h-1.078v-3.998H145.8z"/>
		<path d="M151.901,22.238l1.146,3.372h0.014l1.085-3.372h1.52v4.905h-1.011v-3.476h-0.014l-1.201,3.476h-0.832l-1.202-3.442h-0.013
			v3.442h-1.01v-4.905H151.901z"/>
	</g>
	<path display="inline" d="M67.425,27.913c-4.446-1.026-7.25,3.39-7.367,3.627c-0.057,0.116-0.06,0.184-0.256,0.179
		c-0.163-0.003-0.182-0.179-0.182-0.179l-0.551-3.378h-4.621v19.281h5.179V37.007c0-0.853,2.297-4.942,6.747-3.889
		c2.251,0.532,3.205,1.487,3.205,1.487s0-3.722,0-5.874C68.747,28.296,68.176,28.086,67.425,27.913z"/>
	<path display="inline" d="M97.125,53.797v-6.939c0.001,0,0.001,0.002,0.002,0.002v-2.6c0,0,0.01-0.207,0.196-0.209
		c0.167-0.002,0.205,0.107,0.245,0.209c0.393,0.979,2.553,4.699,7.345,3.533c4.291-1.209,7.438-5.148,7.438-9.828
		c0-5.637-4.572-10.208-10.211-10.208c-5.638,0-10.208,4.572-10.208,10.208c0,0,0,13.955,0,15.832H97.125z M102.146,32.799
		c2.854,0,5.168,2.314,5.168,5.166c0,2.855-2.313,5.17-5.168,5.17c-2.854,0-5.167-2.314-5.167-5.17
		C96.979,35.113,99.292,32.799,102.146,32.799z"/>
	<path display="inline" d="M129.549,47.453h5.191v-9.488c0-5.637-4.569-10.208-10.208-10.208s-10.209,4.572-10.209,10.208
		c0,4.68,3.146,8.619,7.437,9.828c4.794,1.166,6.952-2.555,7.346-3.533c0.04-0.102,0.077-0.211,0.244-0.209
		c0.188,0.002,0.195,0.209,0.195,0.209 M129.695,37.965c0,2.855-2.313,5.17-5.167,5.17c-2.854,0-5.168-2.314-5.168-5.17
		c0-2.852,2.313-5.166,5.168-5.166C127.382,32.799,129.695,35.113,129.695,37.965z"/>
	<g display="inline">
		<path d="M38.225,47.412h-5.891V22.204h6.321c7.654,0,13.459,1.405,13.459,12.605C52.114,45.9,45.965,47.412,38.225,47.412z
			 M39.631,26.573h-2.082v16.466l2.139,0.055c4.386,0,7.211-0.4,7.211-8.285C46.899,27.246,44.404,26.573,39.631,26.573z"/>
	</g>
</g>
<g>
	<g>
		<g>
			<path fill-rule="evenodd" clip-rule="evenodd" fill="#171113" d="M97.24,17.332c3.202-3.843,2.536-7.832,2.536-7.832
				s-4.482,0.021-7.706,4.264c-2.867,3.773-2.137,7.001-2.137,7.001S93.82,21.436,97.24,17.332z M103.39,35.467
				c0-6.574,5.307-9.283,5.307-9.283s-2.713-4.9-9.61-4.9c-4.006,0-7.084,2.276-8.743,2.276c-1.932,0-4.816-2.141-8.532-2.141
				C76.095,21.419,70,26.531,70,36.275C70,46.178,77.2,58.5,82.9,58.5c1.989,0,5.044-2.002,8.122-2.002
				c3.021,0,5.249,1.93,8.116,1.93c6.241,0,10.862-12.988,10.862-12.988S103.39,42.883,103.39,35.467z"/>
		</g>
	</g>
</g>
<g display="none">
	<path display="inline" fill="#171113" d="M73.688,25.781l-4.961,18.381h-3.396l-3.446-12.856c-0.144-0.547-0.232-1.145-0.265-1.794
		h-0.05c-0.042,0.607-0.144,1.196-0.303,1.769l-3.459,12.882h-3.471l-5.063-18.381h3.295l3.282,13.459
		c0.134,0.564,0.219,1.153,0.252,1.769h0.063c0.034-0.437,0.151-1.025,0.354-1.769l3.711-13.459h3.093l3.434,13.561
		c0.118,0.463,0.206,1.009,0.265,1.641h0.051c0.025-0.427,0.122-0.99,0.291-1.691l3.219-13.51H73.688z"/>
	<rect x="74.646" y="31.037" display="inline" fill="#171113" width="2.974" height="13.125"/>
	<path display="inline" fill="#171113" d="M91.57,44.162h-2.484v-7.396c0.052-3.194-1.271-3.889-2.959-3.889
		c-0.882,0-1.593,0.55-2.167,1.229c-0.573,0.679-0.86,1.536-0.86,2.569v7.486h-2.907V31.037h2.907v2.179h0.05
		c0.956-1.658,2.337-2.487,4.142-2.487c1.389,0,2.45,0.464,3.182,1.391c0.732,0.927,1.098,2.267,1.098,4.018V44.162z"/>
	<path display="inline" fill="#171113" d="M106.407,44.162h-2.974v-1.898h-0.052c-0.956,1.692-2.431,2.206-4.422,2.206
		c-1.614,0-2.907-0.587-3.877-1.763c-0.97-1.175-1.455-2.775-1.455-4.801c0-2.17,0.536-3.909,1.608-5.216
		c1.073-1.307,2.502-1.961,4.288-1.961c1.769,0,3.055,0.195,3.857,1.614h0.052V24.73h2.974V44.162z M103.472,38.185v-1.783
		c0-0.967-0.314-1.788-0.944-2.462c-0.63-0.674-1.433-1.011-2.408-1.011c-1.153,0-2.061,0.431-2.722,1.291
		c-0.661,0.861-0.991,2.054-0.991,3.58c0,1.384,0.317,2.477,0.951,3.28c0.634,0.803,1.488,1.204,2.562,1.204
		c1.056,0,1.912-0.389,2.568-1.164C103.144,40.342,103.472,39.364,103.472,38.185z"/>
	<path display="inline" fill="#171113" d="M114.738,44.47c-2.025,0-3.643-0.613-4.852-1.839c-1.209-1.227-1.813-2.853-1.813-4.878
		c0-2.204,0.63-3.926,1.891-5.166c1.26-1.239,2.959-1.858,5.095-1.858c2.051,0,3.649,0.603,4.794,1.807
		c1.145,1.205,1.718,2.876,1.718,5.013c0,2.093-0.618,3.77-1.853,5.03S116.823,44.47,114.738,44.47z M114.879,33.1
		c-1.162,0-2.081,0.406-2.755,1.218c-0.676,0.812-1.013,1.931-1.013,3.358c0,1.377,0.341,2.459,1.025,3.25
		c0.684,0.79,1.598,1.186,2.742,1.186c1.171,0,2.07-0.389,2.698-1.166c0.629-0.778,0.942-1.885,0.942-3.32
		c0-1.444-0.313-2.559-0.942-3.346C116.949,33.493,116.05,33.1,114.879,33.1z"/>
	<path display="inline" fill="#171113" d="M140.759,31.037l-3.843,13.125h-3.092l-2.367-8.896c-0.094-0.342-0.152-0.727-0.178-1.154
		h-0.052c-0.017,0.291-0.093,0.667-0.229,1.127l-2.57,8.922h-3.029l-3.829-13.125h3.054l2.366,9.459
		c0.077,0.282,0.128,0.658,0.153,1.128h0.089c0.025-0.358,0.094-0.743,0.204-1.153l2.634-9.434h2.773l2.342,9.499
		c0.076,0.299,0.131,0.674,0.165,1.127h0.089c0.018-0.316,0.08-0.691,0.191-1.127l2.315-9.499H140.759z"/>
	<path display="inline" fill="#171113" d="M141.095,43.752v-2.756c1.022,0.846,2.152,1.269,3.389,1.269
		c1.653,0,2.479-0.529,2.479-1.589c0-0.299-0.07-0.554-0.213-0.763c-0.141-0.21-0.332-0.396-0.572-0.558s-0.523-0.308-0.85-0.436
		c-0.327-0.129-0.691-0.273-1.093-0.436c-0.496-0.215-0.943-0.441-1.34-0.68c-0.397-0.24-0.729-0.511-0.992-0.814
		c-0.264-0.303-0.463-0.647-0.596-1.031c-0.135-0.385-0.201-0.834-0.201-1.346c0-0.632,0.137-1.19,0.412-1.673
		c0.276-0.482,0.646-0.889,1.111-1.217c0.464-0.329,0.992-0.577,1.582-0.744c0.591-0.167,1.2-0.25,1.83-0.25
		c1.118,0,2.117,0.184,3,0.551v2.602c-0.851-0.632-1.827-0.949-2.929-0.949c-0.347,0-0.66,0.039-0.939,0.115
		c-0.279,0.077-0.518,0.184-0.714,0.321c-0.197,0.137-0.351,0.301-0.461,0.493c-0.11,0.192-0.165,0.404-0.165,0.635
		c0,0.282,0.055,0.521,0.165,0.717c0.11,0.197,0.274,0.37,0.49,0.52s0.477,0.287,0.779,0.41c0.303,0.124,0.651,0.258,1.045,0.404
		c0.521,0.23,0.986,0.465,1.399,0.705c0.413,0.238,0.766,0.51,1.057,0.813c0.292,0.305,0.516,0.654,0.674,1.052
		c0.157,0.397,0.236,0.87,0.236,1.417c0,0.666-0.142,1.247-0.426,1.742c-0.283,0.496-0.661,0.906-1.133,1.23
		c-0.474,0.325-1.019,0.566-1.636,0.725c-0.618,0.158-1.271,0.237-1.955,0.237C143.208,44.47,142.063,44.23,141.095,43.752z"/>
	<g display="inline">
		<path fill="#171113" d="M166.861,34.106c1.372-0.867,2.271-2.292,2.271-3.906c0-2.644-2.403-4.787-5.366-4.787
			c-2.964,0-5.366,2.143-5.366,4.787c0,1.678,0.97,3.152,2.435,4.007c-1.769,0.961-2.955,2.711-2.955,4.718
			c0,3.038,2.713,5.501,6.061,5.501c3.347,0,6.061-2.463,6.061-5.501C170,36.849,168.731,35.043,166.861,34.106z M163.775,27.556
			c1.582,0,2.866,1.283,2.866,2.866s-1.284,2.866-2.866,2.866c-1.584,0-2.866-1.283-2.866-2.866S162.191,27.556,163.775,27.556z
			 M163.756,42.225c-1.924,0-3.483-1.56-3.483-3.483c0-1.925,1.56-3.483,3.483-3.483s3.484,1.559,3.484,3.483
			C167.24,40.665,165.68,42.225,163.756,42.225z"/>
	</g>
	<ellipse display="inline" fill="#171113" cx="76.219" cy="26.726" rx="1.789" ry="1.647"/>
	<g display="inline">
		<path fill="#171113" d="M151.476,33.833c-0.436,0-0.807-0.151-1.113-0.455c-0.308-0.303-0.461-0.668-0.461-1.097
			c0-0.428,0.153-0.794,0.461-1.097c0.307-0.303,0.678-0.455,1.113-0.455c0.435,0,0.805,0.151,1.111,0.455
			c0.308,0.303,0.461,0.669,0.461,1.097c0,0.429-0.153,0.794-0.461,1.097C152.28,33.681,151.91,33.833,151.476,33.833z
			 M151.476,30.935c-0.373,0-0.691,0.131-0.955,0.394c-0.263,0.263-0.395,0.58-0.395,0.952s0.132,0.689,0.395,0.952
			c0.264,0.263,0.582,0.394,0.955,0.394s0.691-0.131,0.954-0.394s0.394-0.58,0.394-0.952s-0.131-0.689-0.394-0.952
			S151.849,30.935,151.476,30.935z M152.283,33.242h-0.438l-0.191-0.452c-0.097-0.226-0.201-0.339-0.313-0.339h-0.162v0.791h-0.35
			v-1.955h0.586c0.244,0,0.433,0.048,0.564,0.143c0.133,0.096,0.199,0.226,0.199,0.389c0,0.135-0.04,0.249-0.121,0.343
			c-0.082,0.094-0.201,0.158-0.359,0.189v0.008c0.109,0.023,0.219,0.144,0.326,0.362L152.283,33.242z M151.179,31.582v0.589h0.262
			c0.239,0,0.359-0.099,0.359-0.295c0-0.107-0.032-0.182-0.097-0.227s-0.167-0.067-0.307-0.067H151.179z"/>
	</g>
	<g display="inline">
		<path fill="#171113" d="M42.896,48.762h-0.52v1.609h-0.211v-1.609h-0.518V48.57h1.25V48.762z"/>
		<path fill="#171113" d="M44.885,50.371h-0.209v-1.208c0-0.095,0.006-0.212,0.018-0.351h-0.005
			c-0.021,0.082-0.038,0.14-0.054,0.175l-0.615,1.384h-0.103l-0.614-1.374c-0.018-0.04-0.036-0.101-0.054-0.185h-0.005
			c0.007,0.072,0.01,0.189,0.01,0.354v1.205H43.05V48.57h0.278l0.552,1.256c0.042,0.096,0.07,0.168,0.083,0.216h0.007
			c0.036-0.099,0.065-0.173,0.087-0.221l0.563-1.251h0.264V50.371z"/>
	</g>
	<g display="inline">
		<polygon fill="#171113" points="40.522,34.311 40.522,19.52 23.534,21.998 23.534,34.311 		"/>
		<polygon fill="#171113" points="22.337,22.173 10,23.972 10,34.311 22.337,34.311 		"/>
		<polygon fill="#171113" points="10,35.508 10,45.977 22.337,47.797 22.337,35.508 		"/>
		<polygon fill="#171113" points="23.534,47.974 40.522,50.48 40.522,35.508 23.534,35.508 		"/>
	</g>
</g>
</svg>
