<?xml version="1.0" encoding="utf-8"?>
<!-- Generator: Adobe Illustrator 15.1.0, SVG Export Plug-In . SVG Version: 6.00 Build 0)  -->
<!DOCTYPE svg PUBLIC "-//W3C//DTD SVG 1.1//EN" "http://www.w3.org/Graphics/SVG/1.1/DTD/svg11.dtd">
<svg version="1.1" id="Layer_1" xmlns="http://www.w3.org/2000/svg" xmlns:xlink="http://www.w3.org/1999/xlink" x="0px" y="0px"
	 width="180px" height="70px" viewBox="0 0 180 70" enable-background="new 0 0 180 70" xml:space="preserve">
<g display="none">
	<path display="inline" fill="#666666" d="M32.397,25.649v26.625l-2.618,1.601l-2.621-1.608V25.669l-6.784,4.178v22.769l9.405,5.754
		l9.484-5.795V29.833L32.397,25.649z M29.779,11.63L10,23.613v22.771l5.137,3.027V26.637l14.646-8.906l14.66,8.893l0.061,0.035
		l-0.006,22.718l5.086-2.993V23.613L29.779,11.63z"/>
	<path display="inline" fill="#B3B3B3" d="M49.583,23.612L29.779,11.63L10,23.612l5.136,3.025l14.647-8.906l14.721,8.928
		L49.583,23.612z M32.397,25.648v8.396l6.866-4.212L32.397,25.648z M20.374,29.848l6.783,4.143v-8.322L20.374,29.848z"/>
	<polygon display="inline" fill="#171113" points="79.789,45.523 78.425,28.113 71.511,45.618 69.259,45.618 62.346,28.113 
		61.014,45.523 58.224,45.523 59.967,23.642 63.646,23.642 70.465,41.592 77.283,23.642 80.931,23.642 82.643,45.523 	"/>
	<path display="inline" fill="#171113" d="M94.154,37.85c-5.583,0.539-6.755,2.062-6.755,3.615c0,1.236,0.824,2.029,2.252,2.029
		c1.65,0,3.233-0.824,4.501-2.125v-3.52H94.154z M94.691,45.523l-0.315-2.029c-1.205,1.234-2.854,2.347-5.328,2.347
		c-2.728,0-4.439-1.649-4.439-4.219c0-3.772,3.232-5.263,9.545-5.931v-0.633c0-1.904-1.141-2.569-2.887-2.569
		c-1.839,0-3.583,0.571-5.232,1.3l-0.381-2.441c1.808-0.73,3.521-1.269,5.868-1.269c3.679,0,5.455,1.489,5.455,4.852v10.592H94.691z
		"/>
	<path display="inline" fill="#171113" d="M105.443,32.14c-1.903,0-3.077,1.461-3.077,3.298c0,1.746,1.206,3.107,3.077,3.107
		c1.936,0,3.14-1.426,3.14-3.235C108.583,33.504,107.313,32.14,105.443,32.14 M101.32,47.174c0,1.204,1.556,2.092,4.502,2.092
		c2.949,0,4.6-1.015,4.6-2.283c0-0.92-0.695-1.553-2.854-1.934l-1.811-0.318c-0.822-0.156-1.266-0.252-1.867-0.379
		C102.113,45.239,101.32,46.126,101.32,47.174 M113.182,30.175l0.411,2.536l-2.885,0.285c0.411,0.699,0.604,1.492,0.604,2.348
		c0,3.236-2.729,5.199-5.806,5.199c-0.381,0-0.763-0.031-1.141-0.095c-0.446,0.286-0.761,0.638-0.761,0.921
		c0,0.538,0.537,0.667,3.199,1.145l1.079,0.188c3.205,0.57,5.201,1.584,5.201,3.932c0,3.172-3.457,4.662-7.39,4.662
		c-3.932,0-7.071-1.236-7.071-3.898c0-1.556,1.079-2.761,3.203-3.901c-0.666-0.476-0.95-1.017-0.95-1.587
		c0-0.729,0.57-1.459,1.583-2.061c-1.678-0.824-2.821-2.44-2.821-4.504c0-3.267,2.728-5.264,5.805-5.264
		c1.521,0,2.854,0.443,3.899,1.268L113.182,30.175z"/>
	<path display="inline" fill="#171113" d="M120.157,32.3c-1.743,0-3.234,1.237-3.679,3.837h7.293
		C123.425,33.694,122.348,32.3,120.157,32.3 M126.628,38.261h-10.274c0.094,3.521,1.772,5.171,4.406,5.171
		c2.189,0,3.777-0.855,5.424-2.156l0.41,2.537c-1.613,1.268-3.55,2.028-6.056,2.028c-3.931,0-7.009-2.38-7.009-7.929
		c0-4.852,2.854-7.832,6.66-7.832c4.406,0,6.438,3.392,6.438,7.578L126.628,38.261L126.628,38.261z"/>
	<path display="inline" fill="#171113" d="M138.52,45.523V35.217c0-1.554-0.666-2.601-2.313-2.601c-1.49,0-3.015,0.984-4.377,2.442
		v10.465h-2.822V30.396h2.252l0.349,2.188c1.427-1.299,3.203-2.505,5.358-2.505c2.854,0,4.38,1.711,4.38,4.439v11.005H138.52z"/>
	<path display="inline" fill="#171113" d="M149.684,45.777c-2.666,0-4.408-0.95-4.408-3.997v-9.005h-2.285v-2.379h2.285v-5.042
		l2.762-0.411v5.453h3.262l0.383,2.379h-3.645v8.499c0,1.238,0.504,1.998,2.091,1.998c0.507,0,0.951-0.029,1.299-0.095l0.384,2.407
		C151.332,45.682,150.667,45.777,149.684,45.777"/>
	<path display="inline" fill="#171113" d="M159.038,32.458c-2.729,0-4.093,2.345-4.093,5.519c0,3.109,1.428,5.519,4.093,5.519
		c2.791,0,4.185-2.347,4.185-5.519C163.223,34.868,161.764,32.458,159.038,32.458 M159.038,45.841c-4.028,0-6.946-2.886-6.946-7.864
		c0-4.98,2.918-7.896,6.946-7.896c4.06,0,7.039,2.915,7.039,7.896C166.077,42.955,163.098,45.841,159.038,45.841"/>
	<path display="inline" fill="#171113" d="M168.066,29.875h-0.285v0.644h0.271c0.245,0,0.398-0.103,0.398-0.322
		C168.451,29.985,168.313,29.875,168.066,29.875 M168.645,31.746l-0.651-0.931h-0.211v0.898h-0.373v-2.177h0.659
		c0.459,0,0.765,0.229,0.765,0.635c0,0.313-0.172,0.518-0.442,0.603l0.629,0.889L168.645,31.746z M168.078,28.951
		c-0.916,0-1.645,0.627-1.645,1.746c0,1.11,0.729,1.736,1.645,1.736c0.925,0,1.65-0.626,1.65-1.736
		C169.729,29.578,168.991,28.951,168.078,28.951 M168.078,32.662c-1.137,0-1.924-0.789-1.924-1.966c0-1.169,0.805-1.973,1.924-1.973
		c1.133,0,1.922,0.797,1.922,1.973C170,31.865,169.195,32.662,168.078,32.662"/>
</g>
<g display="none">
	<g display="inline">
		<g>
			<path fill="#666666" d="M4.256,35c0,6.825,3.966,12.725,9.719,15.521L5.749,27.98C4.792,30.125,4.256,32.499,4.256,35z"/>
			<path fill="#666666" d="M33.145,34.128c0-2.131-0.766-3.606-1.423-4.755c-0.874-1.42-1.693-2.623-1.693-4.044
				c0-1.586,1.202-3.062,2.896-3.062c0.077,0,0.149,0.01,0.224,0.014c-3.069-2.813-7.156-4.526-11.646-4.526
				c-6.025,0-11.326,3.091-14.41,7.771c0.406,0.013,0.786,0.021,1.11,0.021c1.805,0,4.597-0.219,4.597-0.219
				c0.929-0.055,1.039,1.31,0.11,1.421c0,0-0.935,0.109-1.975,0.164l6.281,18.681l3.774-11.319l-2.687-7.361
				c-0.928-0.055-1.809-0.164-1.809-0.164c-0.93-0.056-0.82-1.476,0.109-1.421c0,0,2.847,0.219,4.543,0.219
				c1.802,0,4.596-0.219,4.596-0.219c0.931-0.055,1.04,1.31,0.11,1.421c0,0-0.936,0.109-1.975,0.164l6.233,18.538l1.719-5.747
				C32.577,37.318,33.145,35.605,33.145,34.128z"/>
			<path fill="#666666" d="M21.805,36.509L16.63,51.544c1.546,0.454,3.179,0.702,4.873,0.702c2.007,0,3.935-0.348,5.727-0.979
				c-0.046-0.074-0.088-0.15-0.123-0.236L21.805,36.509z"/>
			<path fill="#666666" d="M36.634,26.725c0.075,0.551,0.116,1.14,0.116,1.774c0,1.75-0.326,3.717-1.311,6.177l-5.267,15.23
				c5.126-2.99,8.575-8.545,8.575-14.906C38.747,32.001,37.982,29.182,36.634,26.725z"/>
			<path fill="#666666" d="M21.502,14.896C10.417,14.896,1.398,23.914,1.398,35s9.019,20.104,20.104,20.104
				c11.084,0,20.104-9.018,20.104-20.104S32.586,14.896,21.502,14.896z M21.502,54.182C10.925,54.182,2.32,45.576,2.32,35
				c0-10.578,8.605-19.182,19.182-19.182c10.576,0,19.18,8.604,19.18,19.182C40.682,45.576,32.078,54.182,21.502,54.182z"/>
		</g>
	</g>
	<path display="inline" fill="#171113" d="M104.173,30.723h-6.976v0.74c2.183,0,2.533,0.467,2.533,3.234v4.986
		c0,2.769-0.352,3.274-2.533,3.274c-1.676-0.233-2.807-1.131-4.364-2.845l-1.792-1.948c2.416-0.431,3.702-1.948,3.702-3.664
		c0-2.143-1.831-3.779-5.261-3.779h-6.858v0.74c2.181,0,2.533,0.467,2.533,3.234v4.988c0,2.768-0.352,3.273-2.533,3.273v0.74h7.754
		v-0.74c-2.182,0-2.533-0.507-2.533-3.273v-1.401h0.663l4.325,5.416h11.34c5.573,0,7.989-2.962,7.989-6.509
		C112.162,33.646,109.746,30.723,104.173,30.723z M87.845,37.074v-5.183h1.598c1.754,0,2.534,1.207,2.534,2.61
		c0,1.364-0.779,2.572-2.534,2.572L87.845,37.074L87.845,37.074z M104.29,42.491h-0.272c-1.402,0-1.599-0.351-1.599-2.144v-8.457
		c0,0,1.716,0,1.871,0c4.053,0,4.793,2.961,4.793,5.261C109.083,39.529,108.343,42.491,104.29,42.491z M68.869,26.825h-7.326v0.78
		c2.494,0,2.845,0.662,2.065,2.961l-2.689,7.95l-3.857-11.69H56.32l-3.936,11.69l-2.611-7.95c-0.819-2.416-0.195-2.961,2.105-2.961
		v-0.78h-8.651v0.78c2.26,0,2.884,0.584,3.819,3.43l4.326,13.326h0.507l4.052-12.197l3.976,12.197h0.505l4.443-13.326
		c0.975-2.846,1.559-3.43,4.014-3.43V26.825z M74.167,30.216c-4.286,0-7.793,3.157-7.793,6.976c0,3.857,3.507,7.016,7.793,7.016
		c4.288,0,7.795-3.157,7.795-7.016C81.962,33.373,78.455,30.216,74.167,30.216z M74.167,42.959c-3.584,0-4.831-3.195-4.831-5.77
		c0-2.532,1.247-5.766,4.831-5.766c3.625,0,4.873,3.232,4.873,5.766C79.04,39.764,77.792,42.959,74.167,42.959z M120.93,26.825
		h-8.066v0.78c2.611,0,3.078,0.623,3.078,4.52v6.234c0,3.897-0.467,4.561-3.078,4.561v0.779h8.925V42.92
		c-2.61,0-3.079-0.662-3.079-4.561V36.45h2.223c4.014,0,6.233-2.104,6.233-4.793C127.164,28.891,124.943,26.825,120.93,26.825z
		 M120.93,35.009h-2.222v-6.78h2.222c2.184,0,3.195,1.559,3.195,3.429C124.125,33.488,123.111,35.009,120.93,35.009z M153.74,40.738
		c-0.35,1.285-0.779,1.753-3.547,1.753h-0.545c-2.025,0-2.377-0.468-2.377-3.235v-1.792c3.039,0,3.273,0.272,3.273,2.3h0.739v-5.807
		h-0.739c0,2.025-0.234,2.299-3.273,2.299v-4.364h2.144c2.767,0,3.196,0.468,3.546,1.754l0.195,0.739h0.623l-0.271-3.662h-11.457
		v0.74c2.182,0,2.532,0.467,2.532,3.234v4.986c0,2.532-0.299,3.17-2.019,3.26c-1.637-0.248-2.76-1.142-4.293-2.829l-1.793-1.948
		c2.414-0.43,3.701-1.948,3.701-3.664c0-2.143-1.832-3.779-5.261-3.779h-6.858v0.74c2.183,0,2.533,0.467,2.533,3.234v4.986
		c0,2.769-0.352,3.274-2.533,3.274v0.74h7.756v-0.74c-2.184,0-2.533-0.507-2.533-3.274v-1.4h0.662l4.326,5.416h16.016l0.232-3.663
		h-0.584L153.74,40.738z M133.283,37.074v-5.183h1.597c1.754,0,2.534,1.207,2.534,2.61c0,1.364-0.78,2.572-2.534,2.572
		L133.283,37.074L133.283,37.074z M163.988,36.527l-2.143-1.051c-1.871-0.857-2.688-1.403-2.688-2.416
		c0-0.974,1.012-1.598,2.104-1.598c2.064,0,3.078,1.519,3.352,3.352h0.816v-4.599h-0.74c-0.117,0.468-0.312,0.896-0.506,1.052
		c-0.662-0.545-1.754-1.012-3.039-1.012c-2.416,0-4.17,1.597-4.17,3.467c0,1.714,1.17,3,2.729,3.741l2.221,1.053
		c1.598,0.739,2.494,1.521,2.494,2.532c0,1.169-1.014,1.871-2.26,1.871c-2.301,0-4.092-1.521-4.403-4.092h-0.778v5.378h0.738
		c0.079-0.545,0.43-1.13,0.624-1.326c0.585,0.507,1.948,1.326,3.507,1.326c2.61,0,4.756-1.715,4.756-4.17
		C166.602,38.867,165.859,37.425,163.988,36.527z M175.991,36.527l-2.144-1.051c-1.871-0.857-2.689-1.403-2.689-2.416
		c0-0.974,1.014-1.598,2.105-1.598c2.064,0,3.078,1.519,3.352,3.352h0.816v-4.599h-0.74c-0.116,0.468-0.312,0.896-0.506,1.052
		c-0.662-0.545-1.754-1.012-3.039-1.012c-2.416,0-4.17,1.597-4.17,3.467c0,1.714,1.17,3,2.729,3.741l2.221,1.053
		c1.598,0.739,2.494,1.521,2.494,2.532c0,1.169-1.014,1.871-2.26,1.871c-2.301,0-4.092-1.521-4.403-4.092h-0.778v5.378h0.738
		c0.079-0.545,0.43-1.13,0.624-1.326c0.585,0.507,1.948,1.326,3.507,1.326c2.61,0,4.754-1.715,4.754-4.17
		C178.602,38.867,177.861,37.425,175.991,36.527z"/>
</g>
<g display="none">
	<path display="inline" d="M90.097,28.124h-5.184l0.009,9.699c0,2.834-1.216,5.127-4.049,5.127c-2.836,0-4.062-2.293-4.062-5.127
		v-9.689h-5.169l-0.002,9.689c0,5.6,3.6,10.139,9.202,10.139c5.6,0,9.253-4.539,9.253-10.139L90.097,28.124z"/>
	<rect x="136.834" y="22.215" display="inline" width="5.159" height="25.246"/>
	<g display="inline">
		<path d="M145.8,23.145v-0.907h4.021v0.907h-1.471v3.998h-1.078v-3.998H145.8z"/>
		<path d="M151.9,22.238l1.146,3.372h0.014l1.086-3.372h1.52v4.905h-1.012v-3.476h-0.014l-1.201,3.476h-0.832l-1.201-3.442h-0.014
			v3.442h-1.01v-4.905H151.9z"/>
	</g>
	<path display="inline" d="M67.425,27.913c-4.446-1.026-7.25,3.39-7.367,3.627c-0.057,0.116-0.06,0.184-0.256,0.179
		c-0.163-0.003-0.182-0.179-0.182-0.179l-0.551-3.378h-4.621v19.281h5.179V37.007c0-0.853,2.297-4.942,6.747-3.889
		c2.251,0.532,3.205,1.487,3.205,1.487s0-3.722,0-5.874C68.747,28.296,68.176,28.086,67.425,27.913z"/>
	<path display="inline" d="M97.125,53.797v-6.939c0.001,0,0.001,0.002,0.002,0.002v-2.6c0,0,0.01-0.207,0.195-0.209
		c0.168-0.002,0.205,0.107,0.246,0.209c0.393,0.979,2.553,4.699,7.345,3.533c4.291-1.209,7.438-5.148,7.438-9.828
		c0-5.637-4.572-10.208-10.211-10.208s-10.209,4.572-10.209,10.208c0,0,0,13.955,0,15.832H97.125z M102.146,32.799
		c2.854,0,5.168,2.314,5.168,5.166c0,2.855-2.313,5.17-5.168,5.17s-5.168-2.314-5.168-5.17
		C96.979,35.113,99.292,32.799,102.146,32.799z"/>
	<path display="inline" d="M129.549,47.453h5.191v-9.488c0-5.637-4.569-10.208-10.208-10.208c-5.64,0-10.21,4.572-10.21,10.208
		c0,4.68,3.146,8.619,7.438,9.828c4.795,1.166,6.952-2.555,7.346-3.533c0.041-0.102,0.078-0.211,0.244-0.209
		c0.188,0.002,0.195,0.209,0.195,0.209 M129.695,37.965c0,2.855-2.313,5.17-5.168,5.17c-2.854,0-5.168-2.314-5.168-5.17
		c0-2.852,2.313-5.166,5.168-5.166S129.695,35.113,129.695,37.965z"/>
	<g display="inline">
		<path d="M38.225,47.412h-5.891V22.204h6.321c7.654,0,13.459,1.405,13.459,12.605C52.114,45.9,45.965,47.412,38.225,47.412z
			 M39.631,26.573h-2.082v16.466l2.139,0.055c4.386,0,7.211-0.4,7.211-8.285C46.899,27.246,44.404,26.573,39.631,26.573z"/>
	</g>
</g>
<g transform="translate(0.000000,450.000000) scale(0.100000,-0.100000)">
	<path fill="#333333" d="M1034.912,4440.502c-12.656-3.599-22.158-12.373-26.182-24.458c-3.018-9.063-2.451-28.911,1.152-36.826
		c3.877-8.774,11.504-17.119,18.408-20.137c12.949-5.757,34.092-4.746,44.16,2.012c6.045,4.175,12.666,13.667,13.096,18.848
		c0.283,4.028-0.146,4.316-10.068,7.334l-10.361,3.164l-0.859-4.028c-1.299-6.04-8.35-11.362-15.107-11.362
		c-12.51,0-17.256,6.187-17.256,22.871c0,11.509,2.441,18.848,7.334,22.3c6.758,4.604,21.572,1.582,23.594-4.893
		c1.006-3.306,3.877-3.594,13.662-1.294c10.645,2.3,10.498,2.158,7.764,7.334c-4.316,8.633-9.063,13.667-15.537,16.831
		C1059.941,4442.226,1044.98,4443.232,1034.912,4440.502z"/>
	<path fill="#333333" d="M1122.949,4441.22c-16.113-3.452-25.029-14.814-22.012-28.052c2.305-10.215,10.068-15.537,31.074-21.431
		c7.051-2.017,13.525-4.751,14.531-6.045c4.883-6.758-0.439-13.521-10.508-13.521c-5.322,0-7.334,0.718-10.781,4.17
		c-2.305,2.3-4.18,5.469-4.18,7.051c0,2.729-0.713,2.876-11.797,2.158c-6.611-0.435-12.08-1.011-12.227-1.152
		c-0.283-0.142,0.576-3.599,1.729-7.622c2.734-9.209,10.068-16.831,18.271-19.136c8.633-2.446,26.465-2.446,34.814,0
		c19.99,5.757,27.324,30.645,12.939,43.301c-6.182,5.322-8.916,6.475-25.742,10.933c-14.248,3.74-17.842,6.328-14.531,11.221
		c1.289,2.012,3.74,3.164,7.764,3.452c7.197,0.576,11.514-1.582,12.666-6.04c0.859-3.311,1.143-3.452,12.51-2.734
		c6.475,0.43,12.08,1.006,12.227,1.294c1.006,0.718-5.176,12.949-7.764,15.249
		C1154.599,4440.791,1136.035,4444.096,1122.949,4441.22z"/>
	<path fill="#333333" d="M1207.822,4441.22c-16.113-3.452-25.029-14.814-22.012-28.052c2.305-10.215,10.068-15.537,31.074-21.431
		c7.051-2.017,13.525-4.751,14.521-6.045c4.893-6.758-0.43-13.521-10.498-13.521c-5.322,0-7.334,0.718-10.791,4.17
		c-2.295,2.3-4.17,5.469-4.17,7.051c0,2.729-0.713,2.876-11.797,2.158c-6.611-0.435-12.08-1.011-12.227-1.152
		c-0.283-0.142,0.576-3.599,1.729-7.622c2.734-9.209,10.068-16.831,18.271-19.136c8.633-2.446,26.465-2.446,34.814,0
		c19.99,5.757,27.324,30.645,12.939,43.301c-6.182,5.322-8.916,6.475-25.742,10.933c-14.248,3.74-17.842,6.328-14.531,11.221
		c1.289,2.012,3.74,3.164,7.764,3.452c7.197,0.576,11.514-1.582,12.656-6.04c0.869-3.311,1.152-3.452,12.52-2.734
		c6.475,0.43,12.08,1.006,12.227,1.294c1.006,0.718-5.176,12.949-7.764,15.249
		C1239.463,4440.791,1220.908,4444.096,1207.822,4441.22z"/>
	<path fill="#333333" d="M427.71,4400.224v-41.001h13.667h13.667v13.667v13.809l13.379-0.43l13.232-0.43v-13.379v-13.237h13.379
		h13.232v41.001v40.996h-13.232h-13.379v-13.232v-13.379l-13.232-0.435l-13.379-0.43v13.809v13.667h-13.667H427.71V4400.224z"/>
	<path fill="#333333" d="M522.656,4428.276v-12.949h12.227h12.227v-28.052v-28.052h13.667h13.667v28.052v28.052h12.227h12.227
		v12.949v12.944h-38.12h-38.12V4428.276z"/>
	<path fill="#333333" d="M611.841,4400.224v-41.001h13.667h13.521l0.435,19.854l0.43,19.707l9.492-14.097l9.497-13.955l9.063,13.667
		c4.888,7.48,9.639,13.667,10.215,13.667c0.718,0,1.294-8.774,1.294-19.424v-19.419h12.944h12.949v41.001v40.996h-14.243h-14.097
		l-8.345-13.667c-4.604-7.622-9.063-13.521-9.927-13.232c-0.859,0.288-5.176,6.475-9.492,13.667l-7.91,13.232H626.66h-14.819
		V4400.224z"/>
	<path fill="#333333" d="M721.172,4400.224v-41.001h33.086h33.086v12.949v12.944H767.92h-19.419v28.052v28.052h-13.667h-13.662
		V4400.224z"/>
	<path fill="#333333" d="M387.866,4313.623c0.576-3.882,3.594-36.392,6.758-72.354c3.169-35.967,9.351-104.863,13.667-153.203
		c4.316-48.193,8.774-99.111,9.927-112.93c4.458-51.201,9.492-104.141,10.068-104.58c0.576-0.566,23.452-7.041,67.036-19.131
		c17.837-4.893,46.03-12.656,62.573-17.402c55.098-15.391,48.481-14.238,61.714-10.498c6.475,1.719,24.888,6.904,41.143,11.357
		c34.092,9.492,81.709,22.734,108.75,30.215l18.848,5.322l1.006,11.65c0.576,6.475,1.294,15.674,1.724,20.43
		c0.288,4.746,4.175,48.184,8.491,96.377c4.316,48.33,9.78,110.049,12.227,137.373c2.446,27.334,5.898,66.753,7.91,87.754
		c1.87,21.006,4.458,50.205,5.757,65.02c1.147,14.819,2.588,27.91,3.018,29.204c0.864,1.87-23.159,2.158-220.234,2.158H387.002
		L387.866,4313.623z M746.201,4228.608c0.718-1.152-3.022-47.471-4.316-53.369l-0.723-3.452l-105.728,1.006l-105.586,1.006
		l0.142-3.306c0-1.87,1.152-14.673,2.446-28.481l2.446-25.176l101.27,0.576l101.274,0.576l-1.011-8.496
		c-0.43-4.6-1.582-16.25-2.3-25.742c-5.034-57.539-12.515-136.084-13.232-136.66c-0.288-0.43-14.819-4.746-32.227-9.492
		c-17.261-4.893-42.29-11.943-55.527-15.684l-24.023-6.758l-56.533,15.684c-31.069,8.623-56.963,16.104-57.539,16.68
		c-0.43,0.576-2.3,17.266-3.887,36.973c-1.724,19.854-3.447,39.414-3.882,43.584l-0.864,7.48l27.764-0.283l27.91-0.43l1.87-22.305
		c1.147-12.227,2.158-22.441,2.446-22.725c0.718-0.723,58.545-16.113,60.703-16.113c1.729,0,61.138,15.684,61.714,16.396
		c0.288,0.293,4.6,44.883,5.752,59.561l1.006,11.797h-95.659h-95.659l-1.011,10.498c-0.571,5.605-3.452,39.561-6.616,75.093
		c-3.164,35.674-6.04,68.472-6.616,72.93l-0.864,8.345l70.342,0.43C722.319,4229.76,745.479,4229.614,746.201,4228.608z"/>
	<path fill="#333333" d="M917.236,4313.623c0.576-3.882,3.604-36.392,6.768-72.354c3.164-35.967,9.346-104.863,13.662-153.203
		c4.316-48.193,8.779-99.111,9.922-112.93c4.463-51.201,9.502-104.141,10.068-104.58c0.586-0.566,23.457-7.041,67.041-19.131
		c17.842-4.893,46.035-12.656,62.578-17.402c55.088-15.391,48.476-14.238,61.709-10.498c6.475,1.719,24.883,6.904,41.143,11.357
		c34.092,9.492,81.709,22.734,108.75,30.215l18.848,5.322l1.006,11.65c0.576,6.475,1.299,15.674,1.729,20.43
		c0.283,4.746,4.17,48.184,8.486,96.377c4.316,48.33,9.785,110.049,12.227,137.373c2.441,27.334,5.898,66.753,7.91,87.754
		c1.875,21.006,4.463,50.205,5.752,65.02c1.152,14.819,2.588,27.91,3.027,29.204c0.859,1.87-23.164,2.158-220.244,2.158h-221.24
		L917.236,4313.623z M1305.205,4229.472c0-1.011-0.713-4.463-1.436-7.627s-11.367-63.438-23.73-133.779
		c-12.236-70.342-22.588-128.027-22.881-128.32c-0.576-0.576-43.154-16.68-88.613-33.662c-56.094-20.85-54.951-20.42-58.545-19.131
		c-1.729,0.723-30.205,12.949-63.008,27.188c-58.115,25.176-59.697,26.035-58.975,29.492c1.152,5.039,12.227,66.602,12.227,68.047
		c0,0.566,11.934,1.006,26.611,1.006c20.283,0,26.611-0.439,26.611-1.729c0-1.006-1.006-7.627-2.305-14.678
		c-1.143-6.904-1.865-12.939-1.582-13.379c1.445-1.289,73.369-32.07,75.234-32.07c1.152,0,4.892,1.289,8.203,3.018
		c3.311,1.582,21.582,8.77,40.566,15.82s34.961,13.379,35.674,14.102c1.006,1.006,12.803,65.02,12.08,65.732
		c-0.137,0.293-48.477,0.869-107.168,1.445c-58.691,0.576-106.738,1.436-106.738,1.865c0,0.439,2.305,13.818,5.039,29.639
		c2.734,15.83,5.029,28.916,5.029,29.053c0,0.293,15.977,0.43,35.684,0.43c19.561,0,68.037,0.439,107.598,1.016l72.217,0.859
		l3.018,17.266c1.582,9.634,2.881,17.549,2.588,17.69c-0.146,0.146-48.33,0.723-107.021,1.294
		c-58.838,0.576-106.885,1.582-106.885,2.012c0,0.581,2.305,13.813,5.039,29.351c2.725,15.537,5.029,28.628,5.029,29.058
		s60.85,0.718,135.224,0.718C1277.158,4231.196,1305.205,4230.766,1305.205,4229.472z"/>
</g>
</svg>
