<?xml version="1.0" encoding="utf-8"?>
<!-- Generator: Adobe Illustrator 16.0.3, SVG Export Plug-In . SVG Version: 6.00 Build 0)  -->
<!DOCTYPE svg PUBLIC "-//W3C//DTD SVG 1.0//EN" "http://www.w3.org/TR/2001/REC-SVG-20010904/DTD/svg10.dtd">
<svg version="1.0" id="Layer_1" xmlns="http://www.w3.org/2000/svg" xmlns:xlink="http://www.w3.org/1999/xlink" x="0px" y="0px"
	 width="180px" height="70px" viewBox="0 0 180 70" enable-background="new 0 0 180 70" xml:space="preserve">
<g display="none">
	<path display="inline" fill="#666666" d="M25.69,22.924v29.699l-2.92,1.785l-2.923-1.795V22.947l-7.568,4.66v25.398l10.491,6.419
		l10.58-6.465V27.59L25.69,22.924z M22.77,7.286L0.707,20.653v25.401l5.73,3.376V24.026l16.337-9.934l16.353,9.919l0.067,0.039
		l-0.007,25.341l5.674-3.338V20.653L22.77,7.286z"/>
	<path display="inline" fill="#B3B3B3" d="M44.861,20.652L22.771,7.286L0.707,20.652l5.729,3.375l16.338-9.934l16.42,9.958
		L44.861,20.652z M25.69,22.923v9.365l7.659-4.699L25.69,22.923z M12.279,27.608l7.566,4.621v-9.283L12.279,27.608z"/>
	<polygon display="inline" fill="#171113" points="78.555,45.094 77.034,25.672 69.321,45.199 66.809,45.199 59.098,25.672 
		57.612,45.094 54.5,45.094 56.444,20.685 60.548,20.685 68.155,40.708 75.76,20.685 79.829,20.685 81.738,45.094 	"/>
	<path display="inline" fill="#171113" d="M94.579,36.532c-6.227,0.602-7.535,2.299-7.535,4.034c0,1.379,0.919,2.264,2.512,2.264
		c1.841,0,3.607-0.92,5.022-2.371V36.532z M95.18,45.094l-0.354-2.264c-1.344,1.378-3.183,2.617-5.942,2.617
		c-3.042,0-4.952-1.84-4.952-4.706c0-4.209,3.606-5.87,10.647-6.615v-0.708c0-2.123-1.272-2.865-3.22-2.865
		c-2.051,0-3.996,0.637-5.836,1.45l-0.425-2.723c2.017-0.815,3.927-1.416,6.545-1.416c4.103,0,6.083,1.662,6.083,5.412v11.816H95.18
		z"/>
	<path display="inline" fill="#171113" d="M107.172,30.165c-2.123,0-3.432,1.629-3.432,3.679c0,1.946,1.346,3.466,3.432,3.466
		c2.159,0,3.502-1.59,3.502-3.608C110.674,31.686,109.258,30.165,107.172,30.165 M102.574,46.934c0,1.344,1.733,2.334,5.021,2.334
		c3.29,0,5.13-1.132,5.13-2.547c0-1.027-0.777-1.732-3.183-2.157l-2.019-0.355c-0.918-0.175-1.412-0.281-2.085-0.423
		C103.457,44.775,102.574,45.766,102.574,46.934 M115.803,27.973l0.46,2.829l-3.219,0.317c0.46,0.779,0.674,1.664,0.674,2.618
		c0,3.61-3.044,5.801-6.475,5.801c-0.425,0-0.851-0.035-1.273-0.105c-0.497,0.318-0.848,0.71-0.848,1.027
		c0,0.6,0.6,0.743,3.569,1.274l1.204,0.211c3.575,0.637,5.802,1.767,5.802,4.386c0,3.538-3.856,5.2-8.241,5.2
		c-4.387,0-7.89-1.379-7.89-4.35c0-1.734,1.203-3.078,3.573-4.352c-0.743-0.53-1.061-1.133-1.061-1.771
		c0-0.814,0.637-1.627,1.767-2.299c-1.872-0.92-3.148-2.722-3.148-5.023c0-3.643,3.043-5.871,6.475-5.871
		c1.698,0,3.185,0.494,4.351,1.415L115.803,27.973z"/>
	<path display="inline" fill="#171113" d="M123.585,30.342c-1.944,0-3.608,1.38-4.104,4.28h8.136
		C127.229,31.897,126.027,30.342,123.585,30.342 M130.803,36.992h-11.461c0.104,3.928,1.978,5.768,4.916,5.768
		c2.441,0,4.212-0.955,6.049-2.406l0.458,2.83c-1.801,1.414-3.96,2.264-6.754,2.264c-4.386,0-7.819-2.654-7.819-8.845
		c0-5.412,3.185-8.736,7.43-8.736c4.916,0,7.182,3.784,7.182,8.453V36.992z"/>
	<path display="inline" fill="#171113" d="M144.067,45.094V33.596c0-1.732-0.742-2.9-2.582-2.9c-1.662,0-3.361,1.098-4.882,2.724
		v11.675h-3.147V28.219h2.512l0.389,2.441c1.59-1.449,3.573-2.794,5.978-2.794c3.183,0,4.884,1.909,4.884,4.952v12.276H144.067z"/>
	<path display="inline" fill="#171113" d="M156.52,45.377c-2.974,0-4.917-1.061-4.917-4.459V30.873h-2.549v-2.654h2.549v-5.625
		l3.08-0.458v6.083h3.639l0.427,2.654h-4.065v9.48c0,1.381,0.563,2.229,2.332,2.229c0.566,0,1.062-0.034,1.45-0.105l0.427,2.685
		C158.359,45.27,157.618,45.377,156.52,45.377"/>
	<path display="inline" fill="#171113" d="M166.956,30.519c-3.044,0-4.565,2.617-4.565,6.155c0,3.469,1.592,6.156,4.565,6.156
		c3.112,0,4.668-2.619,4.668-6.156C171.624,33.208,169.996,30.519,166.956,30.519 M166.956,45.447c-4.494,0-7.749-3.219-7.749-8.773
		c0-5.555,3.255-8.807,7.749-8.807c4.527,0,7.852,3.251,7.852,8.807C174.808,42.229,171.483,45.447,166.956,45.447"/>
	<path display="inline" fill="#171113" d="M177.028,27.638h-0.32v0.718h0.303c0.273,0,0.445-0.114,0.445-0.359
		C177.456,27.761,177.302,27.638,177.028,27.638 M177.671,29.725l-0.727-1.039h-0.236v1.002h-0.416V27.26h0.736
		c0.513,0,0.852,0.255,0.852,0.708c0,0.35-0.19,0.578-0.493,0.672l0.7,0.992L177.671,29.725z M177.039,26.607
		c-1.021,0-1.833,0.699-1.833,1.947c0,1.238,0.813,1.937,1.833,1.937c1.031,0,1.843-0.699,1.843-1.937
		C178.882,27.306,178.059,26.607,177.039,26.607 M177.039,30.747c-1.266,0-2.146-0.879-2.146-2.193c0-1.305,0.898-2.201,2.146-2.201
		c1.265,0,2.144,0.888,2.144,2.201C179.183,29.858,178.286,30.747,177.039,30.747"/>
</g>
<g>
	<g>
		<g>
			<path fill="#666666" d="M4.256,35c0,6.825,3.966,12.725,9.719,15.521L5.749,27.98C4.792,30.125,4.256,32.499,4.256,35z"/>
			<path fill="#666666" d="M33.145,34.128c0-2.131-0.766-3.606-1.423-4.755c-0.874-1.42-1.693-2.623-1.693-4.044
				c0-1.586,1.202-3.062,2.896-3.062c0.077,0,0.149,0.01,0.224,0.014c-3.069-2.812-7.156-4.526-11.646-4.526
				c-6.025,0-11.326,3.091-14.41,7.771c0.406,0.013,0.786,0.021,1.11,0.021c1.805,0,4.597-0.219,4.597-0.219
				c0.929-0.055,1.039,1.31,0.11,1.421c0,0-0.935,0.109-1.975,0.164l6.281,18.681l3.774-11.319l-2.687-7.361
				c-0.928-0.055-1.809-0.164-1.809-0.164c-0.93-0.056-0.82-1.476,0.109-1.421c0,0,2.847,0.219,4.543,0.219
				c1.802,0,4.596-0.219,4.596-0.219c0.931-0.055,1.04,1.31,0.11,1.421c0,0-0.936,0.109-1.975,0.164l6.233,18.538l1.719-5.747
				C32.577,37.318,33.145,35.605,33.145,34.128z"/>
			<path fill="#666666" d="M21.805,36.509l-5.175,15.035c1.546,0.454,3.179,0.702,4.873,0.702c2.007,0,3.935-0.347,5.727-0.978
				c-0.046-0.074-0.088-0.151-0.123-0.237L21.805,36.509z"/>
			<path fill="#666666" d="M36.634,26.725c0.075,0.551,0.116,1.14,0.116,1.774c0,1.75-0.326,3.717-1.311,6.177l-5.267,15.23
				c5.126-2.99,8.575-8.544,8.575-14.906C38.747,32.001,37.982,29.182,36.634,26.725z"/>
			<path fill="#666666" d="M21.502,14.896C10.417,14.896,1.398,23.914,1.398,35s9.019,20.104,20.104,20.104
				c11.084,0,20.104-9.018,20.104-20.104S32.586,14.896,21.502,14.896z M21.502,54.182C10.925,54.182,2.32,45.576,2.32,35
				c0-10.578,8.605-19.182,19.182-19.182c10.576,0,19.18,8.604,19.18,19.182C40.682,45.576,32.078,54.182,21.502,54.182z"/>
		</g>
	</g>
	<path fill="#171113" d="M104.173,30.723h-6.975v0.74c2.182,0,2.533,0.467,2.533,3.234v4.987c0,2.768-0.352,3.274-2.533,3.274
		c-1.676-0.234-2.807-1.131-4.365-2.845l-1.792-1.948c2.416-0.43,3.702-1.948,3.702-3.664c0-2.143-1.831-3.779-5.261-3.779h-6.858
		v0.74c2.181,0,2.533,0.467,2.533,3.234v4.987c0,2.768-0.352,3.274-2.533,3.274v0.74h7.754v-0.74c-2.182,0-2.533-0.507-2.533-3.274
		v-1.401h0.663l4.325,5.416h11.34c5.573,0,7.989-2.961,7.989-6.509C112.162,33.646,109.746,30.723,104.173,30.723z M87.845,37.074
		v-5.183h1.598c1.754,0,2.533,1.207,2.533,2.61c0,1.364-0.779,2.572-2.533,2.572H87.845z M104.29,42.491h-0.272
		c-1.403,0-1.599-0.351-1.599-2.144v-8.456c0,0,1.716,0,1.871,0c4.053,0,4.793,2.961,4.793,5.261
		C109.083,39.529,108.343,42.491,104.29,42.491z M68.869,26.825h-7.326v0.78c2.494,0,2.845,0.662,2.065,2.961l-2.689,7.949
		l-3.857-11.69H56.32l-3.936,11.69l-2.611-7.949c-0.819-2.416-0.195-2.961,2.105-2.961v-0.78h-8.651v0.78
		c2.26,0,2.884,0.584,3.819,3.43l4.326,13.326h0.507l4.052-12.197l3.976,12.197h0.505l4.443-13.326
		c0.975-2.846,1.559-3.43,4.014-3.43V26.825z M74.167,30.216c-4.286,0-7.793,3.157-7.793,6.975c0,3.858,3.507,7.016,7.793,7.016
		c4.288,0,7.795-3.157,7.795-7.016C81.962,33.373,78.455,30.216,74.167,30.216z M74.167,42.959c-3.584,0-4.831-3.196-4.831-5.769
		c0-2.533,1.247-5.766,4.831-5.766c3.625,0,4.873,3.232,4.873,5.766C79.04,39.763,77.792,42.959,74.167,42.959z M120.93,26.825
		h-8.067v0.78c2.612,0,3.079,0.623,3.079,4.52v6.234c0,3.898-0.467,4.561-3.079,4.561v0.779h8.925V42.92
		c-2.611,0-3.079-0.662-3.079-4.561V36.45h2.222c4.014,0,6.234-2.104,6.234-4.793C127.164,28.891,124.943,26.825,120.93,26.825z
		 M120.93,35.009h-2.222v-6.78h2.222c2.183,0,3.195,1.559,3.195,3.429C124.125,33.488,123.112,35.009,120.93,35.009z M153.74,40.738
		c-0.35,1.285-0.779,1.753-3.546,1.753h-0.545c-2.026,0-2.378-0.468-2.378-3.235v-1.792c3.04,0,3.274,0.272,3.274,2.299h0.739
		v-5.806h-0.739c0,2.026-0.234,2.299-3.274,2.299v-4.364h2.144c2.767,0,3.196,0.468,3.546,1.754l0.195,0.739h0.624l-0.272-3.662
		h-11.457v0.74c2.182,0,2.532,0.467,2.532,3.234v4.987c0,2.532-0.299,3.169-2.019,3.26c-1.636-0.249-2.759-1.142-4.293-2.83
		l-1.793-1.948c2.415-0.43,3.701-1.948,3.701-3.664c0-2.143-1.831-3.779-5.26-3.779h-6.859v0.74c2.183,0,2.533,0.467,2.533,3.234
		v4.987c0,2.768-0.351,3.274-2.533,3.274v0.74h7.756v-0.74c-2.183,0-2.533-0.507-2.533-3.274v-1.401h0.662l4.326,5.416h16.016
		l0.232-3.663h-0.584L153.74,40.738z M133.283,37.074v-5.183h1.597c1.754,0,2.534,1.207,2.534,2.61c0,1.364-0.78,2.572-2.534,2.572
		H133.283z M163.989,36.528l-2.144-1.052c-1.87-0.857-2.688-1.403-2.688-2.416c0-0.974,1.012-1.598,2.104-1.598
		c2.065,0,3.079,1.519,3.352,3.352h0.817v-4.599h-0.74c-0.117,0.468-0.312,0.896-0.507,1.052c-0.662-0.545-1.753-1.012-3.039-1.012
		c-2.416,0-4.169,1.597-4.169,3.467c0,1.714,1.169,3,2.728,3.741l2.221,1.052c1.598,0.74,2.494,1.521,2.494,2.533
		c0,1.169-1.014,1.871-2.26,1.871c-2.3,0-4.092-1.52-4.403-4.092h-0.779v5.378h0.739c0.079-0.545,0.43-1.13,0.624-1.326
		c0.585,0.507,1.948,1.326,3.507,1.326c2.61,0,4.755-1.715,4.755-4.17C166.601,38.867,165.859,37.425,163.989,36.528z
		 M175.991,36.528l-2.144-1.052c-1.87-0.857-2.689-1.403-2.689-2.416c0-0.974,1.014-1.598,2.105-1.598
		c2.065,0,3.079,1.519,3.352,3.352h0.817v-4.599h-0.74c-0.117,0.468-0.312,0.896-0.507,1.052c-0.662-0.545-1.753-1.012-3.039-1.012
		c-2.416,0-4.169,1.597-4.169,3.467c0,1.714,1.169,3,2.728,3.741l2.221,1.052c1.598,0.74,2.494,1.521,2.494,2.533
		c0,1.169-1.014,1.871-2.26,1.871c-2.3,0-4.092-1.52-4.403-4.092h-0.779v5.378h0.739c0.079-0.545,0.43-1.13,0.624-1.326
		c0.585,0.507,1.948,1.326,3.507,1.326c2.61,0,4.754-1.715,4.754-4.17C178.602,38.867,177.861,37.425,175.991,36.528z"/>
</g>
</svg>
