<?xml version="1.0" encoding="utf-8"?>
<!-- Generator: Adobe Illustrator 22.1.0, SVG Export Plug-In . SVG Version: 6.00 Build 0)  -->
<svg version="1.1" id="Layer_1" xmlns="http://www.w3.org/2000/svg" xmlns:xlink="http://www.w3.org/1999/xlink" x="0px" y="0px"
	 viewBox="0 0 110.4 121.1" style="enable-background:new 0 0 110.4 121.1;" xml:space="preserve">
<style type="text/css">
	.st0{fill:#FFFFFF;}
	.st1{fill:#40404F;}
	.st2{fill:#668EFF;}
	.st3{fill:#D8D8D8;}
	.st4{fill:#00DFD3;}
</style>
<g>
	<g>
		<g>
			<g>
				<path class="st0" d="M41.6,62.9c0,0-12.7,3.9-19.5-5.9s1.5-21.5,12.2-21.5c0,0,4.4-11.2,15.1-5.9c0,0,7.3-7.3,13.7,1
					c0,0,13.7-1.5,17.1,12.7c0,0,7.3,2,5.4,13.7c-2,11.7-11.7,10.2-11.7,10.2s-1.5,6.3-8.8,7.3s-8.8-5.9-8.8-5.9
					S45.5,70.7,41.6,62.9z"/>
				<path class="st1" d="M63.7,75.7c-4.8,0-7.3-3.3-8.2-5.9c-2.8,0.3-10.7,0.6-14.5-5.7c-3.1,0.7-13.8,2.2-19.9-6.6
					c-3.2-4.6-3.5-9.9-1-14.7c2.6-5,7.8-8.3,13.4-8.5c0.8-1.5,2.9-5.2,6.8-6.7c2.7-1,5.7-0.9,8.8,0.6c1.2-1,4.1-3,7.5-2.7
					c2.6,0.2,4.9,1.5,6.9,3.9c5.2-0.3,14.6,2,17.5,13c1.9,0.9,7.3,4.3,5.6,14.7c-1.8,10.4-9.4,11.2-12,11.2
					c-0.8,1.9-3.1,6.4-9.4,7.2C64.7,75.7,64.2,75.7,63.7,75.7z M57.2,67.3l0.2,1.1c0.1,0.2,1.4,5.9,7.6,5c6.4-0.9,7.8-6.2,7.9-6.5
					l0.2-1l1,0.2c0.3,0.1,8.6,1.1,10.4-9.3c1.7-10.6-4.5-12.4-4.6-12.4l-0.6-0.2l-0.2-0.6c-3.1-13-15.4-11.9-15.9-11.8l-0.6,0.1
					l-0.4-0.5c-1.7-2.2-3.6-3.4-5.6-3.5c-3.5-0.2-6.3,2.6-6.4,2.6L49.6,31l-0.7-0.4c-2.8-1.4-5.5-1.7-7.7-0.8
					c-4,1.5-5.8,6.1-5.8,6.1l-0.3,0.7h-0.8c-5.1,0-9.8,2.9-12.2,7.3c-2.1,4-1.8,8.5,0.9,12.4c6.3,9,18.1,5.5,18.3,5.5l0.9-0.3
					l0.4,0.8c3.5,7,13.4,5.1,13.5,5.1L57.2,67.3z"/>
			</g>
			<g>
				<path class="st1" d="M40.3,63.1c-0.1-0.3-1.4-8,3-12.5c2.6-2.7,6.7-3.7,12.1-2.8L55,50.1c-4.6-0.7-7.9,0-10,2.2
					c-3.6,3.7-2.4,10.4-2.3,10.5L40.3,63.1z"/>
			</g>
			<g>
				<path class="st1" d="M67.9,49.3c-0.3,0-0.5,0-0.8,0c-1.8-0.2-3.1-1.2-3.6-2.7c-0.7-1.8-0.4-3.7,0.7-5.2c1.2-1.6,3.3-2.5,5.6-2.3
					l-0.2,2.4c-1.5-0.1-2.8,0.4-3.5,1.4c-0.6,0.8-0.8,1.9-0.4,2.9c0.3,0.9,1.2,1.1,1.7,1.2c1.4,0.2,3.6-0.5,5-2.5
					c2.4-3.6,6.4-2.9,8.2-2.1l-1,2.1c-0.3-0.2-3.4-1.5-5.2,1.3C72.8,48,70.3,49.3,67.9,49.3z"/>
			</g>
			<g>
				<g>
					<path class="st1" d="M49.4,61.4l-2.2-0.8c0.1-0.3,2.6-6.7,9.1-6.7v2.4C51.4,56.3,49.4,61.4,49.4,61.4z"/>
				</g>
				<g>
					<path class="st1" d="M60.6,58.2c-1.6,0-3.3-0.3-4.3-1.5c-1.1-1.3-1.1-3.1-0.1-5.5l2.2,0.9c-0.4,0.8-0.9,2.3-0.3,3
						c0.9,1,3.9,0.7,5.2,0.3l0.6,2.3C63.6,57.8,62.2,58.2,60.6,58.2z"/>
				</g>
			</g>
			<g>
				<g>
					<path class="st1" d="M55.8,41.9l-2.2-1c1.5-3.2,4.6-3.8,6.1-3.6l-0.3,2.4l0.1-1.2l-0.1,1.2C59.4,39.7,56.9,39.4,55.8,41.9z"/>
				</g>
				<g>
					<path class="st1" d="M55.6,45.7c-1.5-3.8-3.3-6-5.4-6.4c-2.8-0.6-5.4,2-5.4,2l-1.7-1.7c0.1-0.1,3.6-3.5,7.6-2.7
						c3,0.6,5.4,3.3,7.1,7.9L55.6,45.7z"/>
				</g>
				<g>
					<path class="st1" d="M47.6,39.5c-0.1,0-2.6-0.6-3.8-2.7c-0.7-1.2-0.8-2.7-0.3-4.3l2.3,0.7c-0.3,1-0.3,1.8,0.1,2.4
						c0.7,1.2,2.2,1.6,2.3,1.6L47.6,39.5z"/>
				</g>
			</g>
			<g>
				<path class="st0" d="M33.3,39.7c0,0,0.2-2.4,1-4.1"/>
				<path class="st1" d="M34.5,39.8l-2.4-0.2c0-0.1,0.2-2.6,1.1-4.5l2.1,1C34.7,37.6,34.5,39.8,34.5,39.8z"/>
			</g>
			<g>
				<path class="st0" d="M49.4,29.7c0,0,2,1,2.9,3"/>
				<path class="st1" d="M51.2,33.2c-0.7-1.6-2.3-2.4-2.4-2.4l1.1-2.1c0.1,0,2.4,1.2,3.5,3.6L51.2,33.2z"/>
			</g>
			<g>
				<path class="st0" d="M59,32c0,0,2.9-1.5,5.8-1.3"/>
				<path class="st1" d="M59.5,33.1l-1.1-2.1c0.1-0.1,3.2-1.7,6.4-1.4l-0.2,2.4C62.2,31.7,59.6,33,59.5,33.1z"/>
			</g>
			<g>
				<path class="st0" d="M73.8,67.3c0,0-3.4-1.4-5-4.7"/>
				<path class="st1" d="M73.3,68.4c-0.2-0.1-3.8-1.6-5.6-5.3l2.1-1c1.4,2.9,4.4,4.1,4.4,4.1L73.3,68.4z"/>
			</g>
			<g>
				<path class="st1" d="M56.3,70l-0.2-2.4l0.1,1.2l-0.1-1.2c0.2,0,4.5-0.6,6.6-6.3c1.5-4,3.8-5.3,5.5-5.8c2.3-0.6,4.5,0.2,5.7,1.3
					l-1.6,1.8c-0.6-0.5-2-1.2-3.6-0.8c-1.6,0.4-3,1.9-3.8,4.3C62.3,69.3,56.6,70,56.3,70z"/>
			</g>
			<g>
				<path class="st1" d="M72.8,62.4c-0.2-0.3-1.6-2.7-0.4-4.8c0.7-1.3,2.2-2.1,4.5-2.2l0.1,2.4c-1.3,0.1-2.2,0.4-2.5,0.9
					c-0.4,0.8,0.2,2.1,0.4,2.5L72.8,62.4z"/>
			</g>
			<g>
				<g>
					<path class="st1" d="M31.4,56.5c-0.4-1.4-0.8-8.9,2.9-11.9c2-1.7,4.8-1.7,8.3-0.1l-1,2.1c-2.5-1.2-4.5-1.3-5.7-0.2
						c-2.7,2.2-2.3,8.6-2.1,9.5L31.4,56.5z"/>
				</g>
				<g>
					<path class="st1" d="M30.4,53c-0.7,0-1.6-0.1-2.4-0.5c-1.4-0.7-2.4-2-2.9-3.8l2.3-0.6c0.3,1.2,0.9,2,1.6,2.3c1.3,0.6,2.9,0,3,0
						l0.9,2.2C32.9,52.5,31.8,53,30.4,53z"/>
				</g>
				<g>
					<path class="st1" d="M38.2,45.2c0-0.1-1.2-2.4,0.3-4.7l2,1.3c-0.7,1.1-0.2,2.3-0.1,2.3L38.2,45.2z"/>
				</g>
			</g>
			<g>
				<path class="st2" d="M56.9,71.1c-0.1-0.2-0.2-0.7-0.3-1.2c-0.3-0.7-0.4-1.1-0.4-1.1s-4.3,0.8-8.4-0.6v0.5c0,0,1.9,16.7-2.8,27.3
					c0.8,0.4,1.6,1,2.3,1.7l0.4,0.3c2.1-2.1,5.6-2.1,7.7,0c1.6,1.6,2,3.9,1.2,5.8l-0.7,1.8c0.9-0.4,1.9-0.6,2.9-0.6
					c0.3,0,0.6,0,0.9,0.1l0.3-1.3c0.3-1.5,1-2.9,2-3.9C56.2,92.2,56.5,77,56.9,71.1z"/>
				<path class="st1" d="M53.8,107.9l1.7-4.5c0.7-1.6,0.3-3.3-0.9-4.5c-1.6-1.6-4.4-1.6-6,0l-0.7,0.7l-1.4-1c-0.6-0.6-1.3-1.1-2-1.5
					l-1-0.5l0.5-1c4.5-10.2,2.7-26.5,2.7-26.7l0-0.1v-2.2l1.6,0.5c3.8,1.3,7.8,0.6,7.8,0.6l1.1-0.2l0.3,1.1l0,0c0,0,0.1,0.3,0.3,0.9
					l0.1,0.2c0.1,0.3,0.2,0.8,0.2,0.9l0.1,0.3l0,0.3c-0.3,4.6-0.9,20.4,4.9,28l0.6,0.8l-0.7,0.7c-0.8,0.8-1.4,2-1.7,3.3l-0.6,2.6
					l-1.2-0.4c-0.1,0-0.3,0-0.5,0c-0.8,0-1.7,0.2-2.4,0.5L53.8,107.9z M51.5,95.3c1.7,0,3.4,0.6,4.7,1.9c1.8,1.8,2.4,4.4,1.6,6.7
					c0.3,0,0.6-0.1,0.9-0.1l0.1-0.3c0.3-1.4,0.8-2.7,1.6-3.7c-5.4-8.1-5.2-22.4-4.8-28.6c-0.1-0.3-0.2-0.6-0.2-1
					c0-0.1,0-0.1-0.1-0.1c-1.3,0.1-3.7,0.2-6.3-0.3c0.3,4,1,16.6-2.6,25.7c0.4,0.3,0.8,0.6,1.2,0.9C48.8,95.7,50.2,95.3,51.5,95.3z"
					/>
			</g>
			<g>
				<path class="st3" d="M86.7,104.1c-2.5-2.5-6-3.7-9.5-3.3c-1.6-4.1-5.6-6.9-10.1-6.9c-2.2,0-4.3,0.7-6,1.9C61.6,97,62.3,98,63,99
					c1.2-0.9,2.6-1.4,4.1-1.4c3.4,0,6.3,2.4,7,5.7l0.4,1.9l1.9-0.5c2.7-0.8,5.6,0,7.6,2c3,3,3,7.9,0,11l2.6,2.6
					C91.1,115.8,91.1,108.6,86.7,104.1z"/>
			</g>
			<g>
				<path class="st3" d="M45.3,91.5C44,91.2,42.7,91,41.1,91c-6.5,0-11.7,4-13.1,9.7c-0.2,0-0.5,0-0.7,0c-6.5,0-11.8,5.3-11.8,11.8
					c0,3.2,1.4,6.4,3.7,8.6l2.5-2.7c-1.6-1.5-2.6-3.7-2.6-5.9c0-4.5,3.7-8.2,8.2-8.2c0.6,0,1.2,0.1,1.8,0.2l2,0.5l0.2-2.1
					c0.5-4.9,4.5-8.3,9.8-8.3c1.1,0,2.1,0.1,3,0.4C44.6,93.9,45,92.8,45.3,91.5z"/>
			</g>
			<g>
				<path class="st1" d="M20.6,119.9c-2-1.8-3.1-4.4-3.1-7.1c0-5.3,4.3-9.7,9.7-9.7c2.6,0,5.2,1,6.9,2.9l-1.7,1.6
					c-1.3-1.4-3.1-2.1-5.1-2.1c-4,0-7.3,3.3-7.3,7.3c0,2,0.8,3.9,2.3,5.3L20.6,119.9z"/>
			</g>
			<g>
				<path class="st1" d="M76.3,105.1h-2.4c0-3.5-2.9-6.4-6.4-6.4s-6.4,2.9-6.4,6.4h-2.4c0-4.8,3.9-8.8,8.8-8.8
					S76.3,100.3,76.3,105.1z"/>
			</g>
			<g>
				<path class="st1" d="M85,118.7l-1.7-1.7c1.3-1.3,2-2.9,2-4.8c0-1.9-0.7-3.6-2.1-5c-1.3-1.3-3-2-4.8-2.1c0,0,0,0-0.1,0
					c-1.8,0-3.6,0.7-4.9,2.1c-0.6,0.6-1.2,1.5-1.5,2.4l-2.2-0.9c0.5-1.2,1.2-2.3,2.1-3.2c1.8-1.8,4.1-2.7,6.6-2.7c0,0,0,0,0.1,0
					c2.4,0,4.7,1,6.4,2.8c1.8,1.8,2.8,4.1,2.7,6.6C87.8,114.7,86.8,116.9,85,118.7z"/>
			</g>
			<g>
				<path class="st1" d="M56.1,106.4l-1.7-1.7c0.8-0.8,1.2-1.9,1.2-3s-0.4-2.2-1.2-3s-1.9-1.2-3-1.2s-2.2,0.4-3,1.2l-0.7,0.7
					l-1.4-1.1c-1.5-1.6-3.2-2.2-5.8-2.2c-4.9,0-8.8,4-8.8,8.9h-2.4c0-6.2,5-11.3,11.2-11.3c3,0,5.3,0.8,7.1,2.5
					c1.1-0.8,2.4-1.2,3.8-1.2c1.8,0,3.4,0.7,4.7,1.9c1.2,1.2,1.9,2.9,1.9,4.7S57.4,105.2,56.1,106.4z"/>
			</g>
			<g>
				<path class="st1" d="M52.1,112.9h-2.4c0-5.1,4-9.1,9.1-9.1c2.3,0,4.4,0.8,6,2.3l-1.6,1.7c-1.2-1.1-2.7-1.7-4.4-1.7
					C55,106.2,52.1,109.1,52.1,112.9z"/>
			</g>
			<g>
				<g>
					<circle class="st1" cx="76.5" cy="78.8" r="1.4"/>
				</g>
				<g>
					<circle class="st1" cx="85.5" cy="78.8" r="1.4"/>
				</g>
				<g>
					<circle class="st1" cx="76.5" cy="89.7" r="1.4"/>
				</g>
				<g>
					<circle class="st1" cx="85.5" cy="89.7" r="1.4"/>
				</g>
			</g>
			<g>
				<g>
					<circle class="st1" cx="27" cy="78.8" r="1.4"/>
				</g>
				<g>
					<circle class="st1" cx="36.1" cy="78.8" r="1.4"/>
				</g>
				<g>
					<circle class="st1" cx="27" cy="89.7" r="1.4"/>
				</g>
				<g>
					<circle class="st1" cx="36.1" cy="89.7" r="1.4"/>
				</g>
			</g>
		</g>
		<g>
			<g>
				<circle class="st0" cx="18.3" cy="17.1" r="2"/>
			</g>
			<g>
				<path class="st1" d="M18.3,20.2c-1.7,0-3.1-1.4-3.1-3.1s1.4-3.1,3.1-3.1s3.1,1.4,3.1,3.1S20,20.2,18.3,20.2z M18.3,16.2
					c-0.5,0-0.9,0.4-0.9,0.9s0.4,0.9,0.9,0.9s0.9-0.4,0.9-0.9C19.2,16.6,18.8,16.2,18.3,16.2z"/>
			</g>
		</g>
		<g>
			<g>
				<rect x="2.3" y="77.3" transform="matrix(0.7071 -0.7071 0.7071 0.7071 -54.8377 26.259)" class="st0" width="4" height="4"/>
			</g>
			<g>
				<path class="st4" d="M4.4,83.7L0,79.3L4.4,75l4.4,4.4L4.4,83.7z M3.1,79.3l1.2,1.2l1.2-1.2l-1.2-1.2L3.1,79.3z"/>
			</g>
		</g>
		<g>
			<g>
				<circle class="st0" cx="96.9" cy="33.9" r="2"/>
			</g>
			<g>
				<path class="st1" d="M96.9,37.1c-1.7,0-3.1-1.4-3.1-3.1s1.4-3.1,3.1-3.1s3.1,1.4,3.1,3.1S98.7,37.1,96.9,37.1z M96.9,33
					c-0.5,0-0.9,0.4-0.9,0.9s0.4,0.9,0.9,0.9s0.9-0.4,0.9-0.9S97.4,33,96.9,33z"/>
			</g>
		</g>
		<g>
			<g>
				<path class="st4" d="M55.9,16.3l-2.2-3.4c-0.8-1.2-2-2-3.4-2.3l-4-0.9l3.6-2.5c1.2-0.8,2-2.1,2.3-3.5l0.7-3.6L55,3.4
					c0.8,1.2,2,2,3.4,2.4l4.1,1l-3.2,2.1c-1.2,0.8-2,2-2.4,3.4L55.9,16.3z"/>
			</g>
		</g>
		<g>
			<g>
				<path class="st4" d="M105.4,80.3l-1.6-2.4c-0.6-0.9-1.4-1.5-2.4-1.7l-2.9-0.6l2.6-1.8c0.8-0.6,1.4-1.5,1.6-2.5l0.5-2.6l1.5,2.3
					c0.6,0.9,1.4,1.5,2.4,1.7l3,0.7l-2.3,1.5c-0.9,0.6-1.5,1.4-1.7,2.4L105.4,80.3z"/>
			</g>
		</g>
	</g>
</g>
</svg>
