<?xml version="1.0" encoding="utf-8"?>
<!-- Generator: Adobe Illustrator 22.1.0, SVG Export Plug-In . SVG Version: 6.00 Build 0)  -->
<svg version="1.1" id="Layer_1" xmlns="http://www.w3.org/2000/svg" xmlns:xlink="http://www.w3.org/1999/xlink" x="0px" y="0px"
	 viewBox="0 0 110.4 121.1" style="enable-background:new 0 0 110.4 121.1;" xml:space="preserve">
<style type="text/css">
	.st0{fill:#D8D8D8;}
	.st1{fill:#FFFFFF;}
	.st2{fill:#40404F;}
	.st3{fill:#668EFF;}
	.st4{fill:#00DFD3;}
	.st5{clip-path:url(#SVGID_2_);}
</style>
<g>
	<g>
		<g>
			<rect x="13.4" y="18.8" class="st0" width="78" height="101.9"/>
		</g>
		<g>
			<rect x="19.3" y="20.1" class="st1" width="70.8" height="94.9"/>
			<path class="st2" d="M91.3,116.1H18.2V18.9h73.1V116.1z M20.5,113.8h68.4V21.2H20.5V113.8z"/>
		</g>
		<g>
			<path class="st1" d="M25.2,81.9v26.4h11c0-0.1,0-0.2,0-0.2c0-7.6,6.2-13.8,13.8-13.8s13.8,6.2,13.8,13.8c0,0.1,0,0.2,0,0.2h11
				V81.9H25.2z"/>
			<path class="st2" d="M76,109.5H62.5v-1.3c0-0.1,0-0.1,0-0.2c0-6.9-5.6-12.6-12.5-12.6s-12.5,5.6-12.5,12.5v1.5H24V80.6h52V109.5z
				 M65,107h8.5V83.1h-47V107H35c0.5-7.8,7.1-14,15-14S64.5,99.2,65,107z"/>
		</g>
		<g>
			<rect x="82" y="88.5" class="st1" width="26.4" height="26.4"/>
			<path class="st2" d="M109.6,116.2H80.7v-29h28.9V116.2z M83.2,113.6h23.9V89.8H83.2V113.6z"/>
		</g>
		<g>
			<rect x="35.9" y="45.4" class="st3" width="18.4" height="32.4"/>
			<path class="st2" d="M55.6,79.1H34.5V44h21.1V79.1z M37.2,76.5h15.7V46.7H37.2V76.5z"/>
		</g>
		<g>
			<polygon class="st1" points="78.3,58.9 59.6,77.6 97,77.6 			"/>
			<path class="st2" d="M100,78.9H56.6l21.7-21.7L100,78.9z M62.7,76.3h31.2L78.3,60.7L62.7,76.3z"/>
		</g>
		<g>
			<circle class="st4" cx="71.7" cy="37.1" r="7.6"/>
		</g>
		<g>
			<g>
				<g>
					<defs>
						<path id="SVGID_1_" d="M25.2,81.9v26.4h11c0-0.1,0-0.2,0-0.2c0-7.6,6.2-13.8,13.8-13.8s13.8,6.2,13.8,13.8c0,0.1,0,0.2,0,0.2
							h11V81.9H25.2z"/>
					</defs>
					<clipPath id="SVGID_2_">
						<use xlink:href="#SVGID_1_"  style="overflow:visible;"/>
					</clipPath>
					<g class="st5">
						<g>
							<circle class="st2" cx="68.5" cy="77" r="1.5"/>
						</g>
						<g>
							<circle class="st2" cx="68.5" cy="87.2" r="1.5"/>
						</g>
						<g>
							<circle class="st2" cx="68.5" cy="97.3" r="1.5"/>
						</g>
						<g>
							<circle class="st2" cx="68.5" cy="107.5" r="1.5"/>
						</g>
						<g>
							<circle class="st2" cx="56.2" cy="77" r="1.5"/>
						</g>
						<g>
							<circle class="st2" cx="56.2" cy="87.2" r="1.5"/>
						</g>
						<g>
							<circle class="st2" cx="56.2" cy="97.3" r="1.5"/>
						</g>
						<g>
							<circle class="st2" cx="56.2" cy="107.5" r="1.5"/>
						</g>
						<g>
							<circle class="st2" cx="43.8" cy="77" r="1.5"/>
						</g>
						<g>
							<circle class="st2" cx="43.8" cy="87.2" r="1.5"/>
						</g>
						<g>
							<circle class="st2" cx="43.8" cy="97.3" r="1.5"/>
						</g>
						<g>
							<circle class="st2" cx="43.8" cy="107.5" r="1.5"/>
						</g>
						<g>
							<circle class="st2" cx="31.5" cy="77" r="1.5"/>
						</g>
						<g>
							<circle class="st2" cx="31.5" cy="87.2" r="1.5"/>
						</g>
						<g>
							<circle class="st2" cx="31.5" cy="97.3" r="1.5"/>
						</g>
						<g>
							<circle class="st2" cx="31.5" cy="107.5" r="1.5"/>
						</g>
					</g>
				</g>
			</g>
		</g>
		<g>
			<circle class="st4" cx="5.3" cy="71.4" r="4.8"/>
		</g>
		<g>
			<path class="st2" d="M109.7,35.6H98.2V24h11.6L109.7,35.6L109.7,35.6z M100.7,33.1h6.5v-6.5h-6.5V33.1z"/>
		</g>
		<g>
			<g>
				<g>
					<rect x="64.8" y="0.7" class="st4" width="2.3" height="10.6"/>
				</g>
			</g>
			<g>
				<g>
					<rect x="60.6" y="4.9" class="st4" width="10.6" height="2.3"/>
				</g>
			</g>
		</g>
	</g>
</g>
</svg>
