<?xml version="1.0" encoding="utf-8"?>
<!-- Generator: Adobe Illustrator 22.1.0, SVG Export Plug-In . SVG Version: 6.00 Build 0)  -->
<svg version="1.1" id="Layer_1" xmlns="http://www.w3.org/2000/svg" xmlns:xlink="http://www.w3.org/1999/xlink" x="0px" y="0px"
	 viewBox="0 0 122.7 116.1" style="enable-background:new 0 0 122.7 116.1;" xml:space="preserve">
<style type="text/css">
	.st0{fill:#FFFFFF;}
	.st1{fill:#40404F;}
	.st2{fill:#00DFD3;}
	.st3{fill:#D8D8D8;}
	.st4{fill:#668EFF;}
</style>
<g>
	<g>
		<path class="st0" d="M9.8,1.3h62c4.7,0,8.6,3.9,8.6,8.6v39.2c0,4.7-3.9,8.6-8.6,8.6H37.1l-15.6,9.7l-1.8-9.7h-10
			c-4.7,0-8.6-3.9-8.6-8.6V9.9C1.2,5.1,5,1.3,9.8,1.3z"/>
		<path class="st1" d="M20.7,68.9l-1.9-10.3H9.8c-5.3,0-9.6-4.3-9.6-9.6V9.9c0-5.3,4.3-9.6,9.6-9.6h62c5.3,0,9.6,4.3,9.6,9.6v39.2
			c0,5.3-4.3,9.6-9.6,9.6H37.4L20.7,68.9z M9.8,2.3c-4.2,0-7.6,3.4-7.6,7.6v39.2c0,4.2,3.4,7.6,7.6,7.6h10.8l1.6,9l14.6-9h35
			c4.2,0,7.6-3.4,7.6-7.6V9.9c0-4.2-3.4-7.6-7.6-7.6H9.8z"/>
	</g>
	<g>
		<path class="st2" d="M26,17.6c1.3,0,2.4,0.2,3.4,0.6c1,0.4,1.8,1,2.3,1.8c0.5,0.8,0.8,1.6,0.8,2.7c0,1.1-0.3,2-0.8,2.8
			c-0.5,0.8-1.3,1.7-2.3,2.7c-0.8,0.9-1.5,1.6-1.9,2.2s-0.7,1.3-0.8,2.1l-0.1,0.9h-2.3v-1.3c0-1.2,0.2-2.1,0.6-2.9
			c0.4-0.8,1-1.7,1.8-2.6c0.6-0.7,1-1.3,1.3-1.8c0.3-0.5,0.4-1.1,0.4-1.7c0-0.7-0.3-1.3-0.8-1.7s-1.2-0.6-2.1-0.6
			c-1.4,0-2.9,0.4-4.3,1.3v-3.3C22.7,18,24.3,17.6,26,17.6z M23.4,39.9v-4.3h4.4v4.3H23.4z"/>
		<path class="st2" d="M40.9,17.6c1.3,0,2.4,0.2,3.4,0.6c1,0.4,1.8,1,2.3,1.8c0.5,0.8,0.8,1.6,0.8,2.7c0,1.1-0.3,2-0.8,2.8
			c-0.5,0.8-1.3,1.7-2.3,2.7c-0.8,0.9-1.5,1.6-1.9,2.2s-0.7,1.3-0.8,2.1l-0.1,0.9h-2.3v-1.3c0-1.2,0.2-2.1,0.6-2.9
			c0.4-0.8,1-1.7,1.8-2.6c0.6-0.7,1-1.3,1.3-1.8c0.3-0.5,0.4-1.1,0.4-1.7c0-0.7-0.3-1.3-0.8-1.7s-1.2-0.6-2.1-0.6
			c-1.4,0-2.9,0.4-4.3,1.3v-3.3C37.7,18,39.2,17.6,40.9,17.6z M38.3,39.9v-4.3h4.4v4.3H38.3z"/>
		<path class="st2" d="M55.9,17.6c1.3,0,2.4,0.2,3.4,0.6c1,0.4,1.8,1,2.3,1.8c0.5,0.8,0.8,1.6,0.8,2.7c0,1.1-0.3,2-0.8,2.8
			s-1.3,1.7-2.3,2.7c-0.8,0.9-1.5,1.6-1.9,2.2s-0.7,1.3-0.8,2.1l-0.1,0.9h-2.3v-1.3c0-1.2,0.2-2.1,0.6-2.9c0.4-0.8,1-1.7,1.8-2.6
			c0.6-0.7,1-1.3,1.3-1.8c0.3-0.5,0.4-1.1,0.4-1.7c0-0.7-0.3-1.3-0.8-1.7s-1.2-0.6-2.1-0.6c-1.4,0-2.9,0.4-4.3,1.3v-3.3
			C52.6,18,54.1,17.6,55.9,17.6z M53.3,39.9v-4.3h4.4v4.3H53.3z"/>
	</g>
	<g>
		<path class="st3" d="M111.7,49.3H49.1c-3,0-5.4,2.4-5.4,5.4v41.5c0,3,2.4,5.4,5.4,5.4h34.7l14.5,8.9l1.6-8.9h11.8
			c3,0,5.4-2.4,5.4-5.4V54.7C117.1,51.7,114.7,49.3,111.7,49.3z"/>
	</g>
	<g>
		<path class="st4" d="M116.1,53.6H53.4c-3,0-5.4,2.4-5.4,5.4v41.5c0,3,2.4,5.4,5.4,5.4h34.7l14.5,8.9l1.6-8.9h11.8
			c3,0,5.4-2.4,5.4-5.4V59C121.4,56.1,119,53.6,116.1,53.6z"/>
		<path class="st1" d="M103.3,116.4l-15.5-9.6H53.4c-3.5,0-6.4-2.9-6.4-6.4V59c0-3.5,2.9-6.4,6.4-6.4h62.6c3.5,0,6.4,2.9,6.4,6.4
			v41.5c0,3.5-2.9,6.4-6.4,6.4h-11L103.3,116.4z M53.4,54.6c-2.4,0-4.4,2-4.4,4.4v41.5c0,2.4,2,4.4,4.4,4.4h35l13.5,8.3l1.5-8.3
			h12.6c2.4,0,4.4-2,4.4-4.4V59c0-2.4-2-4.4-4.4-4.4H53.4z"/>
	</g>
	<g>
		<circle class="st0" cx="72.9" cy="79.3" r="3.9"/>
	</g>
	<g>
		<circle class="st0" cx="84.7" cy="79.3" r="3.9"/>
	</g>
	<g>
		<circle class="st0" cx="96.6" cy="79.3" r="3.9"/>
	</g>
	<g>
		<circle class="st1" cx="90.2" cy="33.9" r="1.2"/>
	</g>
	<g>
		<circle class="st1" cx="98.4" cy="33.9" r="1.2"/>
	</g>
	<g>
		<circle class="st1" cx="106.6" cy="33.9" r="1.2"/>
	</g>
	<g>
		<circle class="st1" cx="114.8" cy="33.9" r="1.2"/>
	</g>
	<g>
		<circle class="st1" cx="90.2" cy="43.8" r="1.2"/>
	</g>
	<g>
		<circle class="st1" cx="98.4" cy="43.8" r="1.2"/>
	</g>
	<g>
		<circle class="st1" cx="106.6" cy="43.8" r="1.2"/>
	</g>
	<g>
		<circle class="st1" cx="114.8" cy="43.8" r="1.2"/>
	</g>
</g>
</svg>
