<?xml version="1.0" encoding="utf-8"?>
<!-- Generator: Adobe Illustrator 22.1.0, SVG Export Plug-In . SVG Version: 6.00 Build 0)  -->
<svg version="1.1" id="Layer_1" xmlns="http://www.w3.org/2000/svg" xmlns:xlink="http://www.w3.org/1999/xlink" x="0px" y="0px"
	 viewBox="0 0 180.2 171.1" style="enable-background:new 0 0 180.2 171.1;" xml:space="preserve">
<style type="text/css">
	.st0{fill:#FFFFFF;}
	.st1{fill:#40404F;}
	.st2{fill:#668EFF;}
	.st3{fill:none;}
	.st4{clip-path:url(#SVGID_2_);}
	.st5{clip-path:url(#SVGID_4_);}
	.st6{clip-path:url(#SVGID_6_);}
	.st7{fill:#00DFD3;}
	.st8{clip-path:url(#SVGID_8_);}
</style>
<g>
	<g>
		<g>
			<path class="st0" d="M120.9,94.5c0,8.2-3.2,15.6-8.5,21.1c-4,4.2-6.6,9.5-7.5,15.1c-0.4,2.4-2.5,4.2-5,4.2H81.1
				c-2.5,0-4.6-1.8-4.9-4.2c-0.9-5.7-3.5-11-7.5-15.2c-5.2-5.4-8.4-12.7-8.5-20.7C60,77.9,73.4,64.2,90.3,64.1
				S120.9,77.6,120.9,94.5L120.9,94.5z"/>
		</g>
		<g>
			<path class="st1" d="M99.9,135.8H81.1c-2.9,0-5.5-2.2-5.9-5c-0.9-5.5-3.4-10.7-7.3-14.7c-5.6-5.8-8.7-13.4-8.7-21.4
				c-0.1-8.4,3.1-16.3,8.9-22.3c5.9-6,13.7-9.3,22.2-9.3c0.1,0,0.2,0,0.2,0c8.3,0,16.1,3.2,22,9.1c6,5.9,9.3,13.8,9.3,22.2
				c0,8.2-3.1,15.9-8.8,21.7c-3.9,4-6.4,9.1-7.2,14.6C105.4,133.7,102.9,135.8,99.9,135.8z M90.6,65c-0.1,0-0.2,0-0.2,0
				c-7.9,0.1-15.3,3.2-20.8,8.8c-5.5,5.6-8.5,13-8.4,21c0.1,7.5,3,14.7,8.2,20.1c4.1,4.2,6.8,9.8,7.8,15.7c0.3,2,2,3.4,4,3.4H100
				c2,0,3.7-1.4,4-3.4c0.9-5.9,3.6-11.3,7.7-15.6c5.3-5.5,8.3-12.8,8.3-20.4c0-7.9-3.1-15.3-8.7-20.9C105.7,68,98.4,65,90.6,65z"/>
		</g>
	</g>
	<g>
		<g>
			<path class="st1" d="M94.9,159.5h-8.8c-2.3,0-4.2-1.5-4.8-3.7l-0.7-2.7c-3-0.7-5-3.4-5-6.5V143c0-2.4,2-4.4,4.4-4.4h21.2
				c2.5,0,4.4,2,4.4,4.4v3.6c0,3.1-2.1,5.7-5,6.5l-0.7,2.7C99.2,158,97.2,159.5,94.9,159.5z M101.1,140.4H79.9
				c-1.4,0-2.5,1.1-2.5,2.5v3.6c0,2.4,1.7,4.4,4.1,4.8l0.6,0.1l1,3.9c0.4,1.4,1.6,2.3,3,2.3h8.8c1.4,0,2.7-1,3-2.3l1-3.9l0.6-0.1
				c2.3-0.3,4-2.4,4-4.7V143C103.6,141.6,102.5,140.5,101.1,140.4z"/>
		</g>
	</g>
	<g>
		<g>
			<circle class="st2" cx="81.2" cy="110.3" r="4.2"/>
			<path class="st1" d="M81.2,114.6c-2.4,0-4.3-1.9-4.3-4.3s1.9-4.3,4.3-4.3s4.3,1.9,4.3,4.3S83.6,114.6,81.2,114.6z M81.2,106.2
				c-2.3,0-4.1,1.8-4.1,4.1s1.8,4.1,4.1,4.1s4.1-1.8,4.1-4.1S83.5,106.2,81.2,106.2z"/>
		</g>
		<g>
			<path class="st1" d="M81.2,115.5c-2.9,0-5.2-2.3-5.2-5.2s2.3-5.2,5.2-5.2s5.2,2.3,5.2,5.2S84.1,115.5,81.2,115.5z M81.2,107
				c-1.8,0-3.3,1.5-3.3,3.3s1.5,3.3,3.3,3.3s3.3-1.5,3.3-3.3S83,107,81.2,107z"/>
			<path class="st1" d="M81.2,115.6c-3,0-5.3-2.3-5.3-5.3s2.3-5.3,5.3-5.3c3,0,5.3,2.3,5.3,5.3S84.2,115.6,81.2,115.6z M81.2,105.2
				c-2.9,0-5.1,2.2-5.1,5.1s2.2,5.1,5.1,5.1s5.1-2.2,5.1-5.1S84.1,105.2,81.2,105.2z M81.2,113.7c-1.8,0-3.4-1.6-3.4-3.4
				s1.6-3.4,3.4-3.4c1.8,0,3.4,1.6,3.4,3.4S83,113.7,81.2,113.7z M81.2,107.1c-1.7,0-3.2,1.5-3.2,3.2s1.5,3.2,3.2,3.2
				c1.7,0,3.2-1.5,3.2-3.2S82.9,107.1,81.2,107.1z"/>
		</g>
	</g>
	<g>
		<g>
			<circle class="st2" cx="99.9" cy="110.3" r="4.2"/>
			<path class="st1" d="M99.9,114.6c-2.4,0-4.3-1.9-4.3-4.3s1.9-4.3,4.3-4.3c2.4,0,4.3,1.9,4.3,4.3S102.3,114.6,99.9,114.6z
				 M99.9,106.2c-2.3,0-4.1,1.8-4.1,4.1s1.8,4.1,4.1,4.1s4.1-1.8,4.1-4.1S102.2,106.2,99.9,106.2z"/>
		</g>
		<g>
			<path class="st1" d="M99.9,115.5c-2.9,0-5.2-2.3-5.2-5.2s2.3-5.2,5.2-5.2s5.2,2.3,5.2,5.2S102.7,115.5,99.9,115.5z M99.9,107
				c-1.8,0-3.3,1.5-3.3,3.3s1.5,3.3,3.3,3.3s3.3-1.5,3.3-3.3S101.7,107,99.9,107z"/>
			<path class="st1" d="M99.9,115.6c-3,0-5.3-2.3-5.3-5.3s2.3-5.3,5.3-5.3s5.3,2.3,5.3,5.3C105.2,113.2,102.8,115.6,99.9,115.6z
				 M99.9,105.2c-2.9,0-5.1,2.2-5.1,5.1s2.2,5.1,5.1,5.1c2.8,0,5.1-2.3,5.1-5.1C105,107.4,102.8,105.2,99.9,105.2z M99.9,113.7
				c-1.8,0-3.4-1.6-3.4-3.4s1.6-3.4,3.4-3.4c1.8,0,3.4,1.6,3.4,3.4S101.7,113.7,99.9,113.7z M99.9,107.1c-1.7,0-3.2,1.5-3.2,3.2
				s1.5,3.2,3.2,3.2c1.7,0,3.2-1.5,3.2-3.2S101.6,107.1,99.9,107.1z"/>
		</g>
	</g>
	<g>
		<g>
			<line class="st3" x1="95.6" y1="110.3" x2="95.6" y2="134.8"/>
		</g>
		<g>
			<rect x="94.7" y="110.3" class="st1" width="1.9" height="24.4"/>
		</g>
	</g>
	<g>
		<g>
			<line class="st3" x1="85.4" y1="135.1" x2="85.4" y2="110.3"/>
		</g>
		<g>
			<rect x="84.5" y="110.3" class="st1" width="1.9" height="24.8"/>
		</g>
	</g>
	<g>
		<g>
			<g>
				<defs>
					<path id="SVGID_1_" d="M114.8,132.2c0.6-3.7,2.2-7,4.8-9.7c7.3-7.6,11.3-17.5,11.3-28c0-22.3-18.1-40.4-40.3-40.4h-0.3
						c-10.9,0.1-21,4.4-28.6,12.1C54.1,73.8,50,84,50.2,94.9c0.1,10.3,4.1,20.1,11.3,27.6c2.5,2.6,4.2,6,4.8,9.7H35.6V0.4H150v131.7
						L114.8,132.2z"/>
				</defs>
				<clipPath id="SVGID_2_">
					<use xlink:href="#SVGID_1_"  style="overflow:visible;"/>
				</clipPath>
				<g class="st4">
					<g>
						<path class="st1" d="M90.5,109C80,109,71.7,85.3,71.7,54.9c0-30.3,8.3-54.1,18.8-54.1s18.8,23.8,18.8,54.1
							C109.3,85.3,101.1,109,90.5,109z M90.5,2.7c-9.2,0-16.9,23.9-16.9,52.2s7.8,52.2,16.9,52.2c9.2,0,16.9-23.9,16.9-52.2
							S99.7,2.7,90.5,2.7z"/>
						<path class="st1" d="M90.5,109.1c-10.6,0-18.9-23.8-18.9-54.2S79.9,0.7,90.5,0.7c10.6,0,18.9,23.8,18.9,54.2
							c0,14.7-1.9,28.4-5.4,38.5C100.5,103.5,95.7,109.1,90.5,109.1z M90.5,0.9c-5,0-9.7,5.5-13.2,15.6c-3.5,10.1-5.5,23.7-5.5,38.4
							c0,30.3,8.2,54,18.7,54c10.5,0,18.7-23.7,18.7-54c0-14.6-1.9-28.3-5.5-38.4C100.2,6.4,95.5,0.9,90.5,0.9z M90.5,107.2
							c-9.2,0-17-23.9-17-52.3c0-13.7,1.8-26.8,5-36.7c3.2-10,7.5-15.6,12-15.6s8.8,5.5,12,15.6c3.2,10,5,23,5,36.7
							c0,13.7-1.8,26.8-5,36.7C99.3,101.7,95,107.2,90.5,107.2z M90.5,2.8c-9.1,0-16.8,23.9-16.8,52.1c0,13.7,1.8,26.7,5,36.7
							c3.2,9.8,7.5,15.4,11.8,15.4c9.1,0,16.8-23.9,16.8-52.1S99.6,2.8,90.5,2.8z"/>
					</g>
				</g>
			</g>
		</g>
		<g>
			<g>
				<defs>
					<path id="SVGID_3_" d="M114.8,132.2c0.6-3.7,2.2-7,4.8-9.7c7.3-7.6,11.3-17.5,11.3-28c0-22.3-18.1-40.4-40.3-40.4h-0.3
						c-10.9,0.1-21,4.4-28.6,12.1C54.1,73.8,50,84,50.2,94.9c0.1,10.3,4.1,20.1,11.3,27.6c2.5,2.6,4.2,6,4.8,9.7H35.6V0.4H150v131.7
						L114.8,132.2z"/>
				</defs>
				<clipPath id="SVGID_4_">
					<use xlink:href="#SVGID_3_"  style="overflow:visible;"/>
				</clipPath>
				<g class="st5">
					<g>
						<path class="st1" d="M55.2,86.6c-5.8,0-9.8-1.6-11.5-4.6c-5.3-9.1,11.2-28.2,37.5-43.3c12.4-7.1,25-12.3,35.5-14.4
							c10.8-2.2,18.2-0.9,20.8,3.6c5.3,9.1-11.2,28.2-37.5,43.3c-12.4,7.1-25,12.3-35.5,14.4C61,86.3,57.9,86.6,55.2,86.6z
							 M125.8,25.1c-2.6,0-5.6,0.3-8.9,1c-10.3,2.1-22.7,7.1-34.9,14.2C57.5,54.4,40.7,73.1,45.3,81c2.1,3.7,9,4.7,18.8,2.7
							c10.3-2.1,22.7-7.1,34.9-14.2c24.5-14.2,41.4-32.8,36.8-40.8C134.3,26.4,130.9,25.1,125.8,25.1z"/>
						<path class="st1" d="M55.2,86.7c-5.9,0-9.9-1.6-11.6-4.7c-1.1-1.9-1.3-4.3-0.6-7.1c1.3-5,5.6-11,12.3-17.5
							c6.8-6.6,15.8-13.1,25.8-18.9c12.6-7.2,25.3-12.4,35.5-14.4c10.8-2.2,18.3-0.9,20.9,3.6c1.1,1.9,1.3,4.3,0.6,7.1
							c-1.3,5-5.6,11-12.3,17.5C119,59,110.1,65.5,100,71.3c-12.6,7.2-25.3,12.4-35.5,14.4C61.2,86.4,58.1,86.7,55.2,86.7z
							 M126,23.3c-2.7,0-5.8,0.3-9.3,1.1c-10.2,2-22.8,7.2-35.5,14.4c-10,5.8-19,12.3-25.8,18.8C48.8,64.1,44.6,70.1,43.2,75
							c-0.7,2.7-0.5,5.1,0.5,6.9c1.7,3,5.6,4.6,11.4,4.6c2.8,0,6-0.3,9.3-1c10.2-2,22.8-7.2,35.5-14.4c10-5.8,19-12.3,25.8-18.8
							c6.7-6.4,10.9-12.4,12.2-17.4c0.7-2.7,0.5-5.1-0.5-6.9C135.7,24.9,131.7,23.3,126,23.3z M55.2,84.8c-5.1,0-8.5-1.3-10-3.8
							c-0.9-1.5-1-3.4-0.4-5.7c2.6-9.6,17.8-24.1,37.1-35.2c12.1-7,24.5-12.1,34.9-14.2c3.1-0.7,6.1-1,8.9-1c5,0,8.5,1.3,10.1,3.6
							c2.2,3.9-0.4,10.4-7.5,18.2c-7,7.8-17.4,15.9-29.3,22.7c-12.1,7-24.5,12.1-34.9,14.2C60.8,84.5,57.8,84.8,55.2,84.8z
							 M125.8,25.2c-2.8,0-5.8,0.3-8.9,1c-10.4,2.1-22.8,7.2-34.9,14.2C62.8,51.5,47.6,65.9,45,75.4c-0.6,2.2-0.5,4.1,0.4,5.5
							c2.1,3.7,8.9,4.7,18.7,2.7c10.4-2.1,22.8-7.2,34.9-14.2c24.5-14.2,41.3-32.8,36.8-40.7C134.2,26.4,130.8,25.2,125.8,25.2z"/>
					</g>
				</g>
			</g>
		</g>
		<g>
			<g>
				<defs>
					<path id="SVGID_5_" d="M114.8,132.2c0.6-3.7,2.2-7,4.8-9.7c7.3-7.6,11.3-17.5,11.3-28c0-22.3-18.1-40.4-40.3-40.4h-0.3
						c-10.9,0.1-21,4.4-28.6,12.1C54.1,73.8,50,84,50.2,94.9c0.1,10.3,4.1,20.1,11.3,27.6c2.5,2.6,4.2,6,4.8,9.7H35.6V0.4H150v131.7
						L114.8,132.2z"/>
				</defs>
				<clipPath id="SVGID_6_">
					<use xlink:href="#SVGID_5_"  style="overflow:visible;"/>
				</clipPath>
				<g class="st6">
					<g>
						<path class="st1" d="M125.8,86.6c-2.7,0-5.8-0.3-9.3-1C106,83.5,93.4,78.4,81,71.2C54.9,56,38.4,37,43.7,27.9
							c2.6-4.5,10-5.8,20.8-3.6C75,26.4,87.6,31.5,100,38.7c26.3,15.2,42.7,34.2,37.5,43.3C135.6,85,131.6,86.6,125.8,86.6z
							 M55.2,25.1c-5,0-8.5,1.3-9.9,3.7c-4.6,7.9,12.3,26.6,36.8,40.8c12.2,7.1,24.6,12.1,34.9,14.2c9.8,2,16.7,1,18.8-2.7
							c4.6-7.9-12.3-26.6-36.8-40.8c-12.2-7.1-24.6-12.1-34.9-14.2C60.8,25.4,57.8,25.1,55.2,25.1z"/>
						<path class="st1" d="M125.8,86.7c-2.9,0-6-0.3-9.3-1c-10.5-2.1-23.2-7.2-35.5-14.4c-12.7-7.4-23.5-15.9-30.5-24
							c-7-8.1-9.5-15-6.9-19.5c2.6-4.6,10.1-5.9,20.9-3.6c10.5,2.1,23.2,7.2,35.5,14.4c26.3,15.2,42.8,34.3,37.5,43.4
							C135.7,85.1,131.6,86.7,125.8,86.7z M55.2,23.3c-5.7,0-9.7,1.6-11.4,4.6c-2.5,4.4-0.1,11.2,6.9,19.2
							c7,8.1,17.8,16.6,30.4,23.9c12.4,7.2,25,12.3,35.5,14.4c3.3,0.7,6.4,1,9.3,1c5.7,0,9.7-1.6,11.6-4.6
							c5.2-9.1-11.3-28-37.5-43.2c-12.4-7.2-25-12.3-35.5-14.4C61,23.7,57.9,23.3,55.2,23.3z M125.9,84.9c-2.6,0-5.6-0.3-8.9-1
							c-10.4-2.1-22.8-7.2-34.9-14.2C62.7,58.4,47.3,43.9,44.8,34.4c-0.6-2.2-0.5-4.1,0.4-5.6c1.4-2.4,5-3.7,10-3.7
							c2.8,0,5.8,0.3,8.9,1c10.4,2.1,22.8,7.2,34.9,14.2c19.4,11.2,34.7,25.8,37.2,35.3c0.6,2.2,0.5,4.1-0.4,5.6
							C134.5,83.6,131,84.9,125.9,84.9z M55.2,25.2c-5,0-8.4,1.3-9.8,3.6c-0.8,1.4-1,3.3-0.4,5.5c2.5,9.5,17.8,24,37.2,35.2
							c12.1,7,24.5,12.1,34.9,14.2c9.8,2,16.6,1,18.7-2.7c0.8-1.4,1-3.3,0.4-5.5c-2.5-9.5-17.8-24-37.2-35.2
							c-12.1-7-24.5-12.1-34.9-14.2C61,25.5,58,25.2,55.2,25.2z"/>
					</g>
				</g>
			</g>
		</g>
	</g>
	<g>
		<g>
			<circle class="st2" cx="46" cy="33.4" r="8.7"/>
			<path class="st1" d="M46,42.2c-4.9,0-8.8-3.9-8.8-8.8c0-4.9,3.9-8.8,8.8-8.8s8.8,3.9,8.8,8.8C54.8,38.3,50.9,42.2,46,42.2z
				 M46,24.8c-4.7,0-8.6,3.9-8.6,8.6c0,4.7,3.9,8.6,8.6,8.6s8.6-3.9,8.6-8.6C54.6,28.7,50.7,24.8,46,24.8z"/>
		</g>
		<g>
			<path class="st1" d="M46,43c-5.3,0-9.6-4.3-9.6-9.6s4.3-9.6,9.6-9.6s9.6,4.3,9.6,9.6S51.3,43,46,43z M46,25.7
				c-4.3,0-7.7,3.5-7.7,7.7c0,4.3,3.5,7.7,7.7,7.7s7.7-3.5,7.7-7.7S50.2,25.7,46,25.7z"/>
			<path class="st1" d="M46,43.1c-5.3,0-9.7-4.4-9.7-9.7s4.4-9.7,9.7-9.7s9.7,4.4,9.7,9.7S51.3,43.1,46,43.1z M46,23.9
				c-5.2,0-9.5,4.3-9.5,9.5s4.3,9.5,9.5,9.5s9.5-4.3,9.5-9.5S51.2,23.9,46,23.9z M46,41.2c-4.3,0-7.8-3.5-7.8-7.8
				c0-4.3,3.5-7.8,7.8-7.8c4.2,0,7.8,3.6,7.8,7.8S50.2,41.2,46,41.2z M46,25.8c-4.2,0-7.6,3.4-7.6,7.6c0,4.2,3.4,7.6,7.6,7.6
				c4.1,0,7.6-3.5,7.6-7.6S50.1,25.8,46,25.8z"/>
		</g>
	</g>
	<g>
		<g>
			
				<rect x="127.2" y="35.9" transform="matrix(0.7071 -0.7071 0.7071 0.7071 9.2927 106.7371)" class="st2" width="12.5" height="12.5"/>
			<path class="st1" d="M133.5,51.1L133.5,51.1l-9-9l0.1-0.1l8.9-8.9l0.1,0.1l8.9,8.9l-0.1,0.1L133.5,51.1z M124.8,42.2l8.7,8.7
				l8.7-8.7l-8.7-8.7L124.8,42.2z"/>
		</g>
		<g>
			<path class="st1" d="M133.5,52.3l-10.2-10.2l10.2-10.2l10.2,10.2L133.5,52.3z M126,42.1l7.5,7.5l7.5-7.5l-7.5-7.5L126,42.1z"/>
			<path class="st1" d="M133.5,52.4L133.5,52.4l-10.3-10.3l0.1-0.1l10.3-10.3l0.1,0.1l10.3,10.3l-0.1,0.1L133.5,52.4z M123.4,42.1
				l10.1,10.1l10.1-10.1L133.5,32L123.4,42.1z M133.5,49.7L133.5,49.7l-7.6-7.6l0.1-0.1l7.6-7.6l0.1,0.1l7.6,7.6l-0.1,0.1
				L133.5,49.7z M126.1,42.1l7.4,7.4l7.4-7.4l-7.4-7.4L126.1,42.1z"/>
		</g>
	</g>
	<g>
		<g>
			<circle class="st0" cx="104.4" cy="20.7" r="3.4"/>
			<path class="st7" d="M104.4,24.2c-1.9,0-3.5-1.6-3.5-3.5c0-1.9,1.6-3.5,3.5-3.5s3.5,1.6,3.5,3.5
				C107.9,22.6,106.3,24.2,104.4,24.2z M104.4,17.4c-1.8,0-3.3,1.5-3.3,3.3c0,1.8,1.5,3.3,3.3,3.3c1.8,0,3.3-1.5,3.3-3.3
				C107.7,18.9,106.2,17.4,104.4,17.4z"/>
		</g>
		<g>
			<path class="st7" d="M104.4,25c-2.4,0-4.3-1.9-4.3-4.3s1.9-4.3,4.3-4.3s4.3,1.9,4.3,4.3S106.8,25,104.4,25z M104.4,18.3
				c-1.4,0-2.5,1.1-2.5,2.5s1.1,2.5,2.5,2.5s2.5-1.1,2.5-2.5S105.8,18.3,104.4,18.3z"/>
			<path class="st7" d="M104.4,25.1c-2.5,0-4.4-1.9-4.4-4.4s1.9-4.4,4.4-4.4c2.5,0,4.4,1.9,4.4,4.4S106.9,25.1,104.4,25.1z
				 M104.4,16.5c-2.4,0-4.2,1.8-4.2,4.2c0,2.4,1.8,4.2,4.2,4.2s4.2-1.8,4.2-4.2C108.6,18.3,106.8,16.5,104.4,16.5z M104.4,23.4
				c-1.5,0-2.6-1.1-2.6-2.6s1.1-2.6,2.6-2.6s2.6,1.1,2.6,2.6S105.9,23.4,104.4,23.4z M104.4,18.4c-1.3,0-2.4,1.1-2.4,2.4
				s1.1,2.4,2.4,2.4s2.4-1.1,2.4-2.4S105.7,18.4,104.4,18.4z"/>
		</g>
	</g>
	<g>
		<g>
			<circle class="st0" cx="136.3" cy="80.8" r="3.4"/>
			<path class="st7" d="M136.3,84.3c-1.9,0-3.5-1.6-3.5-3.5c0-1.9,1.6-3.5,3.5-3.5s3.5,1.6,3.5,3.5
				C139.8,82.7,138.2,84.3,136.3,84.3z M136.3,77.5c-1.8,0-3.3,1.5-3.3,3.3c0,1.8,1.5,3.3,3.3,3.3c1.8,0,3.3-1.5,3.3-3.3
				C139.6,79,138.1,77.5,136.3,77.5z"/>
		</g>
		<g>
			<path class="st7" d="M136.3,85.1c-2.4,0-4.3-1.9-4.3-4.3s1.9-4.3,4.3-4.3s4.3,1.9,4.3,4.3S138.7,85.1,136.3,85.1z M136.3,78.3
				c-1.4,0-2.5,1.1-2.5,2.5s1.1,2.5,2.5,2.5s2.5-1.1,2.5-2.5S137.7,78.3,136.3,78.3z"/>
			<path class="st7" d="M136.3,85.2c-2.5,0-4.4-1.9-4.4-4.4s1.9-4.4,4.4-4.4s4.4,1.9,4.4,4.4S138.8,85.2,136.3,85.2z M136.3,76.6
				c-2.4,0-4.2,1.8-4.2,4.2c0,2.4,1.8,4.2,4.2,4.2s4.2-1.8,4.2-4.2C140.5,78.4,138.7,76.6,136.3,76.6z M136.3,83.4
				c-1.5,0-2.6-1.1-2.6-2.6s1.1-2.6,2.6-2.6s2.6,1.1,2.6,2.6S137.8,83.4,136.3,83.4z M136.3,78.4c-1.3,0-2.4,1.1-2.4,2.4
				s1.1,2.4,2.4,2.4s2.4-1.1,2.4-2.4S137.6,78.4,136.3,78.4z"/>
		</g>
	</g>
	<g>
		<g>
			<circle class="st0" cx="160.1" cy="55.1" r="1.7"/>
			<path class="st1" d="M160.1,56.9c-1,0-1.8-0.8-1.8-1.8c0-1,0.8-1.8,1.8-1.8s1.8,0.8,1.8,1.8C161.9,56.1,161.1,56.9,160.1,56.9z
				 M160.1,53.5c-0.9,0-1.6,0.7-1.6,1.6s0.7,1.6,1.6,1.6c0.9,0,1.6-0.7,1.6-1.6S161,53.5,160.1,53.5z"/>
		</g>
		<g>
			<path class="st1" d="M160.1,57.7c-1.5,0-2.6-1.2-2.6-2.6s1.2-2.6,2.6-2.6s2.6,1.2,2.6,2.6S161.6,57.7,160.1,57.7z M160.1,54.3
				c-0.4,0-0.8,0.3-0.8,0.8s0.3,0.8,0.8,0.8s0.8-0.3,0.8-0.8S160.5,54.3,160.1,54.3z"/>
			<path class="st1" d="M160.1,57.8c-1.5,0-2.7-1.2-2.7-2.7c0-1.5,1.2-2.7,2.7-2.7c1.5,0,2.7,1.2,2.7,2.7
				C162.8,56.6,161.6,57.8,160.1,57.8z M160.1,52.6c-1.4,0-2.5,1.1-2.5,2.5c0,1.4,1.1,2.5,2.5,2.5c1.4,0,2.5-1.1,2.5-2.5
				C162.6,53.7,161.5,52.6,160.1,52.6z M160.1,56c-0.6,0-0.9-0.3-0.9-0.9c0-0.6,0.5-0.9,0.9-0.9s0.9,0.3,0.9,0.9
				C161,55.7,160.7,56,160.1,56z M160.1,54.4c-0.3,0-0.7,0.2-0.7,0.7c0,0.4,0.3,0.7,0.7,0.7c0.4,0,0.7-0.3,0.7-0.7
				C160.8,54.6,160.4,54.4,160.1,54.4z"/>
		</g>
	</g>
	<g>
		<g>
			<circle class="st0" cx="55.1" cy="118.3" r="1.7"/>
			<path class="st1" d="M55.1,120.1c-1,0-1.8-0.8-1.8-1.8s0.8-1.8,1.8-1.8c1,0,1.8,0.8,1.8,1.8S56.1,120.1,55.1,120.1z M55.1,116.7
				c-0.9,0-1.6,0.7-1.6,1.6s0.7,1.6,1.6,1.6s1.6-0.7,1.6-1.6S56,116.7,55.1,116.7z"/>
		</g>
		<g>
			<path class="st1" d="M55.1,121c-1.5,0-2.6-1.2-2.6-2.6s1.2-2.6,2.6-2.6s2.6,1.2,2.6,2.6S56.6,121,55.1,121z M55.1,117.6
				c-0.4,0-0.8,0.3-0.8,0.8s0.3,0.8,0.8,0.8s0.8-0.3,0.8-0.8S55.5,117.6,55.1,117.6z"/>
			<path class="st1" d="M55.1,121.1c-1.5,0-2.7-1.2-2.7-2.7c0-1.5,1.2-2.7,2.7-2.7s2.7,1.2,2.7,2.7
				C57.8,119.9,56.6,121.1,55.1,121.1z M55.1,115.9c-1.4,0-2.5,1.1-2.5,2.5c0,1.4,1.1,2.5,2.5,2.5s2.5-1.1,2.5-2.5
				C57.6,117,56.5,115.9,55.1,115.9z M55.1,119.3c-0.6,0-0.9-0.3-0.9-0.9c0-0.6,0.5-0.9,0.9-0.9s0.9,0.3,0.9,0.9
				C56,119,55.7,119.3,55.1,119.3z M55.1,117.7c-0.3,0-0.7,0.3-0.7,0.7c0,0.4,0.3,0.7,0.7,0.7s0.7-0.3,0.7-0.7
				C55.8,117.9,55.4,117.7,55.1,117.7z"/>
		</g>
	</g>
	<g>
		<g>
			<circle class="st0" cx="25.3" cy="53.1" r="1.7"/>
			<path class="st1" d="M25.3,54.9c-1,0-1.8-0.8-1.8-1.8c0-1,0.8-1.8,1.8-1.8c1,0,1.8,0.8,1.8,1.8C27.1,54.1,26.3,54.9,25.3,54.9z
				 M25.3,51.5c-0.9,0-1.6,0.7-1.6,1.6s0.7,1.6,1.6,1.6c0.9,0,1.6-0.7,1.6-1.6S26.2,51.5,25.3,51.5z"/>
		</g>
		<g>
			<path class="st1" d="M25.3,55.7c-1.5,0-2.6-1.2-2.6-2.6s1.2-2.6,2.6-2.6s2.6,1.2,2.6,2.6S26.8,55.7,25.3,55.7z M25.3,52.3
				c-0.4,0-0.8,0.3-0.8,0.8s0.3,0.8,0.8,0.8s0.8-0.3,0.8-0.8S25.7,52.3,25.3,52.3z"/>
			<path class="st1" d="M25.3,55.8c-1.5,0-2.7-1.2-2.7-2.7c0-1.5,1.2-2.7,2.7-2.7s2.7,1.2,2.7,2.7C28,54.6,26.8,55.8,25.3,55.8z
				 M25.3,50.6c-1.4,0-2.5,1.1-2.5,2.5c0,1.4,1.1,2.5,2.5,2.5s2.5-1.1,2.5-2.5C27.8,51.7,26.7,50.6,25.3,50.6z M25.3,54
				c-0.6,0-0.9-0.3-0.9-0.9c0-0.6,0.5-0.9,0.9-0.9s0.9,0.3,0.9,0.9C26.2,53.7,25.9,54,25.3,54z M25.3,52.4c-0.3,0-0.7,0.2-0.7,0.7
				c0,0.4,0.3,0.7,0.7,0.7s0.7-0.3,0.7-0.7C26,52.6,25.6,52.4,25.3,52.4z"/>
		</g>
	</g>
	<g>
		<g>
			
				<rect x="13.2" y="95.4" transform="matrix(0.7071 -0.7071 0.7071 0.7071 -64.3095 38.966)" class="st0" width="3.4" height="3.4"/>
		</g>
		<g>
			<path class="st7" d="M14.9,100.8l-3.7-3.7l3.7-3.7l3.7,3.7L14.9,100.8z M13.9,97.1l1,1l1-1l-1-1L13.9,97.1z"/>
		</g>
	</g>
	<g>
		<g>
			
				<rect x="131" y="129.9" transform="matrix(0.7071 -0.7071 0.7071 0.7071 -54.1785 132.3683)" class="st0" width="3.4" height="3.4"/>
		</g>
		<g>
			<path class="st7" d="M132.7,135.3l-3.7-3.7l3.7-3.7l3.7,3.7L132.7,135.3z M131.6,131.6l1,1l1-1l-1-1L131.6,131.6z"/>
		</g>
	</g>
	<g>
		<g>
			<circle class="st0" cx="164.8" cy="97.1" r="1.7"/>
			<path class="st1" d="M164.8,98.9c-1,0-1.8-0.8-1.8-1.8s0.8-1.8,1.8-1.8s1.8,0.8,1.8,1.8S165.8,98.9,164.8,98.9z M164.8,95.5
				c-0.9,0-1.6,0.7-1.6,1.6c0,0.9,0.7,1.6,1.6,1.6s1.6-0.7,1.6-1.6C166.4,96.2,165.7,95.5,164.8,95.5z"/>
		</g>
		<g>
			<path class="st1" d="M164.8,99.7c-1.5,0-2.6-1.2-2.6-2.6s1.2-2.6,2.6-2.6s2.6,1.2,2.6,2.6S166.3,99.7,164.8,99.7z M164.8,96.3
				c-0.4,0-0.8,0.3-0.8,0.8s0.3,0.8,0.8,0.8s0.8-0.3,0.8-0.8S165.2,96.3,164.8,96.3z"/>
			<path class="st1" d="M164.8,99.8c-1.5,0-2.7-1.2-2.7-2.7c0-1.5,1.2-2.7,2.7-2.7c1.5,0,2.7,1.2,2.7,2.7
				C167.5,98.6,166.3,99.8,164.8,99.8z M164.8,94.6c-1.4,0-2.5,1.1-2.5,2.5c0,1.4,1.1,2.5,2.5,2.5c1.4,0,2.5-1.1,2.5-2.5
				C167.3,95.7,166.2,94.6,164.8,94.6z M164.8,98c-0.6,0-0.9-0.3-0.9-0.9c0-0.6,0.5-0.9,0.9-0.9s0.9,0.3,0.9,0.9
				C165.7,97.7,165.4,98,164.8,98z M164.8,96.4c-0.3,0-0.7,0.2-0.7,0.7c0,0.4,0.3,0.7,0.7,0.7s0.7-0.3,0.7-0.7
				C165.5,96.6,165.1,96.4,164.8,96.4z"/>
		</g>
	</g>
	<g>
		<g>
			<path class="st7" d="M24.6,142.3l-1.5-2.3c-0.6-0.8-1.4-1.4-2.3-1.6l-2.7-0.6l2.5-1.7c0.8-0.6,1.4-1.4,1.5-2.3l0.5-2.5l1.4,2.2
				c0.6,0.8,1.4,1.4,2.3,1.6l2.8,0.6l-2.2,1.4c-0.8,0.6-1.4,1.4-1.6,2.3L24.6,142.3z"/>
		</g>
	</g>
	<g>
		<g>
			<path class="st7" d="M164,162l-1.8-2.7c-0.6-0.9-1.5-1.5-2.7-1.8l-3.1-0.6l2.8-1.9c0.9-0.6,1.5-1.7,1.8-2.7l0.5-2.8l1.7,2.6
				c0.6,0.9,1.5,1.7,2.7,1.9l3.2,0.8l-2.6,1.7c-0.9,0.6-1.7,1.5-1.9,2.7L164,162z"/>
		</g>
	</g>
	<g>
		<g>
			<path class="st7" d="M67.5,170.8l-1.4-2.1c-0.5-0.7-1.2-1.2-2.1-1.4l-2.4-0.5l2.2-1.5c0.7-0.5,1.2-1.3,1.4-2.1l0.4-2.2l1.3,2
				c0.5,0.7,1.2,1.3,2.1,1.5l2.5,0.6l-2,1.3c-0.7,0.5-1.3,1.2-1.5,2.1L67.5,170.8z"/>
		</g>
	</g>
	<g>
		<g>
			<g>
				<defs>
					<path id="SVGID_7_" d="M95,158.7h-8.8c-1.9,0-3.5-1.2-4-3.1l-0.9-3.2c-2.9-0.4-4.9-2.9-4.9-5.8V143c0-2,1.6-3.6,3.6-3.6h21.2
						c1.9,0,3.5,1.7,3.5,3.6v3.6c0,2.9-2.1,5.3-4.8,5.8l-0.9,3.2C98.5,157.5,96.9,158.7,95,158.7z M80,139.6c-1.9,0-3.4,1.5-3.4,3.4
						v3.6c0,2.8,2,5.2,4.8,5.6l0.1,0l0,0.1l0.9,3.3c0.5,1.8,2,2.9,3.8,2.9H95c1.8,0,3.3-1.2,3.8-2.9l0.9-3.4l0.1,0
						c2.7-0.4,4.7-2.8,4.7-5.6V143c0-1.8-1.5-3.4-3.3-3.4H80z"/>
				</defs>
				<use xlink:href="#SVGID_7_"  style="overflow:visible;fill:#40404F;"/>
				<clipPath id="SVGID_8_">
					<use xlink:href="#SVGID_7_"  style="overflow:visible;"/>
				</clipPath>
				<g class="st8">
					<g>
						<g>
							<circle class="st1" cx="79.2" cy="123.7" r="0.6"/>
							<path class="st1" d="M79.2,124.4c-0.4,0-0.7-0.3-0.7-0.7c0-0.4,0.3-0.7,0.7-0.7c0.4,0,0.7,0.3,0.7,0.7
								C79.9,124.1,79.6,124.4,79.2,124.4z M79.2,123.2c-0.3,0-0.5,0.2-0.5,0.5c0,0.3,0.2,0.5,0.5,0.5c0.3,0,0.5-0.2,0.5-0.5
								C79.7,123.4,79.5,123.2,79.2,123.2z"/>
						</g>
					</g>
					<g>
						<g>
							<circle class="st1" cx="83" cy="123.7" r="0.6"/>
							<path class="st1" d="M83,124.4c-0.4,0-0.7-0.3-0.7-0.7c0-0.4,0.3-0.7,0.7-0.7s0.7,0.3,0.7,0.7
								C83.7,124.1,83.4,124.4,83,124.4z M83,123.2c-0.3,0-0.5,0.2-0.5,0.5c0,0.3,0.2,0.5,0.5,0.5s0.5-0.2,0.5-0.5
								C83.5,123.4,83.3,123.2,83,123.2z"/>
						</g>
					</g>
					<g>
						<g>
							<circle class="st1" cx="86.8" cy="123.7" r="0.6"/>
							<path class="st1" d="M86.8,124.4c-0.4,0-0.7-0.3-0.7-0.7c0-0.4,0.3-0.7,0.7-0.7c0.4,0,0.7,0.3,0.7,0.7
								C87.5,124.1,87.2,124.4,86.8,124.4z M86.8,123.2c-0.3,0-0.5,0.2-0.5,0.5c0,0.3,0.2,0.5,0.5,0.5c0.3,0,0.5-0.2,0.5-0.5
								C87.3,123.4,87.1,123.2,86.8,123.2z"/>
						</g>
					</g>
					<g>
						<g>
							<circle class="st1" cx="90.6" cy="123.7" r="0.6"/>
							<path class="st1" d="M90.6,124.4c-0.4,0-0.7-0.3-0.7-0.7c0-0.4,0.3-0.7,0.7-0.7s0.7,0.3,0.7,0.7
								C91.3,124.1,91,124.4,90.6,124.4z M90.6,123.2c-0.3,0-0.5,0.2-0.5,0.5c0,0.3,0.2,0.5,0.5,0.5s0.5-0.2,0.5-0.5
								C91.1,123.4,90.9,123.2,90.6,123.2z"/>
						</g>
					</g>
					<g>
						<g>
							<circle class="st1" cx="94.4" cy="123.7" r="0.6"/>
							<path class="st1" d="M94.4,124.4c-0.4,0-0.7-0.3-0.7-0.7c0-0.4,0.3-0.7,0.7-0.7c0.4,0,0.7,0.3,0.7,0.7
								C95.1,124.1,94.8,124.4,94.4,124.4z M94.4,123.2c-0.3,0-0.5,0.2-0.5,0.5c0,0.3,0.2,0.5,0.5,0.5c0.3,0,0.5-0.2,0.5-0.5
								C94.9,123.4,94.7,123.2,94.4,123.2z"/>
						</g>
					</g>
					<g>
						<g>
							<circle class="st1" cx="98.2" cy="123.7" r="0.6"/>
							<path class="st1" d="M98.2,124.4c-0.4,0-0.7-0.3-0.7-0.7c0-0.4,0.3-0.7,0.7-0.7c0.4,0,0.7,0.3,0.7,0.7
								C98.9,124.1,98.6,124.4,98.2,124.4z M98.2,123.2c-0.3,0-0.5,0.2-0.5,0.5c0,0.3,0.2,0.5,0.5,0.5c0.3,0,0.5-0.2,0.5-0.5
								C98.7,123.4,98.5,123.2,98.2,123.2z"/>
						</g>
					</g>
					<g>
						<g>
							<circle class="st1" cx="102" cy="123.7" r="0.6"/>
							<path class="st1" d="M102,124.4c-0.4,0-0.7-0.3-0.7-0.7c0-0.4,0.3-0.7,0.7-0.7s0.7,0.3,0.7,0.7
								C102.7,124.1,102.4,124.4,102,124.4z M102,123.2c-0.3,0-0.5,0.2-0.5,0.5c0,0.3,0.2,0.5,0.5,0.5s0.5-0.2,0.5-0.5
								C102.5,123.4,102.3,123.2,102,123.2z"/>
						</g>
					</g>
					<g>
						<g>
							<circle class="st1" cx="79.2" cy="128.3" r="0.6"/>
							<path class="st1" d="M79.2,129c-0.4,0-0.7-0.3-0.7-0.7c0-0.4,0.3-0.7,0.7-0.7c0.4,0,0.7,0.3,0.7,0.7
								C79.9,128.7,79.6,129,79.2,129z M79.2,127.8c-0.3,0-0.5,0.2-0.5,0.5c0,0.3,0.2,0.5,0.5,0.5c0.3,0,0.5-0.2,0.5-0.5
								C79.7,128,79.5,127.8,79.2,127.8z"/>
						</g>
					</g>
					<g>
						<g>
							<circle class="st1" cx="83" cy="128.3" r="0.6"/>
							<path class="st1" d="M83,129c-0.4,0-0.7-0.3-0.7-0.7c0-0.4,0.3-0.7,0.7-0.7s0.7,0.3,0.7,0.7C83.7,128.7,83.4,129,83,129z
								 M83,127.8c-0.3,0-0.5,0.2-0.5,0.5c0,0.3,0.2,0.5,0.5,0.5s0.5-0.2,0.5-0.5C83.5,128,83.3,127.8,83,127.8z"/>
						</g>
					</g>
					<g>
						<g>
							<circle class="st1" cx="86.8" cy="128.3" r="0.6"/>
							<path class="st1" d="M86.8,129c-0.4,0-0.7-0.3-0.7-0.7c0-0.4,0.3-0.7,0.7-0.7c0.4,0,0.7,0.3,0.7,0.7
								C87.5,128.7,87.2,129,86.8,129z M86.8,127.8c-0.3,0-0.5,0.2-0.5,0.5c0,0.3,0.2,0.5,0.5,0.5c0.3,0,0.5-0.2,0.5-0.5
								C87.3,128,87.1,127.8,86.8,127.8z"/>
						</g>
					</g>
					<g>
						<g>
							<circle class="st1" cx="90.6" cy="128.3" r="0.6"/>
							<path class="st1" d="M90.6,129c-0.4,0-0.7-0.3-0.7-0.7c0-0.4,0.3-0.7,0.7-0.7s0.7,0.3,0.7,0.7C91.3,128.7,91,129,90.6,129z
								 M90.6,127.8c-0.3,0-0.5,0.2-0.5,0.5c0,0.3,0.2,0.5,0.5,0.5s0.5-0.2,0.5-0.5C91.1,128,90.9,127.8,90.6,127.8z"/>
						</g>
					</g>
					<g>
						<g>
							<circle class="st1" cx="94.4" cy="128.3" r="0.6"/>
							<path class="st1" d="M94.4,129c-0.4,0-0.7-0.3-0.7-0.7c0-0.4,0.3-0.7,0.7-0.7c0.4,0,0.7,0.3,0.7,0.7
								C95.1,128.7,94.8,129,94.4,129z M94.4,127.8c-0.3,0-0.5,0.2-0.5,0.5c0,0.3,0.2,0.5,0.5,0.5c0.3,0,0.5-0.2,0.5-0.5
								C94.9,128,94.7,127.8,94.4,127.8z"/>
						</g>
					</g>
					<g>
						<g>
							<circle class="st1" cx="98.2" cy="128.3" r="0.6"/>
							<path class="st1" d="M98.2,129c-0.4,0-0.7-0.3-0.7-0.7c0-0.4,0.3-0.7,0.7-0.7c0.4,0,0.7,0.3,0.7,0.7
								C98.9,128.7,98.6,129,98.2,129z M98.2,127.8c-0.3,0-0.5,0.2-0.5,0.5c0,0.3,0.2,0.5,0.5,0.5c0.3,0,0.5-0.2,0.5-0.5
								C98.7,128,98.5,127.8,98.2,127.8z"/>
						</g>
					</g>
					<g>
						<g>
							<circle class="st1" cx="102" cy="128.3" r="0.6"/>
							<path class="st1" d="M102,129c-0.4,0-0.7-0.3-0.7-0.7c0-0.4,0.3-0.7,0.7-0.7s0.7,0.3,0.7,0.7C102.7,128.7,102.4,129,102,129z
								 M102,127.8c-0.3,0-0.5,0.2-0.5,0.5c0,0.3,0.2,0.5,0.5,0.5s0.5-0.2,0.5-0.5C102.5,128,102.3,127.8,102,127.8z"/>
						</g>
					</g>
					<g>
						<g>
							<circle class="st1" cx="79.2" cy="132.9" r="0.6"/>
							<path class="st1" d="M79.2,133.6c-0.4,0-0.7-0.3-0.7-0.7c0-0.4,0.3-0.7,0.7-0.7c0.4,0,0.7,0.3,0.7,0.7
								C79.9,133.3,79.6,133.6,79.2,133.6z M79.2,132.4c-0.3,0-0.5,0.2-0.5,0.5c0,0.3,0.2,0.5,0.5,0.5c0.3,0,0.5-0.2,0.5-0.5
								C79.7,132.6,79.5,132.4,79.2,132.4z"/>
						</g>
					</g>
					<g>
						<g>
							<circle class="st1" cx="83" cy="132.9" r="0.6"/>
							<path class="st1" d="M83,133.6c-0.4,0-0.7-0.3-0.7-0.7c0-0.4,0.3-0.7,0.7-0.7s0.7,0.3,0.7,0.7
								C83.7,133.3,83.4,133.6,83,133.6z M83,132.4c-0.3,0-0.5,0.2-0.5,0.5c0,0.3,0.2,0.5,0.5,0.5s0.5-0.2,0.5-0.5
								C83.5,132.6,83.3,132.4,83,132.4z"/>
						</g>
					</g>
					<g>
						<g>
							<circle class="st1" cx="86.8" cy="132.9" r="0.6"/>
							<path class="st1" d="M86.8,133.6c-0.4,0-0.7-0.3-0.7-0.7c0-0.4,0.3-0.7,0.7-0.7c0.4,0,0.7,0.3,0.7,0.7
								C87.5,133.3,87.2,133.6,86.8,133.6z M86.8,132.4c-0.3,0-0.5,0.2-0.5,0.5c0,0.3,0.2,0.5,0.5,0.5c0.3,0,0.5-0.2,0.5-0.5
								C87.3,132.6,87.1,132.4,86.8,132.4z"/>
						</g>
					</g>
					<g>
						<g>
							<circle class="st1" cx="90.6" cy="132.9" r="0.6"/>
							<path class="st1" d="M90.6,133.6c-0.4,0-0.7-0.3-0.7-0.7c0-0.4,0.3-0.7,0.7-0.7s0.7,0.3,0.7,0.7
								C91.3,133.3,91,133.6,90.6,133.6z M90.6,132.4c-0.3,0-0.5,0.2-0.5,0.5c0,0.3,0.2,0.5,0.5,0.5s0.5-0.2,0.5-0.5
								C91.1,132.6,90.9,132.4,90.6,132.4z"/>
						</g>
					</g>
					<g>
						<g>
							<circle class="st1" cx="94.4" cy="132.9" r="0.6"/>
							<path class="st1" d="M94.4,133.6c-0.4,0-0.7-0.3-0.7-0.7c0-0.4,0.3-0.7,0.7-0.7c0.4,0,0.7,0.3,0.7,0.7
								C95.1,133.3,94.8,133.6,94.4,133.6z M94.4,132.4c-0.3,0-0.5,0.2-0.5,0.5c0,0.3,0.2,0.5,0.5,0.5c0.3,0,0.5-0.2,0.5-0.5
								C94.9,132.6,94.7,132.4,94.4,132.4z"/>
						</g>
					</g>
					<g>
						<g>
							<circle class="st1" cx="98.2" cy="132.9" r="0.6"/>
							<path class="st1" d="M98.2,133.6c-0.4,0-0.7-0.3-0.7-0.7c0-0.4,0.3-0.7,0.7-0.7c0.4,0,0.7,0.3,0.7,0.7
								C98.9,133.3,98.6,133.6,98.2,133.6z M98.2,132.4c-0.3,0-0.5,0.2-0.5,0.5c0,0.3,0.2,0.5,0.5,0.5c0.3,0,0.5-0.2,0.5-0.5
								C98.7,132.6,98.5,132.4,98.2,132.4z"/>
						</g>
					</g>
					<g>
						<g>
							<circle class="st1" cx="102" cy="132.9" r="0.6"/>
							<path class="st1" d="M102,133.6c-0.4,0-0.7-0.3-0.7-0.7c0-0.4,0.3-0.7,0.7-0.7s0.7,0.3,0.7,0.7
								C102.7,133.3,102.4,133.6,102,133.6z M102,132.4c-0.3,0-0.5,0.2-0.5,0.5c0,0.3,0.2,0.5,0.5,0.5s0.5-0.2,0.5-0.5
								C102.5,132.6,102.3,132.4,102,132.4z"/>
						</g>
					</g>
					<g>
						<g>
							<circle class="st1" cx="79.2" cy="137.6" r="0.6"/>
							<path class="st1" d="M79.2,138.3c-0.4,0-0.7-0.3-0.7-0.7c0-0.4,0.3-0.7,0.7-0.7c0.4,0,0.7,0.3,0.7,0.7
								C79.9,138,79.6,138.3,79.2,138.3z M79.2,137.1c-0.3,0-0.5,0.2-0.5,0.5c0,0.3,0.2,0.5,0.5,0.5c0.3,0,0.5-0.2,0.5-0.5
								C79.7,137.3,79.5,137.1,79.2,137.1z"/>
						</g>
					</g>
					<g>
						<g>
							<circle class="st1" cx="83" cy="137.6" r="0.6"/>
							<path class="st1" d="M83,138.3c-0.4,0-0.7-0.3-0.7-0.7c0-0.4,0.3-0.7,0.7-0.7s0.7,0.3,0.7,0.7C83.7,138,83.4,138.3,83,138.3z
								 M83,137.1c-0.3,0-0.5,0.2-0.5,0.5c0,0.3,0.2,0.5,0.5,0.5s0.5-0.2,0.5-0.5C83.5,137.3,83.3,137.1,83,137.1z"/>
						</g>
					</g>
					<g>
						<g>
							<circle class="st1" cx="86.8" cy="137.6" r="0.6"/>
							<path class="st1" d="M86.8,138.3c-0.4,0-0.7-0.3-0.7-0.7c0-0.4,0.3-0.7,0.7-0.7c0.4,0,0.7,0.3,0.7,0.7
								C87.5,138,87.2,138.3,86.8,138.3z M86.8,137.1c-0.3,0-0.5,0.2-0.5,0.5c0,0.3,0.2,0.5,0.5,0.5c0.3,0,0.5-0.2,0.5-0.5
								C87.3,137.3,87.1,137.1,86.8,137.1z"/>
						</g>
					</g>
					<g>
						<g>
							<circle class="st1" cx="90.6" cy="137.6" r="0.6"/>
							<path class="st1" d="M90.6,138.3c-0.4,0-0.7-0.3-0.7-0.7c0-0.4,0.3-0.7,0.7-0.7s0.7,0.3,0.7,0.7
								C91.3,138,91,138.3,90.6,138.3z M90.6,137.1c-0.3,0-0.5,0.2-0.5,0.5c0,0.3,0.2,0.5,0.5,0.5s0.5-0.2,0.5-0.5
								C91.1,137.3,90.9,137.1,90.6,137.1z"/>
						</g>
					</g>
					<g>
						<g>
							<circle class="st1" cx="94.4" cy="137.6" r="0.6"/>
							<path class="st1" d="M94.4,138.3c-0.4,0-0.7-0.3-0.7-0.7c0-0.4,0.3-0.7,0.7-0.7c0.4,0,0.7,0.3,0.7,0.7
								C95.1,138,94.8,138.3,94.4,138.3z M94.4,137.1c-0.3,0-0.5,0.2-0.5,0.5c0,0.3,0.2,0.5,0.5,0.5c0.3,0,0.5-0.2,0.5-0.5
								C94.9,137.3,94.7,137.1,94.4,137.1z"/>
						</g>
					</g>
					<g>
						<g>
							<circle class="st1" cx="98.2" cy="137.6" r="0.6"/>
							<path class="st1" d="M98.2,138.3c-0.4,0-0.7-0.3-0.7-0.7c0-0.4,0.3-0.7,0.7-0.7c0.4,0,0.7,0.3,0.7,0.7
								C98.9,138,98.6,138.3,98.2,138.3z M98.2,137.1c-0.3,0-0.5,0.2-0.5,0.5c0,0.3,0.2,0.5,0.5,0.5c0.3,0,0.5-0.2,0.5-0.5
								C98.7,137.3,98.5,137.1,98.2,137.1z"/>
						</g>
					</g>
					<g>
						<g>
							<circle class="st1" cx="102" cy="137.6" r="0.6"/>
							<path class="st1" d="M102,138.3c-0.4,0-0.7-0.3-0.7-0.7c0-0.4,0.3-0.7,0.7-0.7s0.7,0.3,0.7,0.7
								C102.7,138,102.4,138.3,102,138.3z M102,137.1c-0.3,0-0.5,0.2-0.5,0.5c0,0.3,0.2,0.5,0.5,0.5s0.5-0.2,0.5-0.5
								C102.5,137.3,102.3,137.1,102,137.1z"/>
						</g>
					</g>
					<g>
						<g>
							<circle class="st1" cx="79.2" cy="142.2" r="0.6"/>
							<path class="st1" d="M79.2,142.9c-0.4,0-0.7-0.3-0.7-0.7c0-0.4,0.3-0.7,0.7-0.7c0.4,0,0.7,0.3,0.7,0.7
								C79.9,142.6,79.6,142.9,79.2,142.9z M79.2,141.7c-0.3,0-0.5,0.2-0.5,0.5c0,0.3,0.2,0.5,0.5,0.5c0.3,0,0.5-0.2,0.5-0.5
								C79.7,141.9,79.5,141.7,79.2,141.7z"/>
						</g>
					</g>
					<g>
						<g>
							<circle class="st1" cx="83" cy="142.2" r="0.6"/>
							<path class="st1" d="M83,142.9c-0.4,0-0.7-0.3-0.7-0.7c0-0.4,0.3-0.7,0.7-0.7s0.7,0.3,0.7,0.7
								C83.7,142.6,83.4,142.9,83,142.9z M83,141.7c-0.3,0-0.5,0.2-0.5,0.5c0,0.3,0.2,0.5,0.5,0.5s0.5-0.2,0.5-0.5
								C83.5,141.9,83.3,141.7,83,141.7z"/>
						</g>
					</g>
					<g>
						<g>
							<circle class="st1" cx="86.8" cy="142.2" r="0.6"/>
							<path class="st1" d="M86.8,142.9c-0.4,0-0.7-0.3-0.7-0.7c0-0.4,0.3-0.7,0.7-0.7c0.4,0,0.7,0.3,0.7,0.7
								C87.5,142.6,87.2,142.9,86.8,142.9z M86.8,141.7c-0.3,0-0.5,0.2-0.5,0.5c0,0.3,0.2,0.5,0.5,0.5c0.3,0,0.5-0.2,0.5-0.5
								C87.3,141.9,87.1,141.7,86.8,141.7z"/>
						</g>
					</g>
					<g>
						<g>
							<circle class="st1" cx="90.6" cy="142.2" r="0.6"/>
							<path class="st1" d="M90.6,142.9c-0.4,0-0.7-0.3-0.7-0.7c0-0.4,0.3-0.7,0.7-0.7s0.7,0.3,0.7,0.7
								C91.3,142.6,91,142.9,90.6,142.9z M90.6,141.7c-0.3,0-0.5,0.2-0.5,0.5c0,0.3,0.2,0.5,0.5,0.5s0.5-0.2,0.5-0.5
								C91.1,141.9,90.9,141.7,90.6,141.7z"/>
						</g>
					</g>
					<g>
						<g>
							<circle class="st1" cx="94.4" cy="142.2" r="0.6"/>
							<path class="st1" d="M94.4,142.9c-0.4,0-0.7-0.3-0.7-0.7c0-0.4,0.3-0.7,0.7-0.7c0.4,0,0.7,0.3,0.7,0.7
								C95.1,142.6,94.8,142.9,94.4,142.9z M94.4,141.7c-0.3,0-0.5,0.2-0.5,0.5c0,0.3,0.2,0.5,0.5,0.5c0.3,0,0.5-0.2,0.5-0.5
								C94.9,141.9,94.7,141.7,94.4,141.7z"/>
						</g>
					</g>
					<g>
						<g>
							<circle class="st1" cx="98.2" cy="142.2" r="0.6"/>
							<path class="st1" d="M98.2,142.9c-0.4,0-0.7-0.3-0.7-0.7c0-0.4,0.3-0.7,0.7-0.7c0.4,0,0.7,0.3,0.7,0.7
								C98.9,142.6,98.6,142.9,98.2,142.9z M98.2,141.7c-0.3,0-0.5,0.2-0.5,0.5c0,0.3,0.2,0.5,0.5,0.5c0.3,0,0.5-0.2,0.5-0.5
								C98.7,141.9,98.5,141.7,98.2,141.7z"/>
						</g>
					</g>
					<g>
						<g>
							<circle class="st1" cx="102" cy="142.2" r="0.6"/>
							<path class="st1" d="M102,142.9c-0.4,0-0.7-0.3-0.7-0.7c0-0.4,0.3-0.7,0.7-0.7s0.7,0.3,0.7,0.7
								C102.7,142.6,102.4,142.9,102,142.9z M102,141.7c-0.3,0-0.5,0.2-0.5,0.5c0,0.3,0.2,0.5,0.5,0.5s0.5-0.2,0.5-0.5
								C102.5,141.9,102.3,141.7,102,141.7z"/>
						</g>
					</g>
					<g>
						<g>
							<circle class="st1" cx="79.2" cy="146.8" r="0.6"/>
							<path class="st1" d="M79.2,147.5c-0.4,0-0.7-0.3-0.7-0.7c0-0.4,0.3-0.7,0.7-0.7c0.4,0,0.7,0.3,0.7,0.7
								C79.9,147.2,79.6,147.5,79.2,147.5z M79.2,146.3c-0.3,0-0.5,0.2-0.5,0.5c0,0.3,0.2,0.5,0.5,0.5c0.3,0,0.5-0.2,0.5-0.5
								C79.7,146.5,79.5,146.3,79.2,146.3z"/>
						</g>
					</g>
					<g>
						<g>
							<circle class="st1" cx="83" cy="146.8" r="0.6"/>
							<path class="st1" d="M83,147.5c-0.4,0-0.7-0.3-0.7-0.7c0-0.4,0.3-0.7,0.7-0.7s0.7,0.3,0.7,0.7
								C83.7,147.2,83.4,147.5,83,147.5z M83,146.3c-0.3,0-0.5,0.2-0.5,0.5c0,0.3,0.2,0.5,0.5,0.5s0.5-0.2,0.5-0.5
								C83.5,146.5,83.3,146.3,83,146.3z"/>
						</g>
					</g>
					<g>
						<g>
							<circle class="st1" cx="86.8" cy="146.8" r="0.6"/>
							<path class="st1" d="M86.8,147.5c-0.4,0-0.7-0.3-0.7-0.7c0-0.4,0.3-0.7,0.7-0.7c0.4,0,0.7,0.3,0.7,0.7
								C87.5,147.2,87.2,147.5,86.8,147.5z M86.8,146.3c-0.3,0-0.5,0.2-0.5,0.5c0,0.3,0.2,0.5,0.5,0.5c0.3,0,0.5-0.2,0.5-0.5
								C87.3,146.5,87.1,146.3,86.8,146.3z"/>
						</g>
					</g>
					<g>
						<g>
							<circle class="st1" cx="90.6" cy="146.8" r="0.6"/>
							<path class="st1" d="M90.6,147.5c-0.4,0-0.7-0.3-0.7-0.7c0-0.4,0.3-0.7,0.7-0.7s0.7,0.3,0.7,0.7
								C91.3,147.2,91,147.5,90.6,147.5z M90.6,146.3c-0.3,0-0.5,0.2-0.5,0.5c0,0.3,0.2,0.5,0.5,0.5s0.5-0.2,0.5-0.5
								C91.1,146.5,90.9,146.3,90.6,146.3z"/>
						</g>
					</g>
					<g>
						<g>
							<circle class="st1" cx="94.4" cy="146.8" r="0.6"/>
							<path class="st1" d="M94.4,147.5c-0.4,0-0.7-0.3-0.7-0.7c0-0.4,0.3-0.7,0.7-0.7c0.4,0,0.7,0.3,0.7,0.7
								C95.1,147.2,94.8,147.5,94.4,147.5z M94.4,146.3c-0.3,0-0.5,0.2-0.5,0.5c0,0.3,0.2,0.5,0.5,0.5c0.3,0,0.5-0.2,0.5-0.5
								C94.9,146.5,94.7,146.3,94.4,146.3z"/>
						</g>
					</g>
					<g>
						<g>
							<circle class="st1" cx="98.2" cy="146.8" r="0.6"/>
							<path class="st1" d="M98.2,147.5c-0.4,0-0.7-0.3-0.7-0.7c0-0.4,0.3-0.7,0.7-0.7c0.4,0,0.7,0.3,0.7,0.7
								C98.9,147.2,98.6,147.5,98.2,147.5z M98.2,146.3c-0.3,0-0.5,0.2-0.5,0.5c0,0.3,0.2,0.5,0.5,0.5c0.3,0,0.5-0.2,0.5-0.5
								C98.7,146.5,98.5,146.3,98.2,146.3z"/>
						</g>
					</g>
					<g>
						<g>
							<circle class="st1" cx="102" cy="146.8" r="0.6"/>
							<path class="st1" d="M102,147.5c-0.4,0-0.7-0.3-0.7-0.7c0-0.4,0.3-0.7,0.7-0.7s0.7,0.3,0.7,0.7
								C102.7,147.2,102.4,147.5,102,147.5z M102,146.3c-0.3,0-0.5,0.2-0.5,0.5c0,0.3,0.2,0.5,0.5,0.5s0.5-0.2,0.5-0.5
								C102.5,146.5,102.3,146.3,102,146.3z"/>
						</g>
					</g>
					<g>
						<g>
							<circle class="st1" cx="79.2" cy="151.4" r="0.6"/>
							<path class="st1" d="M79.2,152.1c-0.4,0-0.7-0.3-0.7-0.7c0-0.4,0.3-0.7,0.7-0.7c0.4,0,0.7,0.3,0.7,0.7
								C79.9,151.8,79.6,152.1,79.2,152.1z M79.2,150.9c-0.3,0-0.5,0.2-0.5,0.5c0,0.3,0.2,0.5,0.5,0.5c0.3,0,0.5-0.2,0.5-0.5
								C79.7,151.1,79.5,150.9,79.2,150.9z"/>
						</g>
					</g>
					<g>
						<g>
							<circle class="st1" cx="83" cy="151.4" r="0.6"/>
							<path class="st1" d="M83,152.1c-0.4,0-0.7-0.3-0.7-0.7c0-0.4,0.3-0.7,0.7-0.7s0.7,0.3,0.7,0.7
								C83.7,151.8,83.4,152.1,83,152.1z M83,150.9c-0.3,0-0.5,0.2-0.5,0.5c0,0.3,0.2,0.5,0.5,0.5s0.5-0.2,0.5-0.5
								C83.5,151.1,83.3,150.9,83,150.9z"/>
						</g>
					</g>
					<g>
						<g>
							<circle class="st1" cx="86.8" cy="151.4" r="0.6"/>
							<path class="st1" d="M86.8,152.1c-0.4,0-0.7-0.3-0.7-0.7c0-0.4,0.3-0.7,0.7-0.7c0.4,0,0.7,0.3,0.7,0.7
								C87.5,151.8,87.2,152.1,86.8,152.1z M86.8,150.9c-0.3,0-0.5,0.2-0.5,0.5c0,0.3,0.2,0.5,0.5,0.5c0.3,0,0.5-0.2,0.5-0.5
								C87.3,151.1,87.1,150.9,86.8,150.9z"/>
						</g>
					</g>
					<g>
						<g>
							<circle class="st1" cx="90.6" cy="151.4" r="0.6"/>
							<path class="st1" d="M90.6,152.1c-0.4,0-0.7-0.3-0.7-0.7c0-0.4,0.3-0.7,0.7-0.7s0.7,0.3,0.7,0.7
								C91.3,151.8,91,152.1,90.6,152.1z M90.6,150.9c-0.3,0-0.5,0.2-0.5,0.5c0,0.3,0.2,0.5,0.5,0.5s0.5-0.2,0.5-0.5
								C91.1,151.1,90.9,150.9,90.6,150.9z"/>
						</g>
					</g>
					<g>
						<g>
							<circle class="st1" cx="94.4" cy="151.4" r="0.6"/>
							<path class="st1" d="M94.4,152.1c-0.4,0-0.7-0.3-0.7-0.7c0-0.4,0.3-0.7,0.7-0.7c0.4,0,0.7,0.3,0.7,0.7
								C95.1,151.8,94.8,152.1,94.4,152.1z M94.4,150.9c-0.3,0-0.5,0.2-0.5,0.5c0,0.3,0.2,0.5,0.5,0.5c0.3,0,0.5-0.2,0.5-0.5
								C94.9,151.1,94.7,150.9,94.4,150.9z"/>
						</g>
					</g>
					<g>
						<g>
							<circle class="st1" cx="98.2" cy="151.4" r="0.6"/>
							<path class="st1" d="M98.2,152.1c-0.4,0-0.7-0.3-0.7-0.7c0-0.4,0.3-0.7,0.7-0.7c0.4,0,0.7,0.3,0.7,0.7
								C98.9,151.8,98.6,152.1,98.2,152.1z M98.2,150.9c-0.3,0-0.5,0.2-0.5,0.5c0,0.3,0.2,0.5,0.5,0.5c0.3,0,0.5-0.2,0.5-0.5
								C98.7,151.1,98.5,150.9,98.2,150.9z"/>
						</g>
					</g>
					<g>
						<g>
							<circle class="st1" cx="102" cy="151.4" r="0.6"/>
							<path class="st1" d="M102,152.1c-0.4,0-0.7-0.3-0.7-0.7c0-0.4,0.3-0.7,0.7-0.7s0.7,0.3,0.7,0.7
								C102.7,151.8,102.4,152.1,102,152.1z M102,150.9c-0.3,0-0.5,0.2-0.5,0.5c0,0.3,0.2,0.5,0.5,0.5s0.5-0.2,0.5-0.5
								C102.5,151.1,102.3,150.9,102,150.9z"/>
						</g>
					</g>
					<g>
						<g>
							<circle class="st1" cx="79.2" cy="156" r="0.6"/>
							<path class="st1" d="M79.2,156.7c-0.4,0-0.7-0.3-0.7-0.7s0.3-0.7,0.7-0.7c0.4,0,0.7,0.3,0.7,0.7S79.6,156.7,79.2,156.7z
								 M79.2,155.5c-0.3,0-0.5,0.2-0.5,0.5s0.2,0.5,0.5,0.5c0.3,0,0.5-0.2,0.5-0.5S79.5,155.5,79.2,155.5z"/>
						</g>
					</g>
					<g>
						<g>
							<circle class="st1" cx="83" cy="156" r="0.6"/>
							<path class="st1" d="M83,156.7c-0.4,0-0.7-0.3-0.7-0.7s0.3-0.7,0.7-0.7s0.7,0.3,0.7,0.7S83.4,156.7,83,156.7z M83,155.5
								c-0.3,0-0.5,0.2-0.5,0.5s0.2,0.5,0.5,0.5s0.5-0.2,0.5-0.5S83.3,155.5,83,155.5z"/>
						</g>
					</g>
					<g>
						<g>
							<circle class="st1" cx="86.8" cy="156" r="0.6"/>
							<path class="st1" d="M86.8,156.7c-0.4,0-0.7-0.3-0.7-0.7s0.3-0.7,0.7-0.7c0.4,0,0.7,0.3,0.7,0.7S87.2,156.7,86.8,156.7z
								 M86.8,155.5c-0.3,0-0.5,0.2-0.5,0.5s0.2,0.5,0.5,0.5c0.3,0,0.5-0.2,0.5-0.5S87.1,155.5,86.8,155.5z"/>
						</g>
					</g>
					<g>
						<g>
							<circle class="st1" cx="90.6" cy="156" r="0.6"/>
							<path class="st1" d="M90.6,156.7c-0.4,0-0.7-0.3-0.7-0.7s0.3-0.7,0.7-0.7s0.7,0.3,0.7,0.7S91,156.7,90.6,156.7z M90.6,155.5
								c-0.3,0-0.5,0.2-0.5,0.5s0.2,0.5,0.5,0.5s0.5-0.2,0.5-0.5S90.9,155.5,90.6,155.5z"/>
						</g>
					</g>
					<g>
						<g>
							<circle class="st1" cx="94.4" cy="156" r="0.6"/>
							<path class="st1" d="M94.4,156.7c-0.4,0-0.7-0.3-0.7-0.7s0.3-0.7,0.7-0.7c0.4,0,0.7,0.3,0.7,0.7S94.8,156.7,94.4,156.7z
								 M94.4,155.5c-0.3,0-0.5,0.2-0.5,0.5s0.2,0.5,0.5,0.5c0.3,0,0.5-0.2,0.5-0.5S94.7,155.5,94.4,155.5z"/>
						</g>
					</g>
					<g>
						<g>
							<circle class="st1" cx="98.2" cy="156" r="0.6"/>
							<path class="st1" d="M98.2,156.7c-0.4,0-0.7-0.3-0.7-0.7s0.3-0.7,0.7-0.7c0.4,0,0.7,0.3,0.7,0.7S98.6,156.7,98.2,156.7z
								 M98.2,155.5c-0.3,0-0.5,0.2-0.5,0.5s0.2,0.5,0.5,0.5c0.3,0,0.5-0.2,0.5-0.5S98.5,155.5,98.2,155.5z"/>
						</g>
					</g>
					<g>
						<g>
							<circle class="st1" cx="102" cy="156" r="0.6"/>
							<path class="st1" d="M102,156.7c-0.4,0-0.7-0.3-0.7-0.7s0.3-0.7,0.7-0.7s0.7,0.3,0.7,0.7S102.4,156.7,102,156.7z M102,155.5
								c-0.3,0-0.5,0.2-0.5,0.5s0.2,0.5,0.5,0.5s0.5-0.2,0.5-0.5S102.3,155.5,102,155.5z"/>
						</g>
					</g>
					<g>
						<g>
							<circle class="st1" cx="79.2" cy="160.6" r="0.6"/>
							<path class="st1" d="M79.2,161.3c-0.4,0-0.7-0.3-0.7-0.7c0-0.4,0.3-0.7,0.7-0.7c0.4,0,0.7,0.3,0.7,0.7
								C79.9,161,79.6,161.3,79.2,161.3z M79.2,160.1c-0.3,0-0.5,0.2-0.5,0.5c0,0.3,0.2,0.5,0.5,0.5c0.3,0,0.5-0.2,0.5-0.5
								C79.7,160.3,79.5,160.1,79.2,160.1z"/>
						</g>
					</g>
					<g>
						<g>
							<circle class="st1" cx="83" cy="160.6" r="0.6"/>
							<path class="st1" d="M83,161.3c-0.4,0-0.7-0.3-0.7-0.7c0-0.4,0.3-0.7,0.7-0.7s0.7,0.3,0.7,0.7C83.7,161,83.4,161.3,83,161.3z
								 M83,160.1c-0.3,0-0.5,0.2-0.5,0.5c0,0.3,0.2,0.5,0.5,0.5s0.5-0.2,0.5-0.5C83.5,160.3,83.3,160.1,83,160.1z"/>
						</g>
					</g>
					<g>
						<g>
							<circle class="st1" cx="86.8" cy="160.6" r="0.6"/>
							<path class="st1" d="M86.8,161.3c-0.4,0-0.7-0.3-0.7-0.7c0-0.4,0.3-0.7,0.7-0.7c0.4,0,0.7,0.3,0.7,0.7
								C87.5,161,87.2,161.3,86.8,161.3z M86.8,160.1c-0.3,0-0.5,0.2-0.5,0.5c0,0.3,0.2,0.5,0.5,0.5c0.3,0,0.5-0.2,0.5-0.5
								C87.3,160.3,87.1,160.1,86.8,160.1z"/>
						</g>
					</g>
					<g>
						<g>
							<circle class="st1" cx="90.6" cy="160.6" r="0.6"/>
							<path class="st1" d="M90.6,161.3c-0.4,0-0.7-0.3-0.7-0.7c0-0.4,0.3-0.7,0.7-0.7s0.7,0.3,0.7,0.7
								C91.3,161,91,161.3,90.6,161.3z M90.6,160.1c-0.3,0-0.5,0.2-0.5,0.5c0,0.3,0.2,0.5,0.5,0.5s0.5-0.2,0.5-0.5
								C91.1,160.3,90.9,160.1,90.6,160.1z"/>
						</g>
					</g>
					<g>
						<g>
							<circle class="st1" cx="94.4" cy="160.6" r="0.6"/>
							<path class="st1" d="M94.4,161.3c-0.4,0-0.7-0.3-0.7-0.7c0-0.4,0.3-0.7,0.7-0.7c0.4,0,0.7,0.3,0.7,0.7
								C95.1,161,94.8,161.3,94.4,161.3z M94.4,160.1c-0.3,0-0.5,0.2-0.5,0.5c0,0.3,0.2,0.5,0.5,0.5c0.3,0,0.5-0.2,0.5-0.5
								C94.9,160.3,94.7,160.1,94.4,160.1z"/>
						</g>
					</g>
					<g>
						<g>
							<circle class="st1" cx="98.2" cy="160.6" r="0.6"/>
							<path class="st1" d="M98.2,161.3c-0.4,0-0.7-0.3-0.7-0.7c0-0.4,0.3-0.7,0.7-0.7c0.4,0,0.7,0.3,0.7,0.7
								C98.9,161,98.6,161.3,98.2,161.3z M98.2,160.1c-0.3,0-0.5,0.2-0.5,0.5c0,0.3,0.2,0.5,0.5,0.5c0.3,0,0.5-0.2,0.5-0.5
								C98.7,160.3,98.5,160.1,98.2,160.1z"/>
						</g>
					</g>
					<g>
						<g>
							<circle class="st1" cx="102" cy="160.6" r="0.6"/>
							<path class="st1" d="M102,161.3c-0.4,0-0.7-0.3-0.7-0.7c0-0.4,0.3-0.7,0.7-0.7s0.7,0.3,0.7,0.7
								C102.7,161,102.4,161.3,102,161.3z M102,160.1c-0.3,0-0.5,0.2-0.5,0.5c0,0.3,0.2,0.5,0.5,0.5s0.5-0.2,0.5-0.5
								C102.5,160.3,102.3,160.1,102,160.1z"/>
						</g>
					</g>
					<g>
						<g>
							<circle class="st1" cx="79.2" cy="165.3" r="0.6"/>
							<path class="st1" d="M79.2,166c-0.4,0-0.7-0.3-0.7-0.7c0-0.4,0.3-0.7,0.7-0.7c0.4,0,0.7,0.3,0.7,0.7
								C79.9,165.7,79.6,166,79.2,166z M79.2,164.8c-0.3,0-0.5,0.2-0.5,0.5c0,0.3,0.2,0.5,0.5,0.5c0.3,0,0.5-0.2,0.5-0.5
								C79.7,165,79.5,164.8,79.2,164.8z"/>
						</g>
					</g>
					<g>
						<g>
							<circle class="st1" cx="83" cy="165.3" r="0.6"/>
							<path class="st1" d="M83,166c-0.4,0-0.7-0.3-0.7-0.7c0-0.4,0.3-0.7,0.7-0.7s0.7,0.3,0.7,0.7C83.7,165.7,83.4,166,83,166z
								 M83,164.8c-0.3,0-0.5,0.2-0.5,0.5c0,0.3,0.2,0.5,0.5,0.5s0.5-0.2,0.5-0.5C83.5,165,83.3,164.8,83,164.8z"/>
						</g>
					</g>
					<g>
						<g>
							<circle class="st1" cx="86.8" cy="165.3" r="0.6"/>
							<path class="st1" d="M86.8,166c-0.4,0-0.7-0.3-0.7-0.7c0-0.4,0.3-0.7,0.7-0.7c0.4,0,0.7,0.3,0.7,0.7
								C87.5,165.7,87.2,166,86.8,166z M86.8,164.8c-0.3,0-0.5,0.2-0.5,0.5c0,0.3,0.2,0.5,0.5,0.5c0.3,0,0.5-0.2,0.5-0.5
								C87.3,165,87.1,164.8,86.8,164.8z"/>
						</g>
					</g>
					<g>
						<g>
							<circle class="st1" cx="90.6" cy="165.3" r="0.6"/>
							<path class="st1" d="M90.6,166c-0.4,0-0.7-0.3-0.7-0.7c0-0.4,0.3-0.7,0.7-0.7s0.7,0.3,0.7,0.7C91.3,165.7,91,166,90.6,166z
								 M90.6,164.8c-0.3,0-0.5,0.2-0.5,0.5c0,0.3,0.2,0.5,0.5,0.5s0.5-0.2,0.5-0.5C91.1,165,90.9,164.8,90.6,164.8z"/>
						</g>
					</g>
					<g>
						<g>
							<circle class="st1" cx="94.4" cy="165.3" r="0.6"/>
							<path class="st1" d="M94.4,166c-0.4,0-0.7-0.3-0.7-0.7c0-0.4,0.3-0.7,0.7-0.7c0.4,0,0.7,0.3,0.7,0.7
								C95.1,165.7,94.8,166,94.4,166z M94.4,164.8c-0.3,0-0.5,0.2-0.5,0.5c0,0.3,0.2,0.5,0.5,0.5c0.3,0,0.5-0.2,0.5-0.5
								C94.9,165,94.7,164.8,94.4,164.8z"/>
						</g>
					</g>
					<g>
						<g>
							<circle class="st1" cx="98.2" cy="165.3" r="0.6"/>
							<path class="st1" d="M98.2,166c-0.4,0-0.7-0.3-0.7-0.7c0-0.4,0.3-0.7,0.7-0.7c0.4,0,0.7,0.3,0.7,0.7
								C98.9,165.7,98.6,166,98.2,166z M98.2,164.8c-0.3,0-0.5,0.2-0.5,0.5c0,0.3,0.2,0.5,0.5,0.5c0.3,0,0.5-0.2,0.5-0.5
								C98.7,165,98.5,164.8,98.2,164.8z"/>
						</g>
					</g>
					<g>
						<g>
							<circle class="st1" cx="102" cy="165.3" r="0.6"/>
							<path class="st1" d="M102,166c-0.4,0-0.7-0.3-0.7-0.7c0-0.4,0.3-0.7,0.7-0.7s0.7,0.3,0.7,0.7C102.7,165.7,102.4,166,102,166z
								 M102,164.8c-0.3,0-0.5,0.2-0.5,0.5c0,0.3,0.2,0.5,0.5,0.5s0.5-0.2,0.5-0.5C102.5,165,102.3,164.8,102,164.8z"/>
						</g>
					</g>
				</g>
			</g>
		</g>
	</g>
</g>
</svg>
