<?xml version="1.0" encoding="utf-8"?>
<!-- Generator: Adobe Illustrator 22.1.0, SVG Export Plug-In . SVG Version: 6.00 Build 0)  -->
<svg version="1.1" id="Layer_1" xmlns="http://www.w3.org/2000/svg" xmlns:xlink="http://www.w3.org/1999/xlink" x="0px" y="0px"
	 viewBox="0 0 122.7 116.1" style="enable-background:new 0 0 122.7 116.1;" xml:space="preserve">
<style type="text/css">
	.st0{fill:none;stroke:#000000;stroke-width:0;stroke-miterlimit:0;}
	.st1{fill:#D8D8D8;}
	.st2{fill:#FFFFFF;}
	.st3{fill:#40404F;}
	.st4{fill:#668EFF;}
	.st5{fill:#00DFD3;}
</style>
<g>
	<g>
		<rect x="-0.2" y="0.2" class="st0" width="122.7" height="116.1"/>
	</g>
	<g>
		<g>
			<rect x="-0.2" y="3.8" class="st1" width="90.3" height="112.5"/>
		</g>
		<g>
			<rect x="2.8" y="1.2" class="st2" width="90.3" height="112.1"/>
			<path class="st3" d="M94.1,114.3H1.8V0.2h92.3V114.3z M3.8,112.3h88.3V2.2H3.8V112.3z"/>
		</g>
		<g>
			<g>
				<g>
					<path class="st1" d="M18.4,82.8h-7.6v-7.4h7.6V82.8z M11,82.6h7.3v-7.1H11V82.6z"/>
				</g>
				<g>
					<path class="st1" d="M25.8,82.8h-7.6v-7.4h7.6V82.8z M18.4,82.6h7.3v-7.1h-7.3V82.6z"/>
				</g>
				<g>
					<path class="st1" d="M33.2,82.8h-7.6v-7.4h7.6V82.8z M25.8,82.6h7.3v-7.1h-7.3V82.6z"/>
				</g>
				<g>
					<path class="st1" d="M40.6,82.8h-7.6v-7.4h7.6V82.8z M33.2,82.6h7.3v-7.1h-7.3V82.6z"/>
				</g>
				<g>
					<path class="st1" d="M48,82.8h-7.6v-7.4H48V82.8z M40.6,82.6h7.3v-7.1h-7.3V82.6z"/>
				</g>
				<g>
					<path class="st1" d="M55.5,82.8h-7.6v-7.4h7.6V82.8z M48,82.6h7.3v-7.1H48V82.6z"/>
				</g>
				<g>
					<path class="st1" d="M62.9,82.8h-7.6v-7.4h7.6V82.8z M55.5,82.6h7.3v-7.1h-7.3V82.6z"/>
				</g>
				<g>
					<path class="st1" d="M70.3,82.8h-7.6v-7.4h7.6V82.8z M62.9,82.6h7.3v-7.1h-7.3V82.6z"/>
				</g>
				<g>
					<path class="st1" d="M18.4,90.1h-7.6v-7.4h7.6V90.1z M11,89.9h7.3v-7.1H11V89.9z"/>
				</g>
				<g>
					<path class="st1" d="M25.8,90.1h-7.6v-7.4h7.6V90.1z M18.4,89.9h7.3v-7.1h-7.3V89.9z"/>
				</g>
				<g>
					<path class="st1" d="M33.2,90.1h-7.6v-7.4h7.6V90.1z M25.8,89.9h7.3v-7.1h-7.3V89.9z"/>
				</g>
				<g>
					<path class="st1" d="M40.6,90.1h-7.6v-7.4h7.6V90.1z M33.2,89.9h7.3v-7.1h-7.3V89.9z"/>
				</g>
				<g>
					<path class="st1" d="M48,90.1h-7.6v-7.4H48V90.1z M40.6,89.9h7.3v-7.1h-7.3V89.9z"/>
				</g>
				<g>
					<path class="st1" d="M55.5,90.1h-7.6v-7.4h7.6V90.1z M48,89.9h7.3v-7.1H48V89.9z"/>
				</g>
				<g>
					<path class="st1" d="M62.9,90.1h-7.6v-7.4h7.6V90.1z M55.5,89.9h7.3v-7.1h-7.3V89.9z"/>
				</g>
				<g>
					<path class="st1" d="M70.3,90.1h-7.6v-7.4h7.6V90.1z M62.9,89.9h7.3v-7.1h-7.3V89.9z"/>
				</g>
				<g>
					<path class="st1" d="M18.4,68.2h-7.6v-7.4h7.6V68.2z M11,68h7.3v-7.1H11V68z"/>
				</g>
				<g>
					<path class="st1" d="M25.8,68.2h-7.6v-7.4h7.6V68.2z M18.4,68h7.3v-7.1h-7.3V68z"/>
				</g>
				<g>
					<path class="st1" d="M33.2,68.2h-7.6v-7.4h7.6V68.2z M25.8,68h7.3v-7.1h-7.3V68z"/>
				</g>
				<g>
					<path class="st1" d="M40.6,68.2h-7.6v-7.4h7.6V68.2z M33.2,68h7.3v-7.1h-7.3V68z"/>
				</g>
				<g>
					<path class="st1" d="M48,68.2h-7.6v-7.4H48V68.2z M40.6,68h7.3v-7.1h-7.3V68z"/>
				</g>
				<g>
					<path class="st1" d="M55.5,68.2h-7.6v-7.4h7.6V68.2z M48,68h7.3v-7.1H48V68z"/>
				</g>
				<g>
					<path class="st1" d="M62.9,68.2h-7.6v-7.4h7.6V68.2z M55.5,68h7.3v-7.1h-7.3V68z"/>
				</g>
				<g>
					<path class="st1" d="M70.3,68.2h-7.6v-7.4h7.6V68.2z M62.9,68h7.3v-7.1h-7.3V68z"/>
				</g>
				<g>
					<path class="st1" d="M18.4,75.5h-7.6V68h7.6V75.5z M11,75.3h7.3v-7.1H11V75.3z"/>
				</g>
				<g>
					<path class="st1" d="M25.8,75.5h-7.6V68h7.6V75.5z M18.4,75.3h7.3v-7.1h-7.3V75.3z"/>
				</g>
				<g>
					<path class="st1" d="M33.2,75.5h-7.6V68h7.6V75.5z M25.8,75.3h7.3v-7.1h-7.3V75.3z"/>
				</g>
				<g>
					<path class="st1" d="M40.6,75.5h-7.6V68h7.6V75.5z M33.2,75.3h7.3v-7.1h-7.3V75.3z"/>
				</g>
				<g>
					<path class="st1" d="M48,75.5h-7.6V68H48V75.5z M40.6,75.3h7.3v-7.1h-7.3V75.3z"/>
				</g>
				<g>
					<path class="st1" d="M55.5,75.5h-7.6V68h7.6V75.5z M48,75.3h7.3v-7.1H48V75.3z"/>
				</g>
				<g>
					<path class="st1" d="M62.9,75.5h-7.6V68h7.6V75.5z M55.5,75.3h7.3v-7.1h-7.3V75.3z"/>
				</g>
				<g>
					<path class="st1" d="M70.3,75.5h-7.6V68h7.6V75.5z M62.9,75.3h7.3v-7.1h-7.3V75.3z"/>
				</g>
				<g>
					<path class="st1" d="M18.4,53.7h-7.6v-7.4h7.6V53.7z M11,53.5h7.3v-7.1H11V53.5z"/>
				</g>
				<g>
					<path class="st1" d="M25.8,53.7h-7.6v-7.4h7.6V53.7z M18.4,53.5h7.3v-7.1h-7.3V53.5z"/>
				</g>
				<g>
					<path class="st1" d="M33.2,53.7h-7.6v-7.4h7.6V53.7z M25.8,53.5h7.3v-7.1h-7.3V53.5z"/>
				</g>
				<g>
					<path class="st1" d="M40.6,53.7h-7.6v-7.4h7.6V53.7z M33.2,53.5h7.3v-7.1h-7.3V53.5z"/>
				</g>
				<g>
					<path class="st1" d="M48,53.7h-7.6v-7.4H48V53.7z M40.6,53.5h7.3v-7.1h-7.3V53.5z"/>
				</g>
				<g>
					<path class="st1" d="M55.5,53.7h-7.6v-7.4h7.6V53.7z M48,53.5h7.3v-7.1H48V53.5z"/>
				</g>
				<g>
					<path class="st1" d="M62.9,53.7h-7.6v-7.4h7.6V53.7z M55.5,53.5h7.3v-7.1h-7.3V53.5z"/>
				</g>
				<g>
					<path class="st1" d="M70.3,53.7h-7.6v-7.4h7.6V53.7z M62.9,53.5h7.3v-7.1h-7.3V53.5z"/>
				</g>
				<g>
					<path class="st1" d="M18.4,60.9h-7.6v-7.4h7.6V60.9z M11,60.8h7.3v-7.1H11V60.8z"/>
				</g>
				<g>
					<path class="st1" d="M25.8,60.9h-7.6v-7.4h7.6V60.9z M18.4,60.8h7.3v-7.1h-7.3V60.8z"/>
				</g>
				<g>
					<path class="st1" d="M33.2,60.9h-7.6v-7.4h7.6V60.9z M25.8,60.8h7.3v-7.1h-7.3V60.8z"/>
				</g>
				<g>
					<path class="st1" d="M40.6,60.9h-7.6v-7.4h7.6V60.9z M33.2,60.8h7.3v-7.1h-7.3V60.8z"/>
				</g>
				<g>
					<path class="st1" d="M48,60.9h-7.6v-7.4H48V60.9z M40.6,60.8h7.3v-7.1h-7.3V60.8z"/>
				</g>
				<g>
					<path class="st1" d="M55.5,60.9h-7.6v-7.4h7.6V60.9z M48,60.8h7.3v-7.1H48V60.8z"/>
				</g>
				<g>
					<path class="st1" d="M62.9,60.9h-7.6v-7.4h7.6V60.9z M55.5,60.8h7.3v-7.1h-7.3V60.8z"/>
				</g>
				<g>
					<path class="st1" d="M70.3,60.9h-7.6v-7.4h7.6V60.9z M62.9,60.8h7.3v-7.1h-7.3V60.8z"/>
				</g>
				<g>
					<path class="st1" d="M18.4,39.1h-7.6v-7.4h7.6V39.1z M11,38.9h7.3v-7.1H11V38.9z"/>
				</g>
				<g>
					<path class="st1" d="M25.8,39.1h-7.6v-7.4h7.6V39.1z M18.4,38.9h7.3v-7.1h-7.3V38.9z"/>
				</g>
				<g>
					<path class="st1" d="M33.2,39.1h-7.6v-7.4h7.6V39.1z M25.8,38.9h7.3v-7.1h-7.3V38.9z"/>
				</g>
				<g>
					<path class="st1" d="M40.6,39.1h-7.6v-7.4h7.6V39.1z M33.2,38.9h7.3v-7.1h-7.3V38.9z"/>
				</g>
				<g>
					<path class="st1" d="M48,39.1h-7.6v-7.4H48V39.1z M40.6,38.9h7.3v-7.1h-7.3V38.9z"/>
				</g>
				<g>
					<path class="st1" d="M55.5,39.1h-7.6v-7.4h7.6V39.1z M48,38.9h7.3v-7.1H48V38.9z"/>
				</g>
				<g>
					<path class="st1" d="M62.9,39.1h-7.6v-7.4h7.6V39.1z M55.5,38.9h7.3v-7.1h-7.3V38.9z"/>
				</g>
				<g>
					<path class="st1" d="M70.3,39.1h-7.6v-7.4h7.6V39.1z M62.9,38.9h7.3v-7.1h-7.3V38.9z"/>
				</g>
				<g>
					<path class="st1" d="M18.4,46.4h-7.6v-7.4h7.6V46.4z M11,46.2h7.3v-7.1H11V46.2z"/>
				</g>
				<g>
					<path class="st1" d="M25.8,46.4h-7.6v-7.4h7.6V46.4z M18.4,46.2h7.3v-7.1h-7.3V46.2z"/>
				</g>
				<g>
					<path class="st1" d="M33.2,46.4h-7.6v-7.4h7.6V46.4z M25.8,46.2h7.3v-7.1h-7.3V46.2z"/>
				</g>
				<g>
					<path class="st1" d="M40.6,46.4h-7.6v-7.4h7.6V46.4z M33.2,46.2h7.3v-7.1h-7.3V46.2z"/>
				</g>
				<g>
					<path class="st1" d="M48,46.4h-7.6v-7.4H48V46.4z M40.6,46.2h7.3v-7.1h-7.3V46.2z"/>
				</g>
				<g>
					<path class="st1" d="M55.5,46.4h-7.6v-7.4h7.6V46.4z M48,46.2h7.3v-7.1H48V46.2z"/>
				</g>
				<g>
					<path class="st1" d="M62.9,46.4h-7.6v-7.4h7.6V46.4z M55.5,46.2h7.3v-7.1h-7.3V46.2z"/>
				</g>
				<g>
					<path class="st1" d="M70.3,46.4h-7.6v-7.4h7.6V46.4z M62.9,46.2h7.3v-7.1h-7.3V46.2z"/>
				</g>
				<g>
					<path class="st1" d="M77.7,82.8h-7.6v-7.4h7.6V82.8z M70.3,82.6h7.3v-7.1h-7.3V82.6z"/>
				</g>
				<g>
					<path class="st1" d="M85.2,82.8h-7.6v-7.4h7.6V82.8z M77.7,82.6H85v-7.1h-7.3V82.6z"/>
				</g>
				<g>
					<path class="st1" d="M77.7,90.1h-7.6v-7.4h7.6V90.1z M70.3,89.9h7.3v-7.1h-7.3V89.9z"/>
				</g>
				<g>
					<path class="st1" d="M85.2,90.1h-7.6v-7.4h7.6V90.1z M77.7,89.9H85v-7.1h-7.3V89.9z"/>
				</g>
				<g>
					<path class="st1" d="M77.7,68.2h-7.6v-7.4h7.6V68.2z M70.3,68h7.3v-7.1h-7.3V68z"/>
				</g>
				<g>
					<path class="st1" d="M85.2,68.2h-7.6v-7.4h7.6V68.2z M77.7,68H85v-7.1h-7.3V68z"/>
				</g>
				<g>
					<path class="st1" d="M77.7,75.5h-7.6V68h7.6V75.5z M70.3,75.3h7.3v-7.1h-7.3V75.3z"/>
				</g>
				<g>
					<path class="st1" d="M85.2,75.5h-7.6V68h7.6V75.5z M77.7,75.3H85v-7.1h-7.3V75.3z"/>
				</g>
				<g>
					<path class="st1" d="M77.7,53.7h-7.6v-7.4h7.6V53.7z M70.3,53.5h7.3v-7.1h-7.3V53.5z"/>
				</g>
				<g>
					<path class="st1" d="M85.2,53.7h-7.6v-7.4h7.6V53.7z M77.7,53.5H85v-7.1h-7.3V53.5z"/>
				</g>
				<g>
					<path class="st1" d="M77.7,60.9h-7.6v-7.4h7.6V60.9z M70.3,60.8h7.3v-7.1h-7.3V60.8z"/>
				</g>
				<g>
					<path class="st1" d="M85.2,60.9h-7.6v-7.4h7.6V60.9z M77.7,60.8H85v-7.1h-7.3V60.8z"/>
				</g>
				<g>
					<path class="st1" d="M77.7,39.1h-7.6v-7.4h7.6V39.1z M70.3,38.9h7.3v-7.1h-7.3V38.9z"/>
				</g>
				<g>
					<path class="st1" d="M85.2,39.1h-7.6v-7.4h7.6V39.1z M77.7,38.9H85v-7.1h-7.3V38.9z"/>
				</g>
				<g>
					<path class="st1" d="M77.7,46.4h-7.6v-7.4h7.6V46.4z M70.3,46.2h7.3v-7.1h-7.3V46.2z"/>
				</g>
				<g>
					<path class="st1" d="M85.2,46.4h-7.6v-7.4h7.6V46.4z M77.7,46.2H85v-7.1h-7.3V46.2z"/>
				</g>
				<g>
					<path class="st1" d="M18.4,97.3h-7.6v-7.4h7.6V97.3z M11,97.2h7.3v-7.1H11V97.2z"/>
				</g>
				<g>
					<path class="st1" d="M25.8,97.3h-7.6v-7.4h7.6V97.3z M18.4,97.2h7.3v-7.1h-7.3V97.2z"/>
				</g>
				<g>
					<path class="st1" d="M33.2,97.3h-7.6v-7.4h7.6V97.3z M25.8,97.2h7.3v-7.1h-7.3V97.2z"/>
				</g>
				<g>
					<path class="st1" d="M40.6,97.3h-7.6v-7.4h7.6V97.3z M33.2,97.2h7.3v-7.1h-7.3V97.2z"/>
				</g>
				<g>
					<path class="st1" d="M48,97.3h-7.6v-7.4H48V97.3z M40.6,97.2h7.3v-7.1h-7.3V97.2z"/>
				</g>
				<g>
					<path class="st1" d="M55.5,97.3h-7.6v-7.4h7.6V97.3z M48,97.2h7.3v-7.1H48V97.2z"/>
				</g>
				<g>
					<path class="st1" d="M62.9,97.3h-7.6v-7.4h7.6V97.3z M55.5,97.2h7.3v-7.1h-7.3V97.2z"/>
				</g>
				<g>
					<path class="st1" d="M70.3,97.3h-7.6v-7.4h7.6V97.3z M62.9,97.2h7.3v-7.1h-7.3V97.2z"/>
				</g>
				<g>
					<path class="st1" d="M18.4,104.6h-7.6v-7.4h7.6V104.6z M11,104.5h7.3v-7.1H11V104.5z"/>
				</g>
				<g>
					<path class="st1" d="M25.8,104.6h-7.6v-7.4h7.6V104.6z M18.4,104.5h7.3v-7.1h-7.3V104.5z"/>
				</g>
				<g>
					<path class="st1" d="M33.2,104.6h-7.6v-7.4h7.6V104.6z M25.8,104.5h7.3v-7.1h-7.3V104.5z"/>
				</g>
				<g>
					<path class="st1" d="M40.6,104.6h-7.6v-7.4h7.6V104.6z M33.2,104.5h7.3v-7.1h-7.3V104.5z"/>
				</g>
				<g>
					<path class="st1" d="M48,104.6h-7.6v-7.4H48V104.6z M40.6,104.5h7.3v-7.1h-7.3V104.5z"/>
				</g>
				<g>
					<path class="st1" d="M55.5,104.6h-7.6v-7.4h7.6V104.6z M48,104.5h7.3v-7.1H48V104.5z"/>
				</g>
				<g>
					<path class="st1" d="M62.9,104.6h-7.6v-7.4h7.6V104.6z M55.5,104.5h7.3v-7.1h-7.3V104.5z"/>
				</g>
				<g>
					<path class="st1" d="M70.3,104.6h-7.6v-7.4h7.6V104.6z M62.9,104.5h7.3v-7.1h-7.3V104.5z"/>
				</g>
				<g>
					<path class="st1" d="M77.7,97.3h-7.6v-7.4h7.6V97.3z M70.3,97.2h7.3v-7.1h-7.3V97.2z"/>
				</g>
				<g>
					<path class="st1" d="M85.2,97.3h-7.6v-7.4h7.6V97.3z M77.7,97.2H85v-7.1h-7.3V97.2z"/>
				</g>
				<g>
					<path class="st1" d="M77.7,104.6h-7.6v-7.4h7.6V104.6z M70.3,104.5h7.3v-7.1h-7.3V104.5z"/>
				</g>
				<g>
					<path class="st1" d="M85.2,104.6h-7.6v-7.4h7.6V104.6z M77.7,104.5H85v-7.1h-7.3V104.5z"/>
				</g>
			</g>
		</g>
		<g>
			<g>
				<path class="st3" d="M15.8,101.1l-0.5-2C42.1,92,49,77,55.6,62.5C60.9,51,65.9,40.1,80.8,35.4l0.6,2c-14,4.4-18.6,14.4-23.9,26
					C51,77.6,43.6,93.7,15.8,101.1z"/>
			</g>
			<g>
				<path class="st4" d="M15.6,100.3l-0.1-0.5c27.2-7.2,34.5-23,40.9-37c5.2-11.3,10.1-22,24.7-26.6l0.2,0.5
					C66.9,41.2,62,51.8,56.8,63C50.3,77.1,43,93,15.6,100.3z"/>
			</g>
			<g>
				<line class="st2" x1="80.7" y1="36.6" x2="48.1" y2="45.5"/>
				
					<rect x="47.5" y="40.8" transform="matrix(0.9646 -0.2636 0.2636 0.9646 -8.5349 18.4235)" class="st4" width="33.8" height="0.5"/>
			</g>
			<g>
				<ellipse class="st4" cx="47.9" cy="45.6" rx="1" ry="1"/>
			</g>
			<g>
				<line class="st2" x1="15.5" y1="100.3" x2="48.6" y2="93.3"/>
				
					<rect x="15.1" y="96.5" transform="matrix(0.9783 -0.2074 0.2074 0.9783 -19.3701 8.7557)" class="st4" width="33.9" height="0.5"/>
			</g>
			<g>
				<ellipse class="st4" cx="48.8" cy="93.1" rx="1" ry="1"/>
			</g>
			<g>
				<rect x="80.6" y="34.3" class="st2" width="4.2" height="4.1"/>
				<path class="st3" d="M85.3,38.9h-5.2v-5.1h5.2V38.9z M81.1,37.9h3.2v-3.1h-3.2V37.9z"/>
			</g>
			<g>
				<rect x="11.2" y="97.8" class="st2" width="4.2" height="4.1"/>
				<path class="st3" d="M15.9,102.4h-5.2v-5.1h5.2V102.4z M11.7,101.4h3.2v-3.1h-3.2V101.4z"/>
			</g>
		</g>
		<g>
			<path class="st3" d="M15,12.4h1.1l4,9.2h-1.5l-0.9-2.3h-4.5l-0.9,2.3h-1.5L15,12.4z M17.3,18.2L15.5,14h0l-1.8,4.2H17.3z"/>
			<path class="st3" d="M21.1,16.2c0.3-0.3,0.7-0.5,1.2-0.7c0.4-0.2,0.9-0.2,1.3-0.2c0.5,0,0.9,0.1,1.2,0.2c0.3,0.1,0.6,0.3,0.8,0.5
				c0.2,0.2,0.4,0.4,0.5,0.7c0.1,0.2,0.2,0.5,0.2,0.8v3.1c0,0.2,0,0.4,0,0.6c0,0.2,0,0.4,0,0.5h-1.1c0-0.3,0-0.6,0-0.9h0
				c-0.3,0.4-0.6,0.7-0.9,0.8c-0.4,0.2-0.8,0.2-1.3,0.2c-0.3,0-0.6,0-0.8-0.1c-0.3-0.1-0.5-0.2-0.7-0.4c-0.2-0.2-0.4-0.3-0.5-0.6
				c-0.1-0.2-0.2-0.5-0.2-0.8c0-0.4,0.1-0.7,0.3-1c0.2-0.3,0.4-0.5,0.7-0.7s0.7-0.3,1.1-0.4c0.4-0.1,0.9-0.1,1.3-0.1h0.9v-0.3
				c0-0.2,0-0.3-0.1-0.5c-0.1-0.2-0.2-0.3-0.3-0.4c-0.1-0.1-0.3-0.2-0.5-0.3c-0.2-0.1-0.4-0.1-0.7-0.1c-0.2,0-0.4,0-0.6,0.1
				c-0.2,0-0.3,0.1-0.5,0.2c-0.1,0.1-0.3,0.1-0.4,0.2s-0.2,0.2-0.3,0.2L21.1,16.2z M24.5,18.6c-0.3,0-0.6,0-0.9,0
				c-0.3,0-0.6,0.1-0.8,0.2s-0.4,0.2-0.6,0.4C22,19.3,22,19.5,22,19.8c0,0.4,0.1,0.6,0.4,0.8c0.2,0.2,0.6,0.2,1,0.2
				c0.3,0,0.6-0.1,0.8-0.2c0.2-0.1,0.4-0.2,0.6-0.4c0.1-0.2,0.2-0.4,0.3-0.6c0.1-0.2,0.1-0.4,0.1-0.6v-0.4H24.5z"/>
		</g>
	</g>
	<g>
		<g>
			<ellipse class="st3" cx="82.8" cy="4.9" rx="0.8" ry="0.7"/>
		</g>
		<g>
			<ellipse class="st3" cx="85.8" cy="4.9" rx="0.8" ry="0.7"/>
		</g>
		<g>
			<ellipse class="st3" cx="88.8" cy="4.9" rx="0.8" ry="0.7"/>
		</g>
	</g>
	<g>
		<g>
			<path class="st3" d="M122.5,45.3h-13.5V31.8h13.5V45.3z M109.4,44.8H122V32.3h-12.5V44.8z"/>
		</g>
		<g>
			
				<rect x="113.3" y="36.1" transform="matrix(-1.836970e-16 1 -1 -1.836970e-16 154.2677 -77.125)" class="st3" width="4.9" height="4.9"/>
		</g>
		<g>
			<rect x="102.2" y="26.2" class="st4" width="13" height="13"/>
			<path class="st3" d="M115.5,39.4H102V25.9h13.5V39.4z M102.5,38.9H115V26.4h-12.5V38.9z"/>
		</g>
		<g>
			
				<rect x="102.9" y="26.8" transform="matrix(-1.836970e-16 1 -1 -1.836970e-16 141.4419 -76.0907)" class="st5" width="11.7" height="11.7"/>
			<path class="st2" d="M114.9,38.8h-12.2V26.6h12.2V38.8z M103.2,38.3h11.2V27.1h-11.2V38.3z"/>
		</g>
	</g>
	<g>
		<g>
			<path class="st5" d="M92.6,22c-0.7,0.6-1,0.9-1.2,1.3c-0.5,0.8-0.8,1.3-1.2,1.6c-0.3,0.3-1.4,1-1.4,1l0.6,0.8l0.7,0.9
				c0,0,1-0.8,1.4-1c0.4-0.3,1-0.5,1.9-0.7c0.8-0.2,1.6-0.7,4.8-3.2L92.6,22z"/>
		</g>
		<g>
			<path class="st3" d="M90,28.2l-1.7-2.3l0.3-0.2c0,0,1-0.7,1.3-1c0.3-0.3,0.7-0.6,1.1-1.5c0.5-0.9,1.4-1.6,6.1-4.9l0.3-0.2
				l2.7,3.6l-0.3,0.2c-4.5,3.5-5.4,4.2-6.5,4.4c-1,0.2-1.5,0.4-1.8,0.6c-0.3,0.2-1.3,1-1.4,1L90,28.2z M89.3,26l0.8,1.1
				c0.3-0.3,0.9-0.6,1.1-0.8c0.5-0.3,1.2-0.6,2-0.7c0.9-0.2,1.8-0.9,5.9-4.1l-1.8-2.5c-4.3,3-5.2,3.7-5.6,4.4
				c-0.4,0.8-0.8,1.3-1.3,1.7C90.2,25.4,89.6,25.8,89.3,26z"/>
		</g>
		<g>
			<path class="st3" d="M102.8,18.6c0.6-0.4,0.8-1.2,0.4-1.9c-0.2-0.4-0.6-0.6-1-0.7c-0.4-0.1-0.7,0-1,0.3l-0.9,0.7
				c-0.3,0.2-0.7,0.1-1-0.1l-0.1-0.2c-0.2-0.2-0.5-0.3-0.7-0.1l-1,0.8c-0.1,0.1-0.2,0.2-0.2,0.3c0,0.1,0,0.3,0.1,0.4l0.4,0.5
				l1.9,2.6l0.4,0.5c0.1,0.1,0.2,0.2,0.3,0.2c0.1,0,0.3,0,0.4-0.1l1-0.8c0.2-0.2,0.3-0.5,0.1-0.7l-0.1-0.2c-0.1-0.1-0.2-0.3-0.1-0.5
				c0-0.2,0.1-0.3,0.3-0.4L102.8,18.6z"/>
		</g>
		<g>
			<path class="st3" d="M88.5,27.2c-0.1-0.1-0.3-0.1-0.4-0.1l-0.8,0.6c-0.3,0.2-0.4,0.5-0.5,0.8s0,0.7,0.2,0.9
				c0.2,0.3,0.5,0.4,0.8,0.5c0.3,0,0.7,0,0.9-0.2c0.6-0.4,0.7-1.2,0.3-1.8L88.5,27.2z M88.5,27.2"/>
		</g>
	</g>
	<g>
		<g>
			<circle class="st3" cx="89" cy="77.3" r="1.2"/>
		</g>
		<g>
			<circle class="st3" cx="97.2" cy="77.3" r="1.2"/>
		</g>
		<g>
			<circle class="st3" cx="105.5" cy="77.3" r="1.2"/>
		</g>
		<g>
			<circle class="st3" cx="113.8" cy="77.3" r="1.2"/>
		</g>
		<g>
			<circle class="st3" cx="89" cy="87.3" r="1.2"/>
		</g>
		<g>
			<circle class="st3" cx="97.2" cy="87.3" r="1.2"/>
		</g>
		<g>
			<circle class="st3" cx="105.5" cy="87.3" r="1.2"/>
		</g>
		<g>
			<circle class="st3" cx="113.8" cy="87.3" r="1.2"/>
		</g>
		<g>
			<circle class="st3" cx="89" cy="97.3" r="1.2"/>
		</g>
		<g>
			<circle class="st3" cx="97.2" cy="97.3" r="1.2"/>
		</g>
		<g>
			<circle class="st3" cx="105.5" cy="97.3" r="1.2"/>
		</g>
		<g>
			<circle class="st3" cx="113.8" cy="97.3" r="1.2"/>
		</g>
		<g>
			<circle class="st3" cx="89" cy="107.3" r="1.2"/>
		</g>
		<g>
			<circle class="st3" cx="97.2" cy="107.3" r="1.2"/>
		</g>
		<g>
			<circle class="st3" cx="105.5" cy="107.3" r="1.2"/>
		</g>
		<g>
			<circle class="st3" cx="113.8" cy="107.3" r="1.2"/>
		</g>
	</g>
</g>
</svg>
