<?xml version="1.0" encoding="utf-8"?>
<!-- Generator: Adobe Illustrator 22.1.0, SVG Export Plug-In . SVG Version: 6.00 Build 0)  -->
<svg version="1.1" id="Layer_1" xmlns="http://www.w3.org/2000/svg" xmlns:xlink="http://www.w3.org/1999/xlink" x="0px" y="0px"
	 viewBox="0 0 122.7 116.1" style="enable-background:new 0 0 122.7 116.1;" xml:space="preserve">
<style type="text/css">
	.st0{fill:none;stroke:#000000;stroke-width:0;stroke-miterlimit:0;}
	.st1{fill:#D8D8D8;}
	.st2{fill:#FFFFFF;}
	.st3{fill:#40404F;}
	.st4{fill:#00DFD3;}
	.st5{fill:#668EFF;}
</style>
<g>
	<g>
		<rect x="-0.2" y="0.2" class="st0" width="122.7" height="116.1"/>
	</g>
	<g>
		<rect x="11.5" y="3.3" class="st1" width="90.3" height="104.7"/>
	</g>
	<g>
		<rect x="14.5" y="0.9" class="st2" width="90.3" height="104.4"/>
		<path class="st3" d="M105.8,106.3H13.5V-0.1h92.3V106.3z M15.5,104.3h88.3V1.9H15.5V104.3z"/>
	</g>
	<g>
		<g>
			<path class="st1" d="M38.1,104.3h-6.8V1.9h6.8V104.3z M31.4,104.2h6.5V2.1h-6.5V104.2z"/>
		</g>
		<g>
			<path class="st1" d="M48.1,104.3h-6.8V1.9h6.8V104.3z M41.4,104.2h6.5V2.1h-6.5V104.2z"/>
		</g>
		<g>
			<path class="st1" d="M58.1,104.3h-6.8V1.9h6.8V104.3z M51.4,104.2h6.5V2.1h-6.5V104.2z"/>
		</g>
		<g>
			<path class="st1" d="M68.1,104.3h-6.8V1.9h6.8V104.3z M61.4,104.2h6.5V2.1h-6.5V104.2z"/>
		</g>
		<g>
			<path class="st1" d="M78.1,104.3h-6.8V1.9h6.8V104.3z M71.4,104.2h6.5V2.1h-6.5V104.2z"/>
		</g>
		<g>
			<path class="st1" d="M88.1,104.3h-6.8V1.9h6.8V104.3z M81.4,104.2h6.5V2.1h-6.5V104.2z"/>
		</g>
	</g>
	<g id="P5WFOw.tif">
		<g>
			<g>
				<path class="st3" d="M53.2,13.9c0,0.4,0,0.8,0,1.3c0,0.3-0.1,0.6-0.1,0.9c-0.4,2.5-1.5,4.6-3.4,6.4c-1.5,1.4-3.3,2.3-5.3,2.6
					c-0.4,0.1-0.8,0.1-1.2,0.2c-0.5,0-1,0-1.5,0c-0.1,0-0.1,0-0.2,0c-1-0.1-1.9-0.3-2.8-0.6c-5.1-1.9-7.9-7.2-6.8-12.5
					c1-4.5,4.8-7.9,9.4-8.3c2.6-0.2,4.9,0.3,7.1,1.7c2.5,1.7,4.1,4,4.6,7C53.1,13,53.1,13.5,53.2,13.9z M47.3,20.4
					C47.4,20.4,47.4,20.4,47.3,20.4c0.5-1.6,1-3.2,1.5-4.7c0.5-1.5,0.3-3-0.5-4.4c-0.2-0.3-0.4-0.6-0.5-0.9c-0.3-0.5-0.5-1-0.5-1.5
					c0-0.9,0.7-1.6,1.5-1.7c0.1,0,0.1,0,0.2,0C44.3,2.8,37,4.3,34.1,9c0.2,0,0.3,0,0.5,0c0.9,0,1.8-0.1,2.7-0.1
					c0.3,0,0.4,0.1,0.5,0.4c0,0.2-0.1,0.4-0.4,0.4c-0.4,0-0.7,0.1-1.1,0.1c1.2,3.6,2.4,7.1,3.6,10.7c0-0.1,0.1-0.1,0.1-0.1
					c0.7-2.1,1.4-4.2,2.1-6.2c0-0.1,0-0.2,0-0.2c-0.5-1.3-1-2.7-1.5-4c0-0.1-0.1-0.1-0.2-0.1c-0.3,0-0.6-0.1-0.9-0.1
					c-0.3,0-0.4-0.3-0.3-0.6c0.1-0.2,0.3-0.3,0.5-0.3C40.6,9,41.4,9,42.3,9C43.1,9,44,9,44.8,8.9c0.3,0,0.5,0.1,0.5,0.4
					c0,0.3-0.1,0.4-0.4,0.4c-0.3,0-0.7,0.1-1.1,0.1C45,13.4,46.1,16.9,47.3,20.4z M42.6,15.4c-1,2.9-2,5.8-3,8.6
					c2,0.7,4.5,0.5,6.1-0.2C44.7,21,43.6,18.2,42.6,15.4z M38.1,23.4c-1.6-4.3-3.1-8.6-4.7-12.9C31.1,15.4,33.4,21.2,38.1,23.4z
					 M51.2,9.9c0,0.1,0,0.1,0,0.2c0.1,1.2-0.1,2.4-0.5,3.5c-0.9,2.6-1.8,5.3-2.7,7.9c-0.2,0.5-0.3,1-0.5,1.5
					C52.1,20.3,53.6,14.4,51.2,9.9z"/>
			</g>
		</g>
	</g>
	<g>
		<g>
			<g>
				<path class="st3" d="M41.5,65.6h0.6v4.8h-0.6V65.6z"/>
			</g>
			<g>
				<path class="st3" d="M43.5,67.7h-0.7v-0.5h0.7v-0.7c0-0.4,0.1-0.7,0.2-1c0.2-0.2,0.4-0.3,0.8-0.3c0.1,0,0.1,0,0.2,0
					c0.1,0,0.2,0,0.2,0l-0.1,0.5c-0.1,0-0.1,0-0.2,0c-0.1,0-0.1,0-0.2,0c-0.1,0-0.2,0-0.3,0.1c-0.1,0-0.1,0.1-0.2,0.1
					c0,0.1-0.1,0.1-0.1,0.2c0,0.1,0,0.2,0,0.3v0.7h0.7v0.5h-0.7v2.7h-0.6V67.7z"/>
			</g>
			<g>
				<path class="st3" d="M46.7,65.7c-0.1,0.2-0.3,0.4-0.4,0.7c-0.1,0.2-0.2,0.4-0.3,0.6c-0.1,0.2-0.1,0.4-0.2,0.7
					c0,0.2-0.1,0.5-0.1,0.8c0,0.5,0.1,1,0.2,1.4c0.1,0.5,0.4,0.9,0.6,1.3l-0.4,0.3c-0.3-0.4-0.6-0.9-0.7-1.4c-0.2-0.5-0.3-1-0.3-1.6
					c0-0.5,0.1-1,0.2-1.5c0.2-0.5,0.4-1,0.7-1.4L46.7,65.7z"/>
			</g>
			<g>
				<path class="st3" d="M47,71.2c0.1-0.2,0.3-0.4,0.4-0.7c0.1-0.2,0.2-0.4,0.3-0.6c0.1-0.2,0.1-0.4,0.2-0.7c0-0.2,0.1-0.5,0.1-0.8
					c0-0.5-0.1-1-0.2-1.4c-0.1-0.5-0.4-0.9-0.6-1.3l0.4-0.3c0.3,0.4,0.5,0.9,0.7,1.4c0.2,0.5,0.3,1,0.3,1.6c0,0.5-0.1,1-0.2,1.5
					c-0.2,0.5-0.4,1-0.7,1.4L47,71.2z"/>
			</g>
			<g>
				<path class="st3" d="M50.8,66h-0.3c-0.1,0-0.1,0-0.2,0.1c0,0-0.1,0.1-0.1,0.1c0,0.1,0,0.1-0.1,0.2c0,0.1,0,0.1,0,0.2v1
					c0,0.2,0,0.3-0.1,0.4c0,0.1-0.1,0.2-0.2,0.3c-0.1,0.1-0.1,0.1-0.2,0.2c-0.1,0-0.1,0.1-0.2,0.1v0c0,0,0.1,0,0.2,0.1
					c0.1,0,0.1,0.1,0.2,0.1c0.1,0.1,0.1,0.2,0.2,0.3c0,0.1,0.1,0.3,0.1,0.4v1c0,0.1,0,0.1,0,0.2c0,0.1,0,0.1,0.1,0.2
					c0,0.1,0.1,0.1,0.1,0.1c0,0,0.1,0.1,0.2,0.1h0.3v0.5h-0.5c-0.1,0-0.2,0-0.3-0.1c-0.1,0-0.2-0.1-0.2-0.2
					c-0.1-0.1-0.1-0.2-0.2-0.3c0-0.1-0.1-0.3-0.1-0.5v-0.9c0-0.2-0.1-0.4-0.2-0.6c-0.1-0.1-0.2-0.2-0.4-0.2v-0.5
					c0.2,0,0.3-0.1,0.4-0.2c0.1-0.1,0.2-0.3,0.2-0.6v-1.1c0-0.1,0-0.3,0.1-0.4c0-0.1,0.1-0.2,0.2-0.3c0.1-0.1,0.1-0.1,0.2-0.2
					c0.1,0,0.2-0.1,0.3-0.1h0.5V66z"/>
			</g>
			<g>
				<path class="st3" d="M41.1,88.9h0.3c0.1,0,0.1,0,0.2-0.1c0,0,0.1-0.1,0.1-0.1c0-0.1,0-0.1,0.1-0.2c0-0.1,0-0.1,0-0.2v-1
					c0-0.2,0-0.3,0.1-0.4c0-0.1,0.1-0.2,0.2-0.3c0.1-0.1,0.1-0.1,0.2-0.2c0.1,0,0.1-0.1,0.2-0.1v0c0,0-0.1,0-0.2-0.1
					c-0.1,0-0.1-0.1-0.2-0.1c-0.1-0.1-0.1-0.2-0.2-0.3c0-0.1-0.1-0.3-0.1-0.4v-1c0-0.1,0-0.1,0-0.2c0-0.1,0-0.1-0.1-0.2
					c0-0.1-0.1-0.1-0.1-0.1c0,0-0.1-0.1-0.2-0.1h-0.3v-0.5h0.5c0.1,0,0.2,0,0.3,0.1c0.1,0,0.2,0.1,0.2,0.2c0.1,0.1,0.1,0.2,0.2,0.3
					c0,0.1,0.1,0.3,0.1,0.5v0.9c0,0.2,0.1,0.4,0.2,0.6c0.1,0.1,0.2,0.2,0.4,0.2v0.5c-0.2,0-0.3,0.1-0.4,0.2
					c-0.1,0.1-0.2,0.3-0.2,0.6v1.1c0,0.1,0,0.3-0.1,0.4c0,0.1-0.1,0.2-0.2,0.3c-0.1,0.1-0.1,0.1-0.2,0.2c-0.1,0-0.2,0.1-0.3,0.1
					h-0.5V88.9z"/>
			</g>
		</g>
		<g>
			<rect x="41.1" y="74.1" class="st4" width="34.3" height="1.4"/>
		</g>
		<g>
			
				<rect x="41.1" y="78.4" transform="matrix(-1 -1.224647e-16 1.224647e-16 -1 96.1433 158.2435)" class="st4" width="13.8" height="1.4"/>
		</g>
	</g>
	<g>
		<g>
			<rect x="82" y="29" class="st2" width="39.7" height="36.2"/>
			<path class="st3" d="M122.2,65.7H81.5V28.5h40.7V65.7z M82.5,64.7h38.7V29.5H82.5V64.7z"/>
		</g>
		<g>
			<rect x="92.9" y="39" class="st2" width="17.8" height="16.2"/>
			<path class="st3" d="M111.2,55.7H92.4V38.5h18.8V55.7z M93.4,54.7h16.8V39.5H93.4V54.7z"/>
		</g>
		<g>
			<g>
				<rect x="101.4" y="29.6" class="st5" width="0.2" height="8.9"/>
			</g>
			<g>
				<path class="st5" d="M97.5,33l-0.4,0.3L97,33.1l0.5-0.4h0.2v1.9h-0.3V33z"/>
				<path class="st5" d="M98.9,33.4L98.9,33.4c0.1,0,0.1,0,0.2,0c0.1,0,0.1,0,0.2,0c0.1,0,0.1,0.1,0.2,0.1c0.1,0.1,0.1,0.1,0.1,0.2
					c0,0.1,0.1,0.2,0.1,0.3c0,0.1,0,0.2-0.1,0.3c0,0.1-0.1,0.1-0.1,0.2s-0.1,0.1-0.2,0.1s-0.2,0-0.3,0c-0.1,0-0.2,0-0.3,0
					c-0.1,0-0.2-0.1-0.2-0.1s-0.1-0.1-0.1-0.2c0-0.1-0.1-0.2-0.1-0.3c0-0.1,0-0.1,0-0.2c0,0,0-0.1,0-0.1c0,0,0-0.1,0.1-0.1
					c0,0,0-0.1,0.1-0.1l0.5-0.8h0.3L98.9,33.4z M98.7,34c0,0.1,0,0.1,0,0.2c0,0,0,0.1,0.1,0.1c0,0,0.1,0.1,0.1,0.1c0,0,0.1,0,0.2,0
					c0.1,0,0.1,0,0.2,0c0,0,0.1,0,0.1-0.1c0,0,0.1-0.1,0.1-0.1c0,0,0-0.1,0-0.2c0-0.1,0-0.1,0-0.2c0,0,0-0.1-0.1-0.1
					c0,0-0.1-0.1-0.1-0.1c0,0-0.1,0-0.2,0c-0.1,0-0.1,0-0.2,0c0,0-0.1,0-0.1,0.1c0,0-0.1,0.1-0.1,0.1C98.7,33.9,98.7,33.9,98.7,34z"
					/>
			</g>
		</g>
		<g>
			<g>
				<rect x="101.4" y="55.8" class="st5" width="0.2" height="8.9"/>
			</g>
			<g>
				<path class="st5" d="M97.5,59.2l-0.4,0.3L97,59.4l0.5-0.4h0.2v1.9h-0.3V59.2z"/>
				<path class="st5" d="M98.9,59.7L98.9,59.7c0.1,0,0.1,0,0.2,0c0.1,0,0.1,0,0.2,0c0.1,0,0.1,0.1,0.2,0.1c0.1,0.1,0.1,0.1,0.1,0.2
					c0,0.1,0.1,0.2,0.1,0.3c0,0.1,0,0.2-0.1,0.3c0,0.1-0.1,0.1-0.1,0.2s-0.1,0.1-0.2,0.1s-0.2,0-0.3,0c-0.1,0-0.2,0-0.3,0
					s-0.2-0.1-0.2-0.1s-0.1-0.1-0.1-0.2s-0.1-0.2-0.1-0.3c0-0.1,0-0.1,0-0.2c0,0,0-0.1,0-0.1c0,0,0-0.1,0.1-0.1c0,0,0-0.1,0.1-0.1
					l0.5-0.8h0.3L98.9,59.7z M98.7,60.3c0,0.1,0,0.1,0,0.2c0,0,0,0.1,0.1,0.1c0,0,0.1,0.1,0.1,0.1c0,0,0.1,0,0.2,0
					c0.1,0,0.1,0,0.2,0c0,0,0.1,0,0.1-0.1c0,0,0.1-0.1,0.1-0.1c0,0,0-0.1,0-0.2c0-0.1,0-0.1,0-0.2c0,0,0-0.1-0.1-0.1
					c0,0-0.1-0.1-0.1-0.1c0,0-0.1,0-0.2,0c-0.1,0-0.1,0-0.2,0c0,0-0.1,0-0.1,0.1c0,0-0.1,0.1-0.1,0.1C98.7,60.1,98.7,60.2,98.7,60.3
					z"/>
			</g>
		</g>
		<g>
			<g>
				<rect x="82.6" y="47.6" class="st5" width="9.7" height="0.2"/>
			</g>
			<g>
				<path class="st5" d="M86.1,51.2l0.8-0.8c0,0,0.1-0.1,0.1-0.1c0,0,0-0.1,0.1-0.1c0,0,0-0.1,0-0.1c0,0,0-0.1,0-0.1
					c0,0,0-0.1,0-0.1c0,0,0-0.1-0.1-0.1s-0.1,0-0.1-0.1s-0.1,0-0.1,0c-0.1,0-0.2,0-0.2,0.1c-0.1,0.1-0.1,0.1-0.1,0.2l-0.3,0
					c0-0.1,0-0.2,0.1-0.2s0.1-0.1,0.1-0.2s0.1-0.1,0.2-0.1c0.1,0,0.1,0,0.2,0s0.2,0,0.2,0c0.1,0,0.1,0.1,0.2,0.1
					c0.1,0,0.1,0.1,0.1,0.2s0,0.1,0,0.2c0,0.1,0,0.1,0,0.2c0,0.1,0,0.1-0.1,0.2c0,0-0.1,0.1-0.1,0.1c0,0-0.1,0.1-0.1,0.1l-0.6,0.6h1
					v0.2h-1.3V51.2z"/>
				<path class="st5" d="M87.6,50.5c0-0.1,0-0.1,0-0.2c0-0.1,0-0.2,0-0.2c0-0.1,0-0.1,0.1-0.2c0-0.1,0.1-0.1,0.1-0.2
					c0-0.1,0.1-0.1,0.2-0.1c0.1,0,0.1,0,0.2,0c0.1,0,0.2,0,0.2,0c0.1,0,0.1,0.1,0.2,0.1c0,0,0.1,0.1,0.1,0.2c0,0.1,0.1,0.1,0.1,0.2
					c0,0.1,0,0.1,0,0.2c0,0.1,0,0.2,0,0.2c0,0.1,0,0.2,0,0.3c0,0.1-0.1,0.2-0.1,0.3c0,0.1-0.1,0.2-0.2,0.2c-0.1,0.1-0.2,0.1-0.3,0.1
					s-0.2,0-0.3-0.1c-0.1-0.1-0.2-0.1-0.2-0.2c0-0.1-0.1-0.2-0.1-0.3C87.6,50.7,87.6,50.6,87.6,50.5z M87.8,50.5c0,0.1,0,0.1,0,0.2
					c0,0.1,0,0.2,0.1,0.3s0.1,0.1,0.1,0.2c0.1,0.1,0.1,0.1,0.2,0.1c0.1,0,0.2,0,0.2-0.1c0.1-0.1,0.1-0.1,0.1-0.2
					c0-0.1,0-0.2,0.1-0.3c0-0.1,0-0.2,0-0.2c0,0,0-0.1,0-0.1c0-0.1,0-0.1,0-0.2c0-0.1,0-0.1,0-0.2c0-0.1,0-0.1-0.1-0.1
					c0,0-0.1-0.1-0.1-0.1c0,0-0.1,0-0.2,0c-0.1,0-0.1,0-0.2,0c0,0-0.1,0.1-0.1,0.1c0,0-0.1,0.1-0.1,0.1c0,0.1,0,0.1,0,0.2
					c0,0.1,0,0.1,0,0.2C87.8,50.4,87.8,50.5,87.8,50.5z"/>
			</g>
			<g>
				<rect x="111.4" y="47.6" class="st5" width="9.7" height="0.2"/>
			</g>
			<g>
				<path class="st5" d="M114.8,51.2l0.8-0.8c0,0,0.1-0.1,0.1-0.1c0,0,0-0.1,0.1-0.1c0,0,0-0.1,0-0.1c0,0,0-0.1,0-0.1
					c0,0,0-0.1,0-0.1c0,0,0-0.1-0.1-0.1c0,0-0.1,0-0.1-0.1s-0.1,0-0.1,0c-0.1,0-0.2,0-0.2,0.1c-0.1,0.1-0.1,0.1-0.1,0.2l-0.3,0
					c0-0.1,0-0.2,0.1-0.2c0-0.1,0.1-0.1,0.1-0.2s0.1-0.1,0.2-0.1s0.1,0,0.2,0s0.2,0,0.2,0c0.1,0,0.1,0.1,0.2,0.1
					c0.1,0,0.1,0.1,0.1,0.2s0,0.1,0,0.2c0,0.1,0,0.1,0,0.2c0,0.1,0,0.1-0.1,0.2c0,0-0.1,0.1-0.1,0.1c0,0-0.1,0.1-0.1,0.1l-0.6,0.6h1
					v0.2h-1.3V51.2z"/>
				<path class="st5" d="M116.3,50.5c0-0.1,0-0.1,0-0.2c0-0.1,0-0.2,0-0.2c0-0.1,0-0.1,0.1-0.2c0-0.1,0.1-0.1,0.1-0.2
					c0.1-0.1,0.1-0.1,0.2-0.1c0.1,0,0.1,0,0.2,0c0.1,0,0.2,0,0.2,0c0.1,0,0.1,0.1,0.2,0.1c0.1,0,0.1,0.1,0.1,0.2
					c0,0.1,0.1,0.1,0.1,0.2s0,0.1,0,0.2c0,0.1,0,0.2,0,0.2c0,0.1,0,0.2,0,0.3c0,0.1-0.1,0.2-0.1,0.3c0,0.1-0.1,0.2-0.2,0.2
					c-0.1,0.1-0.2,0.1-0.3,0.1c-0.1,0-0.2,0-0.3-0.1c-0.1-0.1-0.2-0.1-0.2-0.2c0-0.1-0.1-0.2-0.1-0.3
					C116.3,50.7,116.3,50.6,116.3,50.5z M116.6,50.5c0,0.1,0,0.1,0,0.2c0,0.1,0,0.2,0.1,0.3s0.1,0.1,0.1,0.2
					c0.1,0.1,0.1,0.1,0.2,0.1c0.1,0,0.2,0,0.2-0.1c0.1-0.1,0.1-0.1,0.1-0.2s0-0.2,0.1-0.3c0-0.1,0-0.2,0-0.2c0,0,0-0.1,0-0.1
					s0-0.1,0-0.2c0-0.1,0-0.1,0-0.2c0-0.1,0-0.1-0.1-0.1c0,0-0.1-0.1-0.1-0.1c0,0-0.1,0-0.2,0c-0.1,0-0.1,0-0.2,0
					c0,0-0.1,0.1-0.1,0.1c0,0-0.1,0.1-0.1,0.1c0,0.1,0,0.1,0,0.2c0,0.1,0,0.1,0,0.2C116.6,50.4,116.6,50.5,116.6,50.5z"/>
			</g>
		</g>
	</g>
	<g>
		<g>
			<circle class="st3" cx="1.1" cy="84.8" r="1.2"/>
		</g>
		<g>
			<circle class="st3" cx="9.3" cy="84.8" r="1.2"/>
		</g>
		<g>
			<circle class="st3" cx="17.6" cy="84.8" r="1.2"/>
		</g>
		<g>
			<circle class="st3" cx="25.8" cy="84.8" r="1.2"/>
		</g>
		<g>
			<circle class="st3" cx="1.1" cy="94.8" r="1.2"/>
		</g>
		<g>
			<circle class="st3" cx="9.3" cy="94.8" r="1.2"/>
		</g>
		<g>
			<circle class="st3" cx="17.6" cy="94.8" r="1.2"/>
		</g>
		<g>
			<circle class="st3" cx="25.8" cy="94.8" r="1.2"/>
		</g>
		<g>
			<circle class="st3" cx="1.1" cy="104.8" r="1.2"/>
		</g>
		<g>
			<circle class="st3" cx="9.3" cy="104.8" r="1.2"/>
		</g>
		<g>
			<circle class="st3" cx="17.6" cy="104.8" r="1.2"/>
		</g>
		<g>
			<circle class="st3" cx="25.8" cy="104.8" r="1.2"/>
		</g>
		<g>
			<circle class="st3" cx="1.1" cy="114.8" r="1.2"/>
		</g>
		<g>
			<circle class="st3" cx="9.3" cy="114.8" r="1.2"/>
		</g>
		<g>
			<circle class="st3" cx="17.6" cy="114.8" r="1.2"/>
		</g>
		<g>
			<circle class="st3" cx="25.8" cy="114.8" r="1.2"/>
		</g>
	</g>
</g>
</svg>
