<?xml version="1.0" encoding="utf-8"?>
<!-- Generator: Adobe Illustrator 22.1.0, SVG Export Plug-In . SVG Version: 6.00 Build 0)  -->
<svg version="1.1" id="Layer_1" xmlns="http://www.w3.org/2000/svg" xmlns:xlink="http://www.w3.org/1999/xlink" x="0px" y="0px"
	 viewBox="0 0 122.7 116.1" style="enable-background:new 0 0 122.7 116.1;" xml:space="preserve">
<style type="text/css">
	.st0{fill:#FFFFFF;}
	.st1{fill:#40404F;}
	.st2{fill:#D8D8D8;}
	.st3{fill:#668EFF;}
</style>
<g>
	<g>
		<rect x="4.8" y="4.7" class="st0" width="113.1" height="106.7"/>
		<path class="st1" d="M118.9,112.4H3.8V3.7h115.1V112.4z M5.8,110.4h111.1V5.7H5.8V110.4z"/>
	</g>
	<g>
		<rect x="1.3" y="1.3" class="st0" width="6.9" height="6.9"/>
		<path class="st1" d="M9.2,9.2H0.3V0.3h8.9V9.2z M2.3,7.2h4.9V2.3H2.3V7.2z"/>
	</g>
	<g>
		<rect x="114.4" y="1.3" class="st0" width="6.9" height="6.9"/>
		<path class="st1" d="M122.3,9.2h-8.9V0.3h8.9V9.2z M115.4,7.2h4.9V2.3h-4.9V7.2z"/>
	</g>
	<g>
		<rect x="1.3" y="107.9" class="st0" width="6.9" height="6.9"/>
		<path class="st1" d="M9.2,115.8H0.3v-8.9h8.9V115.8z M2.3,113.8h4.9v-4.9H2.3V113.8z"/>
	</g>
	<g>
		<rect x="114.4" y="107.9" class="st0" width="6.9" height="6.9"/>
		<path class="st1" d="M122.3,115.8h-8.9v-8.9h8.9V115.8z M115.4,113.8h4.9v-4.9h-4.9V113.8z"/>
	</g>
	<g>
		<rect x="36.9" y="45.8" class="st2" width="30.7" height="36.1"/>
	</g>
	<g>
		<rect x="41.3" y="41.9" class="st3" width="30.7" height="36.1"/>
		<path class="st1" d="M72.9,79H40.3V40.9h32.7V79z M42.3,77h28.7V42.9H42.3V77z"/>
	</g>
	<g>
		<g>
			<circle class="st1" cx="60.3" cy="35.4" r="1.2"/>
		</g>
		<g>
			<circle class="st1" cx="68.4" cy="35.4" r="1.2"/>
		</g>
		<g>
			<circle class="st1" cx="76.5" cy="35.4" r="1.2"/>
		</g>
		<g>
			<circle class="st1" cx="84.6" cy="35.4" r="1.2"/>
		</g>
		<g>
			<circle class="st1" cx="60.3" cy="45.2" r="1.2"/>
		</g>
		<g>
			<circle class="st1" cx="68.4" cy="45.2" r="1.2"/>
		</g>
		<g>
			<circle class="st1" cx="76.5" cy="45.2" r="1.2"/>
		</g>
		<g>
			<circle class="st1" cx="84.6" cy="45.2" r="1.2"/>
		</g>
		<g>
			<circle class="st1" cx="60.3" cy="55" r="1.2"/>
		</g>
		<g>
			<circle class="st1" cx="68.4" cy="55" r="1.2"/>
		</g>
		<g>
			<circle class="st1" cx="76.5" cy="55" r="1.2"/>
		</g>
		<g>
			<circle class="st1" cx="84.6" cy="55" r="1.2"/>
		</g>
		<g>
			<circle class="st1" cx="60.3" cy="64.8" r="1.2"/>
		</g>
		<g>
			<circle class="st1" cx="68.4" cy="64.8" r="1.2"/>
		</g>
		<g>
			<circle class="st1" cx="76.5" cy="64.8" r="1.2"/>
		</g>
		<g>
			<circle class="st1" cx="84.6" cy="64.8" r="1.2"/>
		</g>
	</g>
</g>
</svg>
