<?xml version="1.0" encoding="utf-8"?>
<!-- Generator: Adobe Illustrator 22.1.0, SVG Export Plug-In . SVG Version: 6.00 Build 0)  -->
<svg version="1.1" id="Layer_1" xmlns="http://www.w3.org/2000/svg" xmlns:xlink="http://www.w3.org/1999/xlink" x="0px" y="0px"
	 viewBox="0 0 152.7 167.1" style="enable-background:new 0 0 152.7 167.1;" xml:space="preserve">
<style type="text/css">
	.st0{fill:#40404F;}
	.st1{fill:#D8D8D8;}
	.st2{fill:#00DFD3;}
	.st3{fill:#FFFFFF;}
	.st4{fill:#668EFF;}
</style>
<g>
	<g>
		<path class="st0" d="M73.4,151.1c-1.8-0.1-3.7-0.3-5.5-0.7l0.5-3c1.7,0.3,3.4,0.5,5.2,0.6L73.4,151.1z M80.6,151l-0.2-3
			c1.7-0.1,3.5-0.4,5.2-0.7l0.6,2.9C84.3,150.6,82.5,150.9,80.6,151z M60.9,148.7c-1.7-0.6-3.5-1.3-5.1-2l1.3-2.7
			c1.6,0.7,3.2,1.4,4.8,1.9L60.9,148.7z M93.1,148.4l-1-2.8c1.6-0.6,3.2-1.3,4.8-2l1.3,2.7C96.5,147,94.8,147.7,93.1,148.4z
			 M49.4,143.2c-1.5-1-3-2-4.5-3.2l1.9-2.4c1.4,1.1,2.8,2.1,4.3,3L49.4,143.2z M104.5,142.7l-1.7-2.5c1.4-0.9,2.9-2,4.2-3.1l1.9,2.3
			C107.5,140.6,106,141.7,104.5,142.7z M39.6,135.2c-1.3-1.3-2.5-2.7-3.7-4.1l2.3-1.9c1.1,1.3,2.3,2.7,3.5,3.9L39.6,135.2z
			 M114.2,134.5l-2.2-2.1c1.2-1.2,2.4-2.6,3.5-3.9l2.3,1.9C116.7,131.8,115.5,133.2,114.2,134.5z M31.6,125.4c-1-1.5-2-3.1-2.9-4.7
			l2.6-1.5c0.9,1.5,1.8,3,2.7,4.5L31.6,125.4z M122.1,124.6l-2.5-1.6c0.9-1.5,1.8-3,2.7-4.5l2.6,1.4
			C124,121.5,123.1,123.1,122.1,124.6z M25.5,114.3c-0.7-1.7-1.4-3.4-2-5.1l2.8-1c0.6,1.7,1.2,3.3,1.9,4.9L25.5,114.3z M128,113.4
			l-2.8-1.2c0.7-1.6,1.3-3.3,1.8-4.9l2.8,0.9C129.3,110,128.7,111.7,128,113.4z M21.5,102.3c-0.4-1.8-0.8-3.6-1.1-5.4l3-0.5
			c0.3,1.7,0.7,3.5,1.1,5.2L21.5,102.3z M131.8,101.4l-2.9-0.7c0.4-1.7,0.7-3.4,1-5.2l3,0.5C132.6,97.8,132.2,99.6,131.8,101.4z
			 M19.5,89.8c-0.1-1.8-0.2-3.7-0.2-5.5l3,0c0,1.8,0.1,3.5,0.2,5.3L19.5,89.8z M133.7,88.9l-3-0.2c0.1-1.7,0.2-3.5,0.2-5.3l0-0.2h3
			l0,0.2C133.9,85.2,133.8,87.1,133.7,88.9z M22.5,77.4l-3-0.2c0.1-1.8,0.3-3.7,0.6-5.4l3,0.4C22.8,73.9,22.6,75.7,22.5,77.4z
			 M130.5,76.4c-0.2-1.7-0.4-3.5-0.7-5.2l3-0.5c0.3,1.8,0.5,3.6,0.7,5.4L130.5,76.4z M24.4,65.5l-2.9-0.7c0.4-1.8,0.9-3.6,1.5-5.3
			l2.9,0.9C25.3,62,24.8,63.8,24.4,65.5z M128.5,64.4c-0.4-1.7-0.9-3.4-1.5-5.1l2.8-1c0.6,1.7,1.1,3.5,1.6,5.3L128.5,64.4z
			 M28.2,53.9l-2.8-1.2c0.7-1.7,1.5-3.4,2.4-5l2.7,1.4C29.7,50.7,28.9,52.3,28.2,53.9z M124.5,53c-0.7-1.6-1.5-3.2-2.3-4.7l2.6-1.4
			c0.9,1.6,1.7,3.2,2.4,4.9L124.5,53z M33.9,43.3l-2.5-1.7c1-1.5,2.1-3,3.2-4.5L37,39C35.9,40.4,34.9,41.8,33.9,43.3z M118.6,42.4
			c-1-1.4-2-2.9-3.1-4.2l2.3-1.9c1.2,1.4,2.3,2.9,3.3,4.4L118.6,42.4z M41.6,33.9l-2.1-2.1c1.3-1.3,2.7-2.6,4.1-3.7l1.9,2.3
			C44.1,31.5,42.8,32.7,41.6,33.9z M110.8,33.2c-1.3-1.2-2.6-2.4-3.9-3.5l1.9-2.3c1.4,1.1,2.8,2.4,4.1,3.7L110.8,33.2z M50.9,26.3
			l-1.6-2.5c1.6-1,3.2-1.9,4.8-2.7l1.4,2.7C53.9,24.5,52.4,25.4,50.9,26.3z M101.3,25.8c-1.5-0.9-3-1.8-4.6-2.5l1.3-2.7
			c1.6,0.8,3.3,1.7,4.9,2.6L101.3,25.8z M61.7,21.1l-1-2.8c1.8-0.6,3.5-1.1,5.3-1.5l0.6,2.9C65,20.1,63.3,20.5,61.7,21.1z
			 M90.4,20.8c-1.7-0.5-3.4-1-5-1.3l0.6-2.9c1.8,0.4,3.6,0.8,5.4,1.4L90.4,20.8z M73.4,18.7l-0.2-3c1.8-0.1,3.7-0.1,5.5-0.1l-0.1,3
			C76.9,18.6,75.2,18.6,73.4,18.7z"/>
	</g>
	<g>
		<g>
			<circle class="st1" cx="119.7" cy="84.5" r="28.4"/>
		</g>
		<g>
			<circle class="st2" cx="122.5" cy="82.4" r="28.4"/>
			<path class="st0" d="M122.5,112.2c-16.5,0-29.9-13.4-29.9-29.9c0-16.5,13.4-29.9,29.9-29.9s29.9,13.4,29.9,29.9
				C152.4,98.8,139,112.2,122.5,112.2z M122.5,55.5c-14.8,0-26.9,12.1-26.9,26.9c0,14.8,12.1,26.9,26.9,26.9s26.9-12.1,26.9-26.9
				C149.4,67.5,137.4,55.5,122.5,55.5z"/>
		</g>
		<g>
			<path class="st3" d="M128.5,73.2v6.6h2c1.4,0,2.5,1.1,2.5,2.5v0c0,1.4-1.1,2.5-2.5,2.5h-1.8v17.9h-15.3c-1.2,0-2.1-1-2.1-2.1
				V88.4c0-0.9-0.5-1.8-1.4-2.1l-0.8-0.3c-0.7-0.3-0.8-1.3-0.2-1.8l2-1.5c0.6-0.4,0.9-1.1,0.9-1.8V68.7l9,4.8L128.5,73.2z"/>
			<path class="st0" d="M130.3,104.1h-16.8c-2,0-3.6-1.6-3.6-3.6V88.4c0-0.3-0.2-0.6-0.5-0.8l-0.8-0.3c-0.8-0.4-1.4-1.1-1.5-2
				c-0.1-0.9,0.2-1.8,1-2.3l2-1.5c0.2-0.2,0.3-0.4,0.3-0.7V66.2l10.8,5.7l8.9-0.3v6.7h0.5c2.2,0,4,1.8,4,4s-1.8,4-4,4h-0.3V104.1z
				 M110.5,84.8L110.5,84.8c1.5,0.6,2.4,2,2.4,3.5v12.1c0,0.4,0.3,0.6,0.6,0.6h13.8V83.2h3.3c0.5,0,1-0.4,1-1s-0.4-1-1-1H127v-6.6
				l-6.6,0.2l-7.1-3.8v9.6c0,1.2-0.5,2.3-1.5,3L110.5,84.8z"/>
		</g>
		<g>
			<path class="st3" d="M111.8,68.7l9,4.8l7.8-0.3v6.6h2c1.4,0,2.5,1.1,2.5,2.5l0,0c0,1.4-1.1,2.5-2.5,2.5h-1.8V110
				c3.5-0.8,6.7-2.2,9.6-4.1l2.8-34.2l-31.2-9.6L111.8,68.7z"/>
			<path class="st0" d="M127.3,111.9V83.2h3.3c0.5,0,1-0.4,1-1s-0.4-1-1-1H127v-6.6l-6.6,0.2l-9.9-5.2l-2.8-9.9l35,10.8l-2.9,36.1
				l-0.6,0.4c-3.1,2.1-6.5,3.5-10.1,4.3L127.3,111.9z M130.3,86.2v21.9c2.3-0.7,4.6-1.7,6.7-3l2.6-32.3l-27.4-8.5l1,3.3l8,4.3
				l8.9-0.3v6.7h0.5c2.2,0,4,1.8,4,4s-1.8,4-4,4H130.3z"/>
		</g>
	</g>
	<g>
		<g>
			<circle class="st1" cx="31.5" cy="84.5" r="28.4"/>
		</g>
		<g>
			<circle class="st4" cx="28.7" cy="82.4" r="28.4"/>
			<path class="st0" d="M28.7,112.2c-16.5,0-29.9-13.4-29.9-29.9c0-16.5,13.4-29.9,29.9-29.9s29.9,13.4,29.9,29.9
				C58.6,98.8,45.2,112.2,28.7,112.2z M28.7,55.5c-14.8,0-26.9,12.1-26.9,26.9c0,14.8,12.1,26.9,26.9,26.9s26.9-12.1,26.9-26.9
				C55.6,67.5,43.5,55.5,28.7,55.5z"/>
		</g>
		<g>
			<path class="st3" d="M22.7,73.2v4.5h-2c-1.4,0-2.5,1.1-2.5,2.5v0c0,1.4,1.1,2.5,2.5,2.5h1.8v20h15.3c1.2,0,2.1-1,2.1-2.1V88.6
				c0-1.1,0.6-2,1.6-2.4l0.8-0.3c0.6-0.3,0.7-1.1,0.2-1.5l-2-1.6c-0.6-0.5-1-1.3-1-2.1V68.7h-9L22.7,73.2z"/>
			<path class="st0" d="M37.7,104.1H20.9v-20h-0.3c-2.2,0-4-1.8-4-4s1.8-4,4-4h0.5v-3.8l8.9-5.1h10.9v13.4c0,0.4,0.2,0.7,0.4,0.9
				l2,1.6c0.7,0.5,1,1.3,0.9,2.2c-0.1,0.8-0.6,1.6-1.4,1.9l-0.8,0.3c-0.4,0.2-0.7,0.6-0.7,1.1v11.9
				C41.4,102.5,39.7,104.1,37.7,104.1z M23.9,101.1h13.8c0.4,0,0.6-0.3,0.6-0.6V88.6c0-1.6,0.9-3.1,2.4-3.7l-1.2-1
				c-1-0.8-1.6-2-1.6-3.3V70.2h-7.1L24.2,74v5.1h-3.5c-0.5,0-1,0.4-1,1s0.4,1,1,1h3.3V101.1z"/>
		</g>
		<g>
			<path class="st3" d="M22.4,82.6h-1.8c-1.4,0-2.5-1.1-2.5-2.5v0c0-1.4,1.1-2.5,2.5-2.5h2v-4.5l7.8-4.5h9l1.9-6.6l-27.6,3.1V92
				l8.7,3.8V82.6z"/>
			<path class="st0" d="M23.9,98.1L12.2,93V63.9l31.2-3.5l-2.8,9.8h-9.7L24.2,74v5.1h-3.5c-0.5,0-1,0.4-1,1s0.4,1,1,1h3.3V98.1z
				 M15.2,91l5.7,2.5v-9.4h-0.3c-2.2,0-4-1.8-4-4s1.8-4,4-4h0.5v-3.8l8.9-5.1h8.2l1-3.4l-24,2.7V91z"/>
		</g>
	</g>
	<g>
		<polygon class="st0" points="56.1,31.7 44.8,27.9 48.5,16.6 51.4,17.6 48.6,26 57,28.8 		"/>
	</g>
	<g>
		<polygon class="st0" points="106.9,148.1 104.1,147 107.3,138.7 98.9,135.5 100,132.7 111.1,136.9 		"/>
	</g>
	<g>
		<g>
			<circle class="st0" cx="48.2" cy="91.7" r="1.6"/>
		</g>
		<g>
			<circle class="st0" cx="59" cy="91.7" r="1.6"/>
		</g>
		<g>
			<circle class="st0" cx="69.7" cy="91.7" r="1.6"/>
		</g>
		<g>
			<circle class="st0" cx="48.2" cy="104.7" r="1.6"/>
		</g>
		<g>
			<circle class="st0" cx="59" cy="104.7" r="1.6"/>
		</g>
		<g>
			<circle class="st0" cx="69.7" cy="104.7" r="1.6"/>
		</g>
		<g>
			<circle class="st0" cx="48.2" cy="117.7" r="1.6"/>
		</g>
		<g>
			<circle class="st0" cx="59" cy="117.7" r="1.6"/>
		</g>
		<g>
			<circle class="st0" cx="69.7" cy="117.7" r="1.6"/>
		</g>
	</g>
	<g>
		<g>
			<circle class="st0" cx="83.5" cy="50" r="1.6"/>
		</g>
		<g>
			<circle class="st0" cx="94.2" cy="50" r="1.6"/>
		</g>
		<g>
			<circle class="st0" cx="105" cy="50" r="1.6"/>
		</g>
		<g>
			<circle class="st0" cx="83.5" cy="63" r="1.6"/>
		</g>
		<g>
			<circle class="st0" cx="94.2" cy="63" r="1.6"/>
		</g>
		<g>
			<circle class="st0" cx="105" cy="63" r="1.6"/>
		</g>
		<g>
			<circle class="st0" cx="83.5" cy="76" r="1.6"/>
		</g>
		<g>
			<circle class="st0" cx="94.2" cy="76" r="1.6"/>
		</g>
		<g>
			<circle class="st0" cx="105" cy="76" r="1.6"/>
		</g>
	</g>
</g>
</svg>
