<?xml version="1.0" encoding="utf-8"?>
<!-- Generator: Adobe Illustrator 22.1.0, SVG Export Plug-In . SVG Version: 6.00 Build 0)  -->
<svg version="1.1" id="Layer_1" xmlns="http://www.w3.org/2000/svg" xmlns:xlink="http://www.w3.org/1999/xlink" x="0px" y="0px"
	 viewBox="0 0 110.4 121.1" style="enable-background:new 0 0 110.4 121.1;" xml:space="preserve">
<style type="text/css">
	.st0{clip-path:url(#SVGID_2_);}
	.st1{fill:#D8D8D8;}
	.st2{fill:#40404F;}
	.st3{fill:#668EFF;}
	.st4{fill:#FFFFFF;}
</style>
<g>
	<defs>
		<rect id="SVGID_1_" y="0.6" width="110" height="120"/>
	</defs>
	<clipPath id="SVGID_2_">
		<use xlink:href="#SVGID_1_"  style="overflow:visible;"/>
	</clipPath>
	<g class="st0">
		<g>
			<g>
				<g>
					<path class="st1" d="M1.6,54.1h-7.8v-7.8h7.8C1.6,46.3,1.6,54.1,1.6,54.1z M-6,53.9h7.4v-7.4H-6V53.9z"/>
				</g>
				<g>
					<path class="st1" d="M9.2,54.1H1.4v-7.8h7.8V54.1z M1.6,53.9H9v-7.4H1.6V53.9z"/>
				</g>
				<g>
					<path class="st1" d="M16.7,54.1H8.9v-7.8h7.8V54.1z M9.2,53.9h7.4v-7.4H9.2V53.9z"/>
				</g>
				<g>
					<path class="st1" d="M24.3,54.1h-7.8v-7.8h7.8V54.1z M16.7,53.9h7.4v-7.4h-7.4V53.9z"/>
				</g>
				<g>
					<path class="st1" d="M31.9,54.1h-7.8v-7.8h7.8C31.9,46.3,31.9,54.1,31.9,54.1z M24.3,53.9h7.4v-7.4h-7.4V53.9z"/>
				</g>
				<g>
					<path class="st1" d="M39.5,54.1h-7.8v-7.8h7.8V54.1z M31.9,53.9h7.4v-7.4h-7.4V53.9z"/>
				</g>
				<g>
					<path class="st1" d="M47.1,54.1h-7.8v-7.8h7.8V54.1z M39.5,53.9h7.4v-7.4h-7.4V53.9z"/>
				</g>
				<g>
					<path class="st1" d="M54.7,54.1h-7.8v-7.8h7.8V54.1z M47.1,53.9h7.4v-7.4h-7.4V53.9z"/>
				</g>
				<g>
					<path class="st1" d="M1.6,61.7h-7.8v-7.8h7.8C1.6,53.9,1.6,61.7,1.6,61.7z M-6,61.5h7.4v-7.4H-6V61.5z"/>
				</g>
				<g>
					<path class="st1" d="M9.2,61.7H1.4v-7.8h7.8V61.7z M1.6,61.5H9v-7.4H1.6V61.5z"/>
				</g>
				<g>
					<path class="st1" d="M16.7,61.7H8.9v-7.8h7.8V61.7z M9.2,61.5h7.4v-7.4H9.2V61.5z"/>
				</g>
				<g>
					<path class="st1" d="M24.3,61.7h-7.8v-7.8h7.8V61.7z M16.7,61.5h7.4v-7.4h-7.4V61.5z"/>
				</g>
				<g>
					<path class="st1" d="M31.9,61.7h-7.8v-7.8h7.8C31.9,53.9,31.9,61.7,31.9,61.7z M24.3,61.5h7.4v-7.4h-7.4V61.5z"/>
				</g>
				<g>
					<path class="st1" d="M39.5,61.7h-7.8v-7.8h7.8V61.7z M31.9,61.5h7.4v-7.4h-7.4V61.5z"/>
				</g>
				<g>
					<path class="st1" d="M47.1,61.7h-7.8v-7.8h7.8V61.7z M39.5,61.5h7.4v-7.4h-7.4V61.5z"/>
				</g>
				<g>
					<path class="st1" d="M54.7,61.7h-7.8v-7.8h7.8V61.7z M47.1,61.5h7.4v-7.4h-7.4V61.5z"/>
				</g>
				<g>
					<path class="st1" d="M1.6,38.9h-7.8v-7.8h7.8C1.6,31.1,1.6,38.9,1.6,38.9z M-6,38.6h7.4v-7.4H-6V38.6z"/>
				</g>
				<g>
					<path class="st1" d="M9.2,38.9H1.4v-7.8h7.8V38.9z M1.6,38.6H9v-7.4H1.6V38.6z"/>
				</g>
				<g>
					<path class="st1" d="M16.7,38.9H8.9v-7.8h7.8V38.9z M9.2,38.6h7.4v-7.4H9.2V38.6z"/>
				</g>
				<g>
					<path class="st1" d="M24.3,38.9h-7.8v-7.8h7.8V38.9z M16.7,38.6h7.4v-7.4h-7.4V38.6z"/>
				</g>
				<g>
					<path class="st1" d="M31.9,38.9h-7.8v-7.8h7.8C31.9,31.1,31.9,38.9,31.9,38.9z M24.3,38.6h7.4v-7.4h-7.4V38.6z"/>
				</g>
				<g>
					<path class="st1" d="M39.5,38.9h-7.8v-7.8h7.8V38.9z M31.9,38.6h7.4v-7.4h-7.4V38.6z"/>
				</g>
				<g>
					<path class="st1" d="M47.1,38.9h-7.8v-7.8h7.8V38.9z M39.5,38.6h7.4v-7.4h-7.4V38.6z"/>
				</g>
				<g>
					<path class="st1" d="M54.7,38.9h-7.8v-7.8h7.8V38.9z M47.1,38.6h7.4v-7.4h-7.4V38.6z"/>
				</g>
				<g>
					<path class="st1" d="M1.6,46.4h-7.8v-7.8h7.8C1.6,38.6,1.6,46.4,1.6,46.4z M-6,46.2h7.4v-7.4H-6V46.2z"/>
				</g>
				<g>
					<path class="st1" d="M9.2,46.4H1.4v-7.8h7.8V46.4z M1.6,46.2H9v-7.4H1.6V46.2z"/>
				</g>
				<g>
					<path class="st1" d="M16.7,46.4H8.9v-7.8h7.8V46.4z M9.2,46.2h7.4v-7.4H9.2V46.2z"/>
				</g>
				<g>
					<path class="st1" d="M24.3,46.4h-7.8v-7.8h7.8V46.4z M16.7,46.2h7.4v-7.4h-7.4V46.2z"/>
				</g>
				<g>
					<path class="st1" d="M31.9,46.4h-7.8v-7.8h7.8C31.9,38.6,31.9,46.4,31.9,46.4z M24.3,46.2h7.4v-7.4h-7.4V46.2z"/>
				</g>
				<g>
					<path class="st1" d="M39.5,46.4h-7.8v-7.8h7.8V46.4z M31.9,46.2h7.4v-7.4h-7.4V46.2z"/>
				</g>
				<g>
					<path class="st1" d="M47.1,46.4h-7.8v-7.8h7.8V46.4z M39.5,46.2h7.4v-7.4h-7.4V46.2z"/>
				</g>
				<g>
					<path class="st1" d="M54.7,46.4h-7.8v-7.8h7.8V46.4z M47.1,46.2h7.4v-7.4h-7.4V46.2z"/>
				</g>
				<g>
					<path class="st1" d="M1.6,23.7h-7.8v-7.8h7.8C1.6,15.9,1.6,23.7,1.6,23.7z M-6,23.5h7.4v-7.4H-6V23.5z"/>
				</g>
				<g>
					<path class="st1" d="M9.2,23.7H1.4v-7.8h7.8V23.7z M1.6,23.5H9v-7.4H1.6V23.5z"/>
				</g>
				<g>
					<path class="st1" d="M16.7,23.7H8.9v-7.8h7.8V23.7z M9.2,23.5h7.4v-7.4H9.2V23.5z"/>
				</g>
				<g>
					<path class="st1" d="M24.3,23.7h-7.8v-7.8h7.8V23.7z M16.7,23.5h7.4v-7.4h-7.4V23.5z"/>
				</g>
				<g>
					<path class="st1" d="M31.9,23.7h-7.8v-7.8h7.8C31.9,15.9,31.9,23.7,31.9,23.7z M24.3,23.5h7.4v-7.4h-7.4V23.5z"/>
				</g>
				<g>
					<path class="st1" d="M39.5,23.7h-7.8v-7.8h7.8V23.7z M31.9,23.5h7.4v-7.4h-7.4V23.5z"/>
				</g>
				<g>
					<path class="st1" d="M47.1,23.7h-7.8v-7.8h7.8V23.7z M39.5,23.5h7.4v-7.4h-7.4V23.5z"/>
				</g>
				<g>
					<path class="st1" d="M54.7,23.7h-7.8v-7.8h7.8V23.7z M47.1,23.5h7.4v-7.4h-7.4V23.5z"/>
				</g>
				<g>
					<path class="st1" d="M1.6,31.3h-7.8v-7.8h7.8C1.6,23.5,1.6,31.3,1.6,31.3z M-6,31.1h7.4v-7.4H-6V31.1z"/>
				</g>
				<g>
					<path class="st1" d="M9.2,31.3H1.4v-7.8h7.8V31.3z M1.6,31.1H9v-7.4H1.6V31.1z"/>
				</g>
				<g>
					<path class="st1" d="M16.7,31.3H8.9v-7.8h7.8V31.3z M9.2,31.1h7.4v-7.4H9.2V31.1z"/>
				</g>
				<g>
					<path class="st1" d="M24.3,31.3h-7.8v-7.8h7.8V31.3z M16.7,31.1h7.4v-7.4h-7.4V31.1z"/>
				</g>
				<g>
					<path class="st1" d="M31.9,31.3h-7.8v-7.8h7.8C31.9,23.5,31.9,31.3,31.9,31.3z M24.3,31.1h7.4v-7.4h-7.4V31.1z"/>
				</g>
				<g>
					<path class="st1" d="M39.5,31.3h-7.8v-7.8h7.8V31.3z M31.9,31.1h7.4v-7.4h-7.4V31.1z"/>
				</g>
				<g>
					<path class="st1" d="M47.1,31.3h-7.8v-7.8h7.8V31.3z M39.5,31.1h7.4v-7.4h-7.4V31.1z"/>
				</g>
				<g>
					<path class="st1" d="M54.7,31.3h-7.8v-7.8h7.8V31.3z M47.1,31.1h7.4v-7.4h-7.4V31.1z"/>
				</g>
				<g>
					<path class="st1" d="M1.6,8.5h-7.8V0.7h7.8C1.6,0.7,1.6,8.5,1.6,8.5z M-6,8.3h7.4V0.9H-6V8.3z"/>
				</g>
				<g>
					<path class="st1" d="M9.2,8.5H1.4V0.7h7.8V8.5z M1.6,8.3H9V0.9H1.6V8.3z"/>
				</g>
				<g>
					<path class="st1" d="M16.7,8.5H8.9V0.7h7.8V8.5z M9.2,8.3h7.4V0.9H9.2V8.3z"/>
				</g>
				<g>
					<path class="st1" d="M24.3,8.5h-7.8V0.7h7.8V8.5z M16.7,8.3h7.4V0.9h-7.4V8.3z"/>
				</g>
				<g>
					<path class="st1" d="M31.9,8.5h-7.8V0.7h7.8C31.9,0.7,31.9,8.5,31.9,8.5z M24.3,8.3h7.4V0.9h-7.4V8.3z"/>
				</g>
				<g>
					<path class="st1" d="M39.5,8.5h-7.8V0.7h7.8V8.5z M31.9,8.3h7.4V0.9h-7.4V8.3z"/>
				</g>
				<g>
					<path class="st1" d="M47.1,8.5h-7.8V0.7h7.8V8.5z M39.5,8.3h7.4V0.9h-7.4V8.3z"/>
				</g>
				<g>
					<path class="st1" d="M54.7,8.5h-7.8V0.7h7.8V8.5z M47.1,8.3h7.4V0.9h-7.4V8.3z"/>
				</g>
				<g>
					<path class="st1" d="M1.6,16.1h-7.8V8.3h7.8C1.6,8.3,1.6,16.1,1.6,16.1z M-6,15.9h7.4V8.5H-6V15.9z"/>
				</g>
				<g>
					<path class="st1" d="M9.2,16.1H1.4V8.3h7.8V16.1z M1.6,15.9H9V8.5H1.6V15.9z"/>
				</g>
				<g>
					<path class="st1" d="M16.7,16.1H8.9V8.3h7.8V16.1z M9.2,15.9h7.4V8.5H9.2V15.9z"/>
				</g>
				<g>
					<path class="st1" d="M24.3,16.1h-7.8V8.3h7.8V16.1z M16.7,15.9h7.4V8.5h-7.4V15.9z"/>
				</g>
				<g>
					<path class="st1" d="M31.9,16.1h-7.8V8.3h7.8C31.9,8.3,31.9,16.1,31.9,16.1z M24.3,15.9h7.4V8.5h-7.4V15.9z"/>
				</g>
				<g>
					<path class="st1" d="M39.5,16.1h-7.8V8.3h7.8V16.1z M31.9,15.9h7.4V8.5h-7.4V15.9z"/>
				</g>
				<g>
					<path class="st1" d="M47.1,16.1h-7.8V8.3h7.8V16.1z M39.5,15.9h7.4V8.5h-7.4V15.9z"/>
				</g>
				<g>
					<path class="st1" d="M54.7,16.1h-7.8V8.3h7.8V16.1z M47.1,15.9h7.4V8.5h-7.4V15.9z"/>
				</g>
				<g>
					<path class="st1" d="M62.3,54.1h-7.8v-7.8h7.8V54.1z M54.7,53.9h7.4v-7.4h-7.4V53.9z"/>
				</g>
				<g>
					<path class="st1" d="M69.9,54.1h-7.8v-7.8h7.8V54.1z M62.3,53.9h7.4v-7.4h-7.4C62.3,46.5,62.3,53.9,62.3,53.9z"/>
				</g>
				<g>
					<path class="st1" d="M77.4,54.1h-7.8v-7.8h7.8V54.1z M69.9,53.9h7.4v-7.4h-7.4V53.9z"/>
				</g>
				<g>
					<path class="st1" d="M85,54.1h-7.8v-7.8H85V54.1z M77.4,53.9h7.4v-7.4h-7.4V53.9z"/>
				</g>
				<g>
					<path class="st1" d="M92.6,54.1h-7.8v-7.8h7.8V54.1z M85,53.9h7.4v-7.4H85V53.9z"/>
				</g>
				<g>
					<path class="st1" d="M100.2,54.1h-7.8v-7.8h7.8V54.1z M92.6,53.9h7.4v-7.4h-7.4V53.9z"/>
				</g>
				<g>
					<path class="st1" d="M107.8,54.1H100v-7.8h7.8V54.1z M100.2,53.9h7.4v-7.4h-7.4V53.9z"/>
				</g>
				<g>
					<path class="st1" d="M115.4,54.1h-7.8v-7.8h7.8V54.1z M107.8,53.9h7.4v-7.4h-7.4V53.9z"/>
				</g>
				<g>
					<path class="st1" d="M62.3,61.7h-7.8v-7.8h7.8V61.7z M54.7,61.5h7.4v-7.4h-7.4V61.5z"/>
				</g>
				<g>
					<path class="st1" d="M69.9,61.7h-7.8v-7.8h7.8V61.7z M62.3,61.5h7.4v-7.4h-7.4C62.3,54.1,62.3,61.5,62.3,61.5z"/>
				</g>
				<g>
					<path class="st1" d="M77.4,61.7h-7.8v-7.8h7.8V61.7z M69.9,61.5h7.4v-7.4h-7.4V61.5z"/>
				</g>
				<g>
					<path class="st1" d="M85,61.7h-7.8v-7.8H85V61.7z M77.4,61.5h7.4v-7.4h-7.4V61.5z"/>
				</g>
				<g>
					<path class="st1" d="M92.6,61.7h-7.8v-7.8h7.8V61.7z M85,61.5h7.4v-7.4H85V61.5z"/>
				</g>
				<g>
					<path class="st1" d="M100.2,61.7h-7.8v-7.8h7.8V61.7z M92.6,61.5h7.4v-7.4h-7.4V61.5z"/>
				</g>
				<g>
					<path class="st1" d="M107.8,61.7H100v-7.8h7.8V61.7z M100.2,61.5h7.4v-7.4h-7.4V61.5z"/>
				</g>
				<g>
					<path class="st1" d="M115.4,61.7h-7.8v-7.8h7.8V61.7z M107.8,61.5h7.4v-7.4h-7.4V61.5z"/>
				</g>
				<g>
					<path class="st1" d="M62.3,38.9h-7.8v-7.8h7.8V38.9z M54.7,38.6h7.4v-7.4h-7.4V38.6z"/>
				</g>
				<g>
					<path class="st1" d="M69.9,38.9h-7.8v-7.8h7.8V38.9z M62.3,38.6h7.4v-7.4h-7.4C62.3,31.2,62.3,38.6,62.3,38.6z"/>
				</g>
				<g>
					<path class="st1" d="M77.4,38.9h-7.8v-7.8h7.8V38.9z M69.9,38.6h7.4v-7.4h-7.4V38.6z"/>
				</g>
				<g>
					<path class="st1" d="M85,38.9h-7.8v-7.8H85V38.9z M77.4,38.6h7.4v-7.4h-7.4V38.6z"/>
				</g>
				<g>
					<path class="st1" d="M92.6,38.9h-7.8v-7.8h7.8V38.9z M85,38.6h7.4v-7.4H85V38.6z"/>
				</g>
				<g>
					<path class="st1" d="M100.2,38.9h-7.8v-7.8h7.8V38.9z M92.6,38.6h7.4v-7.4h-7.4V38.6z"/>
				</g>
				<g>
					<path class="st1" d="M107.8,38.9H100v-7.8h7.8V38.9z M100.2,38.6h7.4v-7.4h-7.4V38.6z"/>
				</g>
				<g>
					<path class="st1" d="M115.4,38.9h-7.8v-7.8h7.8V38.9z M107.8,38.6h7.4v-7.4h-7.4V38.6z"/>
				</g>
				<g>
					<path class="st1" d="M62.3,46.4h-7.8v-7.8h7.8V46.4z M54.7,46.2h7.4v-7.4h-7.4V46.2z"/>
				</g>
				<g>
					<path class="st1" d="M69.9,46.4h-7.8v-7.8h7.8V46.4z M62.3,46.2h7.4v-7.4h-7.4C62.3,38.8,62.3,46.2,62.3,46.2z"/>
				</g>
				<g>
					<path class="st1" d="M77.4,46.4h-7.8v-7.8h7.8V46.4z M69.9,46.2h7.4v-7.4h-7.4V46.2z"/>
				</g>
				<g>
					<path class="st1" d="M85,46.4h-7.8v-7.8H85V46.4z M77.4,46.2h7.4v-7.4h-7.4V46.2z"/>
				</g>
				<g>
					<path class="st1" d="M92.6,46.4h-7.8v-7.8h7.8V46.4z M85,46.2h7.4v-7.4H85V46.2z"/>
				</g>
				<g>
					<path class="st1" d="M100.2,46.4h-7.8v-7.8h7.8V46.4z M92.6,46.2h7.4v-7.4h-7.4V46.2z"/>
				</g>
				<g>
					<path class="st1" d="M107.8,46.4H100v-7.8h7.8V46.4z M100.2,46.2h7.4v-7.4h-7.4V46.2z"/>
				</g>
				<g>
					<path class="st1" d="M115.4,46.4h-7.8v-7.8h7.8V46.4z M107.8,46.2h7.4v-7.4h-7.4V46.2z"/>
				</g>
				<g>
					<path class="st1" d="M62.3,23.7h-7.8v-7.8h7.8V23.7z M54.7,23.5h7.4v-7.4h-7.4V23.5z"/>
				</g>
				<g>
					<path class="st1" d="M69.9,23.7h-7.8v-7.8h7.8V23.7z M62.3,23.5h7.4v-7.4h-7.4C62.3,16.1,62.3,23.5,62.3,23.5z"/>
				</g>
				<g>
					<path class="st1" d="M77.4,23.7h-7.8v-7.8h7.8V23.7z M69.9,23.5h7.4v-7.4h-7.4V23.5z"/>
				</g>
				<g>
					<path class="st1" d="M85,23.7h-7.8v-7.8H85V23.7z M77.4,23.5h7.4v-7.4h-7.4V23.5z"/>
				</g>
				<g>
					<path class="st1" d="M92.6,23.7h-7.8v-7.8h7.8V23.7z M85,23.5h7.4v-7.4H85V23.5z"/>
				</g>
				<g>
					<path class="st1" d="M100.2,23.7h-7.8v-7.8h7.8V23.7z M92.6,23.5h7.4v-7.4h-7.4V23.5z"/>
				</g>
				<g>
					<path class="st1" d="M107.8,23.7H100v-7.8h7.8V23.7z M100.2,23.5h7.4v-7.4h-7.4V23.5z"/>
				</g>
				<g>
					<path class="st1" d="M115.4,23.7h-7.8v-7.8h7.8V23.7z M107.8,23.5h7.4v-7.4h-7.4V23.5z"/>
				</g>
				<g>
					<path class="st1" d="M62.3,31.3h-7.8v-7.8h7.8V31.3z M54.7,31.1h7.4v-7.4h-7.4V31.1z"/>
				</g>
				<g>
					<path class="st1" d="M69.9,31.3h-7.8v-7.8h7.8V31.3z M62.3,31.1h7.4v-7.4h-7.4C62.3,23.7,62.3,31.1,62.3,31.1z"/>
				</g>
				<g>
					<path class="st1" d="M77.4,31.3h-7.8v-7.8h7.8V31.3z M69.9,31.1h7.4v-7.4h-7.4V31.1z"/>
				</g>
				<g>
					<path class="st1" d="M85,31.3h-7.8v-7.8H85V31.3z M77.4,31.1h7.4v-7.4h-7.4V31.1z"/>
				</g>
				<g>
					<path class="st1" d="M92.6,31.3h-7.8v-7.8h7.8V31.3z M85,31.1h7.4v-7.4H85V31.1z"/>
				</g>
				<g>
					<path class="st1" d="M100.2,31.3h-7.8v-7.8h7.8V31.3z M92.6,31.1h7.4v-7.4h-7.4V31.1z"/>
				</g>
				<g>
					<path class="st1" d="M107.8,31.3H100v-7.8h7.8V31.3z M100.2,31.1h7.4v-7.4h-7.4V31.1z"/>
				</g>
				<g>
					<path class="st1" d="M115.4,31.3h-7.8v-7.8h7.8V31.3z M107.8,31.1h7.4v-7.4h-7.4V31.1z"/>
				</g>
				<g>
					<path class="st1" d="M62.3,8.5h-7.8V0.7h7.8V8.5z M54.7,8.3h7.4V0.9h-7.4V8.3z"/>
				</g>
				<g>
					<path class="st1" d="M69.9,8.5h-7.8V0.7h7.8V8.5z M62.3,8.3h7.4V0.9h-7.4C62.3,0.9,62.3,8.3,62.3,8.3z"/>
				</g>
				<g>
					<path class="st1" d="M77.4,8.5h-7.8V0.7h7.8V8.5z M69.9,8.3h7.4V0.9h-7.4V8.3z"/>
				</g>
				<g>
					<path class="st1" d="M85,8.5h-7.8V0.7H85V8.5z M77.4,8.3h7.4V0.9h-7.4V8.3z"/>
				</g>
				<g>
					<path class="st1" d="M92.6,8.5h-7.8V0.7h7.8V8.5z M85,8.3h7.4V0.9H85V8.3z"/>
				</g>
				<g>
					<path class="st1" d="M100.2,8.5h-7.8V0.7h7.8V8.5z M92.6,8.3h7.4V0.9h-7.4V8.3z"/>
				</g>
				<g>
					<path class="st1" d="M107.8,8.5H100V0.7h7.8V8.5z M100.2,8.3h7.4V0.9h-7.4V8.3z"/>
				</g>
				<g>
					<path class="st1" d="M115.4,8.5h-7.8V0.7h7.8V8.5z M107.8,8.3h7.4V0.9h-7.4V8.3z"/>
				</g>
				<g>
					<path class="st1" d="M62.3,16.1h-7.8V8.3h7.8V16.1z M54.7,15.9h7.4V8.5h-7.4V15.9z"/>
				</g>
				<g>
					<path class="st1" d="M69.9,16.1h-7.8V8.3h7.8V16.1z M62.3,15.9h7.4V8.5h-7.4C62.3,8.5,62.3,15.9,62.3,15.9z"/>
				</g>
				<g>
					<path class="st1" d="M77.4,16.1h-7.8V8.3h7.8V16.1z M69.9,15.9h7.4V8.5h-7.4V15.9z"/>
				</g>
				<g>
					<path class="st1" d="M85,16.1h-7.8V8.3H85V16.1z M77.4,15.9h7.4V8.5h-7.4V15.9z"/>
				</g>
				<g>
					<path class="st1" d="M92.6,16.1h-7.8V8.3h7.8V16.1z M85,15.9h7.4V8.5H85V15.9z"/>
				</g>
				<g>
					<path class="st1" d="M100.2,16.1h-7.8V8.3h7.8V16.1z M92.6,15.9h7.4V8.5h-7.4V15.9z"/>
				</g>
				<g>
					<path class="st1" d="M107.8,16.1H100V8.3h7.8V16.1z M100.2,15.9h7.4V8.5h-7.4V15.9z"/>
				</g>
				<g>
					<path class="st1" d="M115.4,16.1h-7.8V8.3h7.8V16.1z M107.8,15.9h7.4V8.5h-7.4V15.9z"/>
				</g>
				<g>
					<path class="st1" d="M1.6,114.8h-7.8V107h7.8C1.6,107,1.6,114.8,1.6,114.8z M-6,114.6h7.4v-7.4H-6V114.6z"/>
				</g>
				<g>
					<path class="st1" d="M9.2,114.8H1.4V107h7.8V114.8z M1.6,114.6H9v-7.4H1.6V114.6z"/>
				</g>
				<g>
					<path class="st1" d="M16.7,114.8H8.9V107h7.8V114.8z M9.2,114.6h7.4v-7.4H9.2V114.6z"/>
				</g>
				<g>
					<path class="st1" d="M24.3,114.8h-7.8V107h7.8V114.8z M16.7,114.6h7.4v-7.4h-7.4V114.6z"/>
				</g>
				<g>
					<path class="st1" d="M31.9,114.8h-7.8V107h7.8C31.9,107,31.9,114.8,31.9,114.8z M24.3,114.6h7.4v-7.4h-7.4V114.6z"/>
				</g>
				<g>
					<path class="st1" d="M39.5,114.8h-7.8V107h7.8V114.8z M31.9,114.6h7.4v-7.4h-7.4V114.6z"/>
				</g>
				<g>
					<path class="st1" d="M47.1,114.8h-7.8V107h7.8V114.8z M39.5,114.6h7.4v-7.4h-7.4V114.6z"/>
				</g>
				<g>
					<path class="st1" d="M54.7,114.8h-7.8V107h7.8V114.8z M47.1,114.6h7.4v-7.4h-7.4V114.6z"/>
				</g>
				<g>
					<path class="st1" d="M1.6,122.4h-7.8v-7.8h7.8C1.6,114.6,1.6,122.4,1.6,122.4z M-6,122.2h7.4v-7.4H-6V122.2z"/>
				</g>
				<g>
					<path class="st1" d="M9.2,122.4H1.4v-7.8h7.8V122.4z M1.6,122.2H9v-7.4H1.6V122.2z"/>
				</g>
				<g>
					<path class="st1" d="M16.7,122.4H8.9v-7.8h7.8V122.4z M9.2,122.2h7.4v-7.4H9.2V122.2z"/>
				</g>
				<g>
					<path class="st1" d="M24.3,122.4h-7.8v-7.8h7.8V122.4z M16.7,122.2h7.4v-7.4h-7.4V122.2z"/>
				</g>
				<g>
					<path class="st1" d="M31.9,122.4h-7.8v-7.8h7.8C31.9,114.6,31.9,122.4,31.9,122.4z M24.3,122.2h7.4v-7.4h-7.4V122.2z"/>
				</g>
				<g>
					<path class="st1" d="M39.5,122.4h-7.8v-7.8h7.8V122.4z M31.9,122.2h7.4v-7.4h-7.4V122.2z"/>
				</g>
				<g>
					<path class="st1" d="M47.1,122.4h-7.8v-7.8h7.8V122.4z M39.5,122.2h7.4v-7.4h-7.4V122.2z"/>
				</g>
				<g>
					<path class="st1" d="M54.7,122.4h-7.8v-7.8h7.8V122.4z M47.1,122.2h7.4v-7.4h-7.4V122.2z"/>
				</g>
				<g>
					<path class="st1" d="M1.6,99.6h-7.8v-7.8h7.8C1.6,91.8,1.6,99.6,1.6,99.6z M-6,99.4h7.4V92H-6V99.4z"/>
				</g>
				<g>
					<path class="st1" d="M9.2,99.6H1.4v-7.8h7.8V99.6z M1.6,99.4H9V92H1.6V99.4z"/>
				</g>
				<g>
					<path class="st1" d="M16.7,99.6H8.9v-7.8h7.8V99.6z M9.2,99.4h7.4V92H9.2V99.4z"/>
				</g>
				<g>
					<path class="st1" d="M24.3,99.6h-7.8v-7.8h7.8V99.6z M16.7,99.4h7.4V92h-7.4V99.4z"/>
				</g>
				<g>
					<path class="st1" d="M31.9,99.6h-7.8v-7.8h7.8C31.9,91.8,31.9,99.6,31.9,99.6z M24.3,99.4h7.4V92h-7.4V99.4z"/>
				</g>
				<g>
					<path class="st1" d="M39.5,99.6h-7.8v-7.8h7.8V99.6z M31.9,99.4h7.4V92h-7.4V99.4z"/>
				</g>
				<g>
					<path class="st1" d="M47.1,99.6h-7.8v-7.8h7.8V99.6z M39.5,99.4h7.4V92h-7.4V99.4z"/>
				</g>
				<g>
					<path class="st1" d="M54.7,99.6h-7.8v-7.8h7.8V99.6z M47.1,99.4h7.4V92h-7.4V99.4z"/>
				</g>
				<g>
					<path class="st1" d="M1.6,107.2h-7.8v-7.8h7.8C1.6,99.4,1.6,107.2,1.6,107.2z M-6,107h7.4v-7.4H-6V107z"/>
				</g>
				<g>
					<path class="st1" d="M9.2,107.2H1.4v-7.8h7.8V107.2z M1.6,107H9v-7.4H1.6V107z"/>
				</g>
				<g>
					<path class="st1" d="M16.7,107.2H8.9v-7.8h7.8V107.2z M9.2,107h7.4v-7.4H9.2V107z"/>
				</g>
				<g>
					<path class="st1" d="M24.3,107.2h-7.8v-7.8h7.8V107.2z M16.7,107h7.4v-7.4h-7.4V107z"/>
				</g>
				<g>
					<path class="st1" d="M31.9,107.2h-7.8v-7.8h7.8C31.9,99.4,31.9,107.2,31.9,107.2z M24.3,107h7.4v-7.4h-7.4V107z"/>
				</g>
				<g>
					<path class="st1" d="M39.5,107.2h-7.8v-7.8h7.8V107.2z M31.9,107h7.4v-7.4h-7.4V107z"/>
				</g>
				<g>
					<path class="st1" d="M47.1,107.2h-7.8v-7.8h7.8V107.2z M39.5,107h7.4v-7.4h-7.4V107z"/>
				</g>
				<g>
					<path class="st1" d="M54.7,107.2h-7.8v-7.8h7.8V107.2z M47.1,107h7.4v-7.4h-7.4V107z"/>
				</g>
				<g>
					<path class="st1" d="M1.6,84.5h-7.8v-7.8h7.8C1.6,76.7,1.6,84.5,1.6,84.5z M-6,84.2h7.4v-7.4H-6V84.2z"/>
				</g>
				<g>
					<path class="st1" d="M9.2,84.5H1.4v-7.8h7.8V84.5z M1.6,84.2H9v-7.4H1.6V84.2z"/>
				</g>
				<g>
					<path class="st1" d="M16.7,84.5H8.9v-7.8h7.8V84.5z M9.2,84.2h7.4v-7.4H9.2V84.2z"/>
				</g>
				<g>
					<path class="st1" d="M24.3,84.5h-7.8v-7.8h7.8V84.5z M16.7,84.2h7.4v-7.4h-7.4V84.2z"/>
				</g>
				<g>
					<path class="st1" d="M31.9,84.5h-7.8v-7.8h7.8C31.9,76.7,31.9,84.5,31.9,84.5z M24.3,84.2h7.4v-7.4h-7.4V84.2z"/>
				</g>
				<g>
					<path class="st1" d="M39.5,84.5h-7.8v-7.8h7.8V84.5z M31.9,84.2h7.4v-7.4h-7.4V84.2z"/>
				</g>
				<g>
					<path class="st1" d="M47.1,84.5h-7.8v-7.8h7.8V84.5z M39.5,84.2h7.4v-7.4h-7.4V84.2z"/>
				</g>
				<g>
					<path class="st1" d="M54.7,84.5h-7.8v-7.8h7.8V84.5z M47.1,84.2h7.4v-7.4h-7.4V84.2z"/>
				</g>
				<g>
					<path class="st1" d="M1.6,92h-7.8v-7.8h7.8C1.6,84.2,1.6,92,1.6,92z M-6,91.8h7.4v-7.4H-6V91.8z"/>
				</g>
				<g>
					<path class="st1" d="M9.2,92H1.4v-7.8h7.8V92z M1.6,91.8H9v-7.4H1.6V91.8z"/>
				</g>
				<g>
					<path class="st1" d="M16.7,92H8.9v-7.8h7.8V92z M9.2,91.8h7.4v-7.4H9.2V91.8z"/>
				</g>
				<g>
					<path class="st1" d="M24.3,92h-7.8v-7.8h7.8V92z M16.7,91.8h7.4v-7.4h-7.4V91.8z"/>
				</g>
				<g>
					<path class="st1" d="M31.9,92h-7.8v-7.8h7.8C31.9,84.2,31.9,92,31.9,92z M24.3,91.8h7.4v-7.4h-7.4V91.8z"/>
				</g>
				<g>
					<path class="st1" d="M39.5,92h-7.8v-7.8h7.8V92z M31.9,91.8h7.4v-7.4h-7.4V91.8z"/>
				</g>
				<g>
					<path class="st1" d="M47.1,92h-7.8v-7.8h7.8V92z M39.5,91.8h7.4v-7.4h-7.4V91.8z"/>
				</g>
				<g>
					<path class="st1" d="M54.7,92h-7.8v-7.8h7.8V92z M47.1,91.8h7.4v-7.4h-7.4V91.8z"/>
				</g>
				<g>
					<path class="st1" d="M1.6,69.2h-7.8v-7.8h7.8C1.6,61.4,1.6,69.2,1.6,69.2z M-6,69h7.4v-7.4H-6V69z"/>
				</g>
				<g>
					<path class="st1" d="M9.2,69.2H1.4v-7.8h7.8V69.2z M1.6,69H9v-7.4H1.6V69z"/>
				</g>
				<g>
					<path class="st1" d="M16.7,69.2H8.9v-7.8h7.8V69.2z M9.2,69h7.4v-7.4H9.2V69z"/>
				</g>
				<g>
					<path class="st1" d="M24.3,69.2h-7.8v-7.8h7.8V69.2z M16.7,69h7.4v-7.4h-7.4V69z"/>
				</g>
				<g>
					<path class="st1" d="M31.9,69.2h-7.8v-7.8h7.8C31.9,61.4,31.9,69.2,31.9,69.2z M24.3,69h7.4v-7.4h-7.4V69z"/>
				</g>
				<g>
					<path class="st1" d="M39.5,69.2h-7.8v-7.8h7.8V69.2z M31.9,69h7.4v-7.4h-7.4V69z"/>
				</g>
				<g>
					<path class="st1" d="M47.1,69.2h-7.8v-7.8h7.8V69.2z M39.5,69h7.4v-7.4h-7.4V69z"/>
				</g>
				<g>
					<path class="st1" d="M54.7,69.2h-7.8v-7.8h7.8V69.2z M47.1,69h7.4v-7.4h-7.4V69z"/>
				</g>
				<g>
					<path class="st1" d="M1.6,76.8h-7.8V69h7.8C1.6,69,1.6,76.8,1.6,76.8z M-6,76.6h7.4v-7.4H-6V76.6z"/>
				</g>
				<g>
					<path class="st1" d="M9.2,76.8H1.4V69h7.8V76.8z M1.6,76.6H9v-7.4H1.6V76.6z"/>
				</g>
				<g>
					<path class="st1" d="M16.7,76.8H8.9V69h7.8V76.8z M9.2,76.6h7.4v-7.4H9.2V76.6z"/>
				</g>
				<g>
					<path class="st1" d="M24.3,76.8h-7.8V69h7.8V76.8z M16.7,76.6h7.4v-7.4h-7.4V76.6z"/>
				</g>
				<g>
					<path class="st1" d="M31.9,76.8h-7.8V69h7.8C31.9,69,31.9,76.8,31.9,76.8z M24.3,76.6h7.4v-7.4h-7.4V76.6z"/>
				</g>
				<g>
					<path class="st1" d="M39.5,76.8h-7.8V69h7.8V76.8z M31.9,76.6h7.4v-7.4h-7.4V76.6z"/>
				</g>
				<g>
					<path class="st1" d="M47.1,76.8h-7.8V69h7.8V76.8z M39.5,76.6h7.4v-7.4h-7.4V76.6z"/>
				</g>
				<g>
					<path class="st1" d="M54.7,76.8h-7.8V69h7.8V76.8z M47.1,76.6h7.4v-7.4h-7.4V76.6z"/>
				</g>
				<g>
					<path class="st1" d="M62.3,114.8h-7.8V107h7.8V114.8z M54.7,114.6h7.4v-7.4h-7.4V114.6z"/>
				</g>
				<g>
					<path class="st1" d="M69.9,114.8h-7.8V107h7.8V114.8z M62.3,114.6h7.4v-7.4h-7.4C62.3,107.2,62.3,114.6,62.3,114.6z"/>
				</g>
				<g>
					<path class="st1" d="M77.4,114.8h-7.8V107h7.8V114.8z M69.9,114.6h7.4v-7.4h-7.4V114.6z"/>
				</g>
				<g>
					<path class="st1" d="M85,114.8h-7.8V107H85V114.8z M77.4,114.6h7.4v-7.4h-7.4V114.6z"/>
				</g>
				<g>
					<path class="st1" d="M92.6,114.8h-7.8V107h7.8V114.8z M85,114.6h7.4v-7.4H85V114.6z"/>
				</g>
				<g>
					<path class="st1" d="M100.2,114.8h-7.8V107h7.8V114.8z M92.6,114.6h7.4v-7.4h-7.4V114.6z"/>
				</g>
				<g>
					<path class="st1" d="M107.8,114.8H100V107h7.8V114.8z M100.2,114.6h7.4v-7.4h-7.4V114.6z"/>
				</g>
				<g>
					<path class="st1" d="M115.4,114.8h-7.8V107h7.8V114.8z M107.8,114.6h7.4v-7.4h-7.4V114.6z"/>
				</g>
				<g>
					<path class="st1" d="M62.3,122.4h-7.8v-7.8h7.8V122.4z M54.7,122.2h7.4v-7.4h-7.4V122.2z"/>
				</g>
				<g>
					<path class="st1" d="M69.9,122.4h-7.8v-7.8h7.8V122.4z M62.3,122.2h7.4v-7.4h-7.4C62.3,114.8,62.3,122.2,62.3,122.2z"/>
				</g>
				<g>
					<path class="st1" d="M77.4,122.4h-7.8v-7.8h7.8V122.4z M69.9,122.2h7.4v-7.4h-7.4V122.2z"/>
				</g>
				<g>
					<path class="st1" d="M85,122.4h-7.8v-7.8H85V122.4z M77.4,122.2h7.4v-7.4h-7.4V122.2z"/>
				</g>
				<g>
					<path class="st1" d="M92.6,122.4h-7.8v-7.8h7.8V122.4z M85,122.2h7.4v-7.4H85V122.2z"/>
				</g>
				<g>
					<path class="st1" d="M100.2,122.4h-7.8v-7.8h7.8V122.4z M92.6,122.2h7.4v-7.4h-7.4V122.2z"/>
				</g>
				<g>
					<path class="st1" d="M107.8,122.4H100v-7.8h7.8V122.4z M100.2,122.2h7.4v-7.4h-7.4V122.2z"/>
				</g>
				<g>
					<path class="st1" d="M115.4,122.4h-7.8v-7.8h7.8V122.4z M107.8,122.2h7.4v-7.4h-7.4V122.2z"/>
				</g>
				<g>
					<path class="st1" d="M62.3,99.6h-7.8v-7.8h7.8V99.6z M54.7,99.4h7.4V92h-7.4V99.4z"/>
				</g>
				<g>
					<path class="st1" d="M69.9,99.6h-7.8v-7.8h7.8V99.6z M62.3,99.4h7.4V92h-7.4C62.3,92,62.3,99.4,62.3,99.4z"/>
				</g>
				<g>
					<path class="st1" d="M77.4,99.6h-7.8v-7.8h7.8V99.6z M69.9,99.4h7.4V92h-7.4V99.4z"/>
				</g>
				<g>
					<path class="st1" d="M85,99.6h-7.8v-7.8H85V99.6z M77.4,99.4h7.4V92h-7.4V99.4z"/>
				</g>
				<g>
					<path class="st1" d="M92.6,99.6h-7.8v-7.8h7.8V99.6z M85,99.4h7.4V92H85V99.4z"/>
				</g>
				<g>
					<path class="st1" d="M100.2,99.6h-7.8v-7.8h7.8V99.6z M92.6,99.4h7.4V92h-7.4V99.4z"/>
				</g>
				<g>
					<path class="st1" d="M107.8,99.6H100v-7.8h7.8V99.6z M100.2,99.4h7.4V92h-7.4V99.4z"/>
				</g>
				<g>
					<path class="st1" d="M115.4,99.6h-7.8v-7.8h7.8V99.6z M107.8,99.4h7.4V92h-7.4V99.4z"/>
				</g>
				<g>
					<path class="st1" d="M62.3,107.2h-7.8v-7.8h7.8V107.2z M54.7,107h7.4v-7.4h-7.4V107z"/>
				</g>
				<g>
					<path class="st1" d="M69.9,107.2h-7.8v-7.8h7.8V107.2z M62.3,107h7.4v-7.4h-7.4C62.3,99.6,62.3,107,62.3,107z"/>
				</g>
				<g>
					<path class="st1" d="M77.4,107.2h-7.8v-7.8h7.8V107.2z M69.9,107h7.4v-7.4h-7.4V107z"/>
				</g>
				<g>
					<path class="st1" d="M85,107.2h-7.8v-7.8H85V107.2z M77.4,107h7.4v-7.4h-7.4V107z"/>
				</g>
				<g>
					<path class="st1" d="M92.6,107.2h-7.8v-7.8h7.8V107.2z M85,107h7.4v-7.4H85V107z"/>
				</g>
				<g>
					<path class="st1" d="M100.2,107.2h-7.8v-7.8h7.8V107.2z M92.6,107h7.4v-7.4h-7.4V107z"/>
				</g>
				<g>
					<path class="st1" d="M107.8,107.2H100v-7.8h7.8V107.2z M100.2,107h7.4v-7.4h-7.4V107z"/>
				</g>
				<g>
					<path class="st1" d="M115.4,107.2h-7.8v-7.8h7.8V107.2z M107.8,107h7.4v-7.4h-7.4V107z"/>
				</g>
				<g>
					<path class="st1" d="M62.3,84.5h-7.8v-7.8h7.8V84.5z M54.7,84.2h7.4v-7.4h-7.4V84.2z"/>
				</g>
				<g>
					<path class="st1" d="M69.9,84.5h-7.8v-7.8h7.8V84.5z M62.3,84.2h7.4v-7.4h-7.4C62.3,76.8,62.3,84.2,62.3,84.2z"/>
				</g>
				<g>
					<path class="st1" d="M77.4,84.5h-7.8v-7.8h7.8V84.5z M69.9,84.2h7.4v-7.4h-7.4V84.2z"/>
				</g>
				<g>
					<path class="st1" d="M85,84.5h-7.8v-7.8H85V84.5z M77.4,84.2h7.4v-7.4h-7.4V84.2z"/>
				</g>
				<g>
					<path class="st1" d="M92.6,84.5h-7.8v-7.8h7.8V84.5z M85,84.2h7.4v-7.4H85V84.2z"/>
				</g>
				<g>
					<path class="st1" d="M100.2,84.5h-7.8v-7.8h7.8V84.5z M92.6,84.2h7.4v-7.4h-7.4V84.2z"/>
				</g>
				<g>
					<path class="st1" d="M107.8,84.5H100v-7.8h7.8V84.5z M100.2,84.2h7.4v-7.4h-7.4V84.2z"/>
				</g>
				<g>
					<path class="st1" d="M115.4,84.5h-7.8v-7.8h7.8V84.5z M107.8,84.2h7.4v-7.4h-7.4V84.2z"/>
				</g>
				<g>
					<path class="st1" d="M62.3,92h-7.8v-7.8h7.8V92z M54.7,91.8h7.4v-7.4h-7.4V91.8z"/>
				</g>
				<g>
					<path class="st1" d="M69.9,92h-7.8v-7.8h7.8V92z M62.3,91.8h7.4v-7.4h-7.4C62.3,84.4,62.3,91.8,62.3,91.8z"/>
				</g>
				<g>
					<path class="st1" d="M77.4,92h-7.8v-7.8h7.8V92z M69.9,91.8h7.4v-7.4h-7.4V91.8z"/>
				</g>
				<g>
					<path class="st1" d="M85,92h-7.8v-7.8H85V92z M77.4,91.8h7.4v-7.4h-7.4V91.8z"/>
				</g>
				<g>
					<path class="st1" d="M92.6,92h-7.8v-7.8h7.8V92z M85,91.8h7.4v-7.4H85V91.8z"/>
				</g>
				<g>
					<path class="st1" d="M100.2,92h-7.8v-7.8h7.8V92z M92.6,91.8h7.4v-7.4h-7.4V91.8z"/>
				</g>
				<g>
					<path class="st1" d="M107.8,92H100v-7.8h7.8V92z M100.2,91.8h7.4v-7.4h-7.4V91.8z"/>
				</g>
				<g>
					<path class="st1" d="M115.4,92h-7.8v-7.8h7.8V92z M107.8,91.8h7.4v-7.4h-7.4V91.8z"/>
				</g>
				<g>
					<path class="st1" d="M62.3,69.2h-7.8v-7.8h7.8V69.2z M54.7,69h7.4v-7.4h-7.4V69z"/>
				</g>
				<g>
					<path class="st1" d="M69.9,69.2h-7.8v-7.8h7.8V69.2z M62.3,69h7.4v-7.4h-7.4C62.3,61.6,62.3,69,62.3,69z"/>
				</g>
				<g>
					<path class="st1" d="M77.4,69.2h-7.8v-7.8h7.8V69.2z M69.9,69h7.4v-7.4h-7.4V69z"/>
				</g>
				<g>
					<path class="st1" d="M85,69.2h-7.8v-7.8H85V69.2z M77.4,69h7.4v-7.4h-7.4V69z"/>
				</g>
				<g>
					<path class="st1" d="M92.6,69.2h-7.8v-7.8h7.8V69.2z M85,69h7.4v-7.4H85V69z"/>
				</g>
				<g>
					<path class="st1" d="M100.2,69.2h-7.8v-7.8h7.8V69.2z M92.6,69h7.4v-7.4h-7.4V69z"/>
				</g>
				<g>
					<path class="st1" d="M107.8,69.2H100v-7.8h7.8V69.2z M100.2,69h7.4v-7.4h-7.4V69z"/>
				</g>
				<g>
					<path class="st1" d="M115.4,69.2h-7.8v-7.8h7.8V69.2z M107.8,69h7.4v-7.4h-7.4V69z"/>
				</g>
				<g>
					<path class="st1" d="M62.3,76.8h-7.8V69h7.8V76.8z M54.7,76.6h7.4v-7.4h-7.4V76.6z"/>
				</g>
				<g>
					<path class="st1" d="M69.9,76.8h-7.8V69h7.8V76.8z M62.3,76.6h7.4v-7.4h-7.4C62.3,69.2,62.3,76.6,62.3,76.6z"/>
				</g>
				<g>
					<path class="st1" d="M77.4,76.8h-7.8V69h7.8V76.8z M69.9,76.6h7.4v-7.4h-7.4V76.6z"/>
				</g>
				<g>
					<path class="st1" d="M85,76.8h-7.8V69H85V76.8z M77.4,76.6h7.4v-7.4h-7.4V76.6z"/>
				</g>
				<g>
					<path class="st1" d="M92.6,76.8h-7.8V69h7.8V76.8z M85,76.6h7.4v-7.4H85V76.6z"/>
				</g>
				<g>
					<path class="st1" d="M100.2,76.8h-7.8V69h7.8V76.8z M92.6,76.6h7.4v-7.4h-7.4V76.6z"/>
				</g>
				<g>
					<path class="st1" d="M107.8,76.8H100V69h7.8V76.8z M100.2,76.6h7.4v-7.4h-7.4V76.6z"/>
				</g>
				<g>
					<path class="st1" d="M115.4,76.8h-7.8V69h7.8V76.8z M107.8,76.6h7.4v-7.4h-7.4V76.6z"/>
				</g>
			</g>
			<g>
				<path class="st2" d="M101,101.9H8.3V14.3H101V101.9z M11,99.1h87.2V17H11V99.1z"/>
			</g>
			<g>
				<rect x="6.9" y="12.9" class="st3" width="5.5" height="5.5"/>
			</g>
			<g>
				<rect x="96.9" y="12.9" class="st3" width="5.5" height="5.5"/>
			</g>
			<g>
				<rect x="6.9" y="97.7" class="st3" width="5.5" height="5.5"/>
			</g>
			<g>
				<rect x="96.9" y="97.7" class="st3" width="5.5" height="5.5"/>
			</g>
			<g>
				<path class="st1" d="M39.5,67.5c0.8-0.4,1.5-0.9,2.2-1.5c0.6-0.7,1.1-1.4,1.4-2.3c0.3-0.9,0.5-1.9,0.5-2.9v-19h-3.1v20.5
					c0,1.1-0.2,2-0.5,2.9c-0.3,0.9-0.8,1.7-1.4,2.3c-0.1,0.2-0.3,0.3-0.5,0.4C38.6,67.9,39.1,67.7,39.5,67.5z"/>
			</g>
			<g>
				<path class="st1" d="M36.8,75c-2.4,0-4.4-0.4-6.2-1.1s-3.3-1.7-4.5-2.9c-1.2-1.2-2.1-2.7-2.7-4.4c-0.6-1.7-0.9-3.5-0.9-5.5V41.8
					h-3.1v20.8c0,2,0.3,3.9,0.9,5.5c0.6,1.7,1.5,3.2,2.7,4.4c1.2,1.2,2.7,2.2,4.5,2.9c1.8,0.7,3.9,1.1,6.2,1.1s4.4-0.4,6.2-1.1
					c1-0.4,1.9-0.9,2.7-1.4C40.9,74.7,39,75,36.8,75z"/>
			</g>
			<g>
				<polygon class="st1" points="71.8,52.1 77.8,41.8 75.6,41.8 70.7,50.3 				"/>
			</g>
			<g>
				<polygon class="st1" points="79.7,74.7 71.4,60.5 69.4,64 76.6,76.3 85.9,76.3 84.9,74.7 				"/>
			</g>
			<g>
				<polygon class="st1" points="54.5,74.7 66.4,56.4 56.2,41.8 52.1,41.8 63.3,58 51.4,76.3 60.3,76.3 61.1,74.7 				"/>
			</g>
			<g>
				<path class="st2" d="M36.8,75.4c-2.4,0-4.5-0.4-6.4-1.1c-1.8-0.7-3.4-1.7-4.6-3s-2.2-2.8-2.8-4.5c-0.6-1.7-0.9-3.6-0.9-5.7V39.9
					h8.2v20.9c0,1,0.2,1.9,0.5,2.8c0.3,0.8,0.8,1.6,1.3,2.2c0.6,0.6,1.3,1.1,2,1.4c1.6,0.7,3.6,0.7,5.2,0c0.8-0.3,1.5-0.8,2-1.4
					c0.6-0.6,1-1.4,1.3-2.2s0.5-1.8,0.5-2.8V39.9h8.2v21.2c0,2-0.3,4-0.9,5.7c-0.6,1.7-1.6,3.3-2.8,4.5c-1.2,1.3-2.8,2.3-4.6,3
					C41.3,75,39.2,75.4,36.8,75.4z M22.9,40.6V61c0,2,0.3,3.8,0.9,5.4s1.5,3.1,2.6,4.3c1.2,1.2,2.6,2.1,4.3,2.8c1.7,0.7,3.8,1,6.1,1
					s4.3-0.3,6-1s3.2-1.6,4.3-2.8c1.2-1.2,2-2.6,2.6-4.3c0.6-1.6,0.9-3.5,0.9-5.4V40.6H44v20.1c0,1.1-0.2,2.1-0.5,3.1
					c-0.4,0.9-0.9,1.8-1.5,2.4c-0.6,0.7-1.4,1.2-2.3,1.6c-1.7,0.8-4,0.8-5.8,0c-0.9-0.4-1.7-0.9-2.3-1.6c-0.6-0.7-1.1-1.5-1.5-2.4
					c-0.3-0.9-0.5-2-0.5-3.1V40.6H22.9z"/>
			</g>
			<g>
				<path class="st2" d="M89.8,75.1H79.4l-8-13.8l-7.8,13.8h-9.8l12.1-18.7L54.4,39.9h10.3l7,11.5l6.7-11.5h10L77.3,56.3L89.8,75.1z
					 M79.9,74.3h8.4l-12-18L87,40.6h-8.1l-7.2,12.2l-7.4-12.2h-8.4l10.9,15.8L55.2,74.3h7.9l8.3-14.6L79.9,74.3z"/>
			</g>
			<g>
				<rect x="21.7" y="39.6" class="st4" width="1.5" height="1.5"/>
				<path class="st2" d="M23.5,41.3h-2v-2h2V41.3z M21.9,40.9H23v-1.1h-1.1V40.9z"/>
			</g>
			<g>
				<rect x="29" y="39.6" class="st4" width="1.5" height="1.5"/>
				<path class="st2" d="M30.7,41.3h-2v-2h2V41.3z M29.2,40.9h1.1v-1.1h-1.1V40.9z"/>
			</g>
			<g>
				<rect x="54.6" y="39.6" class="st4" width="1.5" height="1.5"/>
				<path class="st2" d="M56.3,41.3h-2v-2h2V41.3z M54.8,40.9h1.1v-1.1h-1.1V40.9z"/>
			</g>
			<g>
				<rect x="63.8" y="39.6" class="st4" width="1.5" height="1.5"/>
				<path class="st2" d="M65.5,41.3h-2v-2h2V41.3z M64,40.9h1.1v-1.1H64V40.9z"/>
			</g>
			<g>
				<rect x="77.8" y="39.6" class="st4" width="1.5" height="1.5"/>
				<path class="st2" d="M79.5,41.3h-2v-2h2V41.3z M78,40.9h1.1v-1.1H78V40.9z"/>
			</g>
			<g>
				<rect x="87" y="39.6" class="st4" width="1.5" height="1.5"/>
				<path class="st2" d="M88.7,41.3h-2v-2h2V41.3z M87.2,40.9h1.1v-1.1h-1.1V40.9z"/>
			</g>
			<g>
				<rect x="36" y="74.6" class="st4" width="1.5" height="1.5"/>
				<path class="st2" d="M37.8,76.3h-2v-2h2V76.3z M36.2,75.9h1.1v-1.1h-1.1V75.9z"/>
			</g>
			<g>
				<rect x="36" y="67.4" class="st4" width="1.5" height="1.5"/>
				<path class="st2" d="M37.8,69.1h-2v-2h2V69.1z M36.2,68.7h1.1v-1.1h-1.1V68.7z"/>
			</g>
			<g>
				<rect x="50.4" y="39.6" class="st4" width="1.5" height="1.5"/>
				<path class="st2" d="M52.1,41.3h-2v-2h2V41.3z M50.5,40.9h1.1v-1.1h-1.1V40.9z"/>
			</g>
			<g>
				<rect x="42.7" y="39.6" class="st4" width="1.5" height="1.5"/>
				<path class="st2" d="M44.4,41.3h-2v-2h2V41.3z M42.8,40.9H44v-1.1h-1.1v1.1H42.8z"/>
			</g>
			<g>
				<rect x="71" y="51.3" class="st4" width="1.5" height="1.5"/>
				<path class="st2" d="M72.8,53.1h-2v-2h2V53.1z M71.2,52.7h1.1v-1.1h-1.1V52.7z"/>
			</g>
			<g>
				<rect x="70.6" y="59.7" class="st4" width="1.5" height="1.5"/>
				<path class="st2" d="M72.4,61.5h-2v-2h2V61.5z M70.8,61.1H72V60h-1.1L70.8,61.1L70.8,61.1z"/>
			</g>
			<g>
				<rect x="79.1" y="73.9" class="st4" width="1.5" height="1.5"/>
				<path class="st2" d="M80.8,75.7h-2v-2h2V75.7z M79.3,75.3h1.1v-1.1h-1.1V75.3z"/>
			</g>
			<g>
				<rect x="88.3" y="73.9" class="st4" width="1.5" height="1.5"/>
				<path class="st2" d="M90,75.7h-2v-2h2V75.7z M88.5,75.3h1.1v-1.1h-1.1V75.3z"/>
			</g>
			<g>
				<rect x="53.7" y="73.9" class="st4" width="1.5" height="1.5"/>
				<path class="st2" d="M55.5,75.7h-2v-2h2V75.7z M53.9,75.3H55v-1.1h-1.1V75.3z"/>
			</g>
			<g>
				<rect x="62.9" y="73.9" class="st4" width="1.5" height="1.5"/>
				<path class="st2" d="M64.7,75.7h-2v-2h2V75.7z M63.1,75.3h1.1v-1.1h-1.1V75.3z"/>
			</g>
			<g>
				<rect x="26.4" y="75.1" class="st2" width="20.8" height="0.4"/>
			</g>
			<g>
				<path class="st2" d="M25.7,76.5l-1.2-1.2l1.2-1.2l1.2,1.2L25.7,76.5z M25.1,75.3l0.6,0.6l0.6-0.6l-0.6-0.6L25.1,75.3z"/>
			</g>
			<g>
				<path class="st2" d="M48,76.5l-1.2-1.2l1.2-1.2l1.2,1.2L48,76.5z M47.3,75.3L48,76l0.6-0.6L48,74.7L47.3,75.3z"/>
			</g>
		</g>
		<g>
			<g>
				<circle class="st2" cx="73.8" cy="93.7" r="1.7"/>
			</g>
			<g>
				<circle class="st2" cx="84.9" cy="93.7" r="1.7"/>
			</g>
			<g>
				<circle class="st2" cx="73.8" cy="107.1" r="1.7"/>
			</g>
			<g>
				<circle class="st2" cx="84.9" cy="107.1" r="1.7"/>
			</g>
		</g>
	</g>
</g>
</svg>
