<?xml version="1.0" encoding="utf-8"?>
<!-- Generator: Adobe Illustrator 22.1.0, SVG Export Plug-In . SVG Version: 6.00 Build 0)  -->
<svg version="1.1" id="Layer_1" xmlns="http://www.w3.org/2000/svg" xmlns:xlink="http://www.w3.org/1999/xlink" x="0px" y="0px"
	 viewBox="0 0 110.4 121.1" style="enable-background:new 0 0 110.4 121.1;" xml:space="preserve">
<style type="text/css">
	.st0{fill:#D8D8D8;}
	.st1{fill:#FFFFFF;}
	.st2{fill:#40404F;}
	.st3{fill:#668EFF;}
	.st4{fill:#00DFD3;}
</style>
<g>
	<g>
		<g>
			<rect y="5.7" class="st0" width="104.7" height="78.6"/>
		</g>
		<g>
			<rect x="4.9" y="10.4" class="st1" width="98.5" height="72.6"/>
			<path class="st2" d="M104.6,84.2H3.8V9.3h100.8C104.6,9.3,104.6,84.2,104.6,84.2z M6.1,81.9h96.3V11.6H6.1V81.9z"/>
		</g>
		<g>
			<rect x="5.1" y="19" class="st2" width="97.2" height="2.2"/>
		</g>
		<g>
			<g>
				<circle class="st2" cx="98" cy="15.2" r="1.3"/>
			</g>
			<g>
				<circle class="st2" cx="93.9" cy="15.2" r="1.3"/>
			</g>
			<g>
				<circle class="st2" cx="89.9" cy="15.2" r="1.3"/>
			</g>
		</g>
		<g>
			<g>
				<circle class="st3" cx="84.6" cy="95.7" r="23.9"/>
				<path class="st2" d="M84.6,120.7c-13.8,0-25-11.2-25-25s11.2-25,25-25s25,11.2,25,25S98.4,120.7,84.6,120.7z M84.6,73
					C72,73,61.8,83.2,61.8,95.7s10.2,22.8,22.8,22.8s22.8-10.2,22.8-22.8S97.1,73,84.6,73z"/>
			</g>
			<g>
				<g>
					<path class="st2" d="M73,101.9c-0.9-1.8-1.4-3.8-1.4-5.8c0-7.1,5.8-12.9,12.9-12.9c1.7,0,3.4,0.3,5,1l-0.9,2.1
						c-1.3-0.6-2.7-0.8-4.2-0.8c-5.9,0-10.7,4.8-10.7,10.7c0,1.7,0.4,3.3,1.1,4.8L73,101.9z"/>
				</g>
				<g>
					<path class="st2" d="M84.6,109c-2.1,0-4.2-0.5-6.1-1.5l1.1-2c1.5,0.8,3.3,1.3,5,1.3c5.9,0,10.7-4.8,10.7-10.7
						c0-2.1-0.6-4.2-1.8-6l1.9-1.3c1.4,2.1,2.2,4.6,2.2,7.2C97.5,103.2,91.7,109,84.6,109z"/>
				</g>
				<g>
					<polygon class="st2" points="85.3,91.7 83.8,90.1 88.7,85.2 83.8,80.2 85.3,78.6 91.9,85.2 					"/>
				</g>
				<g>
					<polygon class="st2" points="82.8,112.8 76.3,106.3 82.8,99.7 84.4,101.3 79.5,106.3 84.4,111.2 					"/>
				</g>
			</g>
		</g>
		<g>
			<rect x="11.9" y="28.2" class="st4" width="67.9" height="9.5"/>
		</g>
		<g>
			<rect x="10.6" y="46.1" class="st2" width="60.1" height="2.2"/>
		</g>
		<g>
			<rect x="10.6" y="54.8" class="st2" width="60.1" height="2.2"/>
		</g>
		<g>
			<rect x="10.6" y="63.2" class="st2" width="60.1" height="2.2"/>
		</g>
		<g>
			<g>
				<circle class="st2" cx="59.6" cy="2.7" r="1.6"/>
			</g>
			<g>
				<circle class="st2" cx="70" cy="2.7" r="1.6"/>
			</g>
			<g>
				<circle class="st2" cx="59.6" cy="15.3" r="1.6"/>
			</g>
			<g>
				<circle class="st2" cx="70" cy="15.3" r="1.6"/>
			</g>
		</g>
	</g>
</g>
</svg>
